<svg width="38" height="38" viewBox="0 0 38 38" fill="none" xmlns="http://www.w3.org/2000/svg">
<path d="M36.9167 9.08333C36.9167 9.08333 36.9167 9 36.8333 9L28.9167 1.08333C28.9167 1.08333 28.8333 1.08333 28.8333 1H9.08333C9.08333 1 9 1 9 1.08333L1.08333 9C1.08333 9 1.08333 9.08333 1 9.08333V28.9167C1 28.9167 1 29 1.08333 29L9 36.9167L9.08333 37H28.9167C28.9167 37 29 37 29 36.9167L36.9167 29C36.9167 29 36.9167 28.9167 37 28.9167V9.08333H36.9167ZM1.25 9.33333L2.41667 10L5.33333 11.5833V26.4167L2.41667 28L1.25 28.6667V9.33333ZM28.9167 1.41667L36.5833 9.08333L36.4167 9.16667L32.5 11.3333L26.6667 5.5L28.9167 1.41667ZM32.3333 26.25L31.4167 25.75L29.5833 24.75V13.25L32.3333 11.75V26.25ZM8.66667 24.5V13.4167L9.08333 13.6667L10.25 14.3333V23.6667L8.75 24.5H8.66667ZM10.5833 14.25L14.3333 10.5H23.75L27.5 14.25V23.6667L23.75 27.4167H14.25L10.5 23.6667V14.25H10.5833ZM27.6667 23.6667V14.3333L28.8333 13.6667L29.25 13.4167V24.5L29.1667 24.4167L27.6667 23.6667ZM29.1667 13.1667L27.5 14.0833L23.8333 10.4167L24.75 8.75L26.9167 10.9167L29.1667 13.1667ZM24.25 9.16667L23.5833 10.3333H14.3333L13.6667 9.16667L13.4167 8.75H24.5L24.25 9.16667ZM13.6667 28.8333L14.3333 27.6667H23.6667L24.3333 28.8333L24.5833 29.25H13.4167L13.6667 28.8333ZM24.8333 29.1667L23.9167 27.5L27.5833 23.8333L28.6667 24.4167L29.1667 24.6667L27 26.8333L24.8333 29.1667ZM32.25 11.4167L29.5 12.9167L27.25 10.6667L24.9167 8.5L26.4167 5.75L29.3333 8.58333L32.25 11.4167ZM25.8333 6.33333L24.6667 8.41667H13.25L12.25 6.58333L11.75 5.66667H26.25L25.8333 6.33333ZM13.1667 8.75L14.0833 10.4167L10.4167 14.0833L8.75 13.1667L10.9167 11L13.1667 8.75ZM5.66667 26.25V11.75L6.16667 12L8.41667 13.25V24.6667L6.41667 25.75L5.66667 26.25ZM8.75 24.8333L9.25 24.5833L10.3333 24L14 27.6667L13.0833 29.3333L10.9167 27.1667L8.75 24.8333ZM12.1667 31.5L13.25 29.5H24.6667L25.9167 31.75L26.1667 32.25H11.75L12.1667 31.5ZM26.5 32.25L26.4167 32.0833L24.9167 29.4167L27.1667 27.1667L29.4167 24.9167L32.1667 26.4167L29.3333 29.3333L26.5 32.25ZM28.0833 2.25L26.3333 5.33333H11.5833L9.66667 1.91667L9.33333 1.25H28.6667L28.0833 2.25ZM11.4167 5.75L13 8.5L10.75 10.75L8.5 13L5.75 11.5L11.4167 5.75ZM5.75 26.5L8.5 24.9167L10.75 27.1667L13 29.4167L11.5 32.1667L8.58333 29.3333L5.75 26.5ZM9.75 35.8333L11.5833 32.5833H26.4167L28 35.5L28.6667 36.6667H9.33333L9.75 35.8333ZM26.6667 32.5L29.5833 29.5833L32.5 26.6667L36.5833 28.9167L28.9167 36.5833L26.6667 32.5ZM35.6667 28.0833L32.5833 26.3333V11.5833L35.6667 9.83333L36.6667 9.25V28.5833L35.6667 28.0833ZM9 1.41667L9.16667 1.66667L11.3333 5.5L8.41667 8.41667L5.5 11.3333L1.41667 9L9 1.41667ZM5.5 26.6667L8.41667 29.5833L11.3333 32.5L9.16667 36.4167L9.08333 36.5833L1.41667 28.9167L5.5 26.6667Z" fill="#2D6380" stroke="#2D6380" stroke-width="1.5" stroke-linecap="round" stroke-linejoin="round"/>
</svg>
