<svg width="32" height="38" viewBox="0 0 32 38" fill="none" xmlns="http://www.w3.org/2000/svg">
<mask id="path-1-outside-1" maskUnits="userSpaceOnUse" x="0" y="0" width="32" height="38" fill="black">
<rect fill="white" width="32" height="38"/>
<path d="M30.2788 7.048C30.2788 6.976 30.2788 6.976 30.2788 7.048L28.5481 3.952L24.8702 1.432H24.7981L16 1L7.20192 1.36H7.12981L3.45192 3.88L1.72115 6.904V6.976L1 18.928L1.72115 30.88V30.952L3.45192 33.976L7.12981 36.496H7.20192L16 37L24.2933 36.784H24.3654L28.5481 34.12L30.2788 31.096V31.024L31 19.072L30.2788 7.048ZM3.52404 29.872L5.75961 28.144L3.52404 33.688L2.00962 31.024L3.52404 29.872ZM8.71635 5.968L8.86058 6.328L5.25481 4.672L3.88462 4.024L7.12981 1.72L8.71635 5.968ZM25.1587 32.032L22.851 30.808L20.8317 25.912L25.8077 27.784L28.1875 33.616L25.1587 32.032ZM16 1.288L22.7067 6.544L16 11.008L13.476 9.352L9.36538 6.616L14.7019 2.44L16 1.288ZM20.4712 25.624L16 26.704L11.5288 25.624L11.2404 24.184L10.0865 19L11.2404 13.816L11.5288 12.376L16 11.296L20.4712 12.376L20.7596 13.816L21.9135 19L20.7596 24.184L20.4712 25.624ZM6.26442 10.504L9.94231 11.872L11.2404 12.376L10.4471 15.832L9.87019 18.568L9.50962 17.848L6.26442 10.504ZM9.87019 19.432L10.6635 23.104L11.2404 25.624L6.33654 27.424L8.21154 23.248L9.87019 19.432ZM20.7596 25.624L21.8413 20.728L22.1298 19.504L25.6635 27.496L20.7596 25.624ZM25.5913 10.504L22.0577 18.568L20.6875 12.376L22.4904 11.656L25.5913 10.504ZM20.4712 12.088L16.3606 11.08L22.7067 6.976L21.8413 8.92L20.4712 12.088ZM15.6394 11.08L11.5288 12.088L10.7356 10.288L9.36538 6.976L14.9904 10.72L15.6394 11.08ZM9.36538 30.592L11.3125 26.272L11.4567 25.912L15.5673 26.92L9.36538 30.592ZM16.3606 26.92L20.4712 25.912L22.4183 30.592L16.3606 26.92ZM25.8798 10.576L30.7115 19L25.9519 27.352L22.2019 19L25.8798 10.576ZM24.5817 10.648L20.8317 12.088L22.0577 9.136L23.0673 6.76L28.1875 4.384L25.8077 10.216L24.5817 10.648ZM8.93269 6.688L11.1683 12.016L6.12019 10.144L5.75961 9.136L3.8125 4.24L8.93269 6.688ZM5.97596 10.576L9.79808 19L6.04808 27.352L1.28846 19L2.08173 17.632L5.97596 10.576ZM6.19231 27.784L11.1683 25.912L9.00481 30.808L3.88462 33.616L4.02885 33.328L6.19231 27.784ZM3.52404 4.312L4.96635 7.912L5.6875 9.784L2.00962 6.976L3.52404 4.312ZM16 36.64L9.29327 30.88L16 26.92L16.8654 27.496L22.4904 30.88L22.0577 31.24L16 36.64ZM22.6346 31.168L24.0769 36.496L16.3606 36.64L22.6346 31.168ZM28.476 33.688L26.2404 28.144L29.9904 31.024L28.476 33.688ZM30.7115 18.424L26.0962 10.288L30.0625 7.264L30.7115 18.424ZM26.2404 9.856L28.1875 5.176L28.5481 4.384L30.0625 7.048L26.2404 9.856ZM23.2115 6.328L24.8702 1.72L28.1875 4.024L23.2115 6.328ZM24.149 2.872L22.9231 6.328L16.4327 1.288L24.5817 1.576L24.149 2.872ZM15.5673 1.288L9.14904 6.328L7.41827 1.576L15.5673 1.288ZM1.9375 7.336L5.83173 10.36L1.36058 18.496L1.9375 7.336ZM1.28846 19.576L5.90385 27.64L2.51442 30.232L1.9375 30.664L1.28846 19.576ZM7.41827 31.96L8.78846 31.24L7.12981 36.28L3.8125 33.976L7.41827 31.96ZM7.41827 36.424L9.14904 31.24L15.6394 36.784L7.41827 36.424ZM24.3654 36.424L22.9231 31.168L28.1875 33.976L24.3654 36.424ZM30.0625 30.736L28.1154 29.224L26.0962 27.64L30.7115 19.576L30.0625 30.736Z"/>
</mask>
<path d="M30.2788 7.048C30.2788 6.976 30.2788 6.976 30.2788 7.048L28.5481 3.952L24.8702 1.432H24.7981L16 1L7.20192 1.36H7.12981L3.45192 3.88L1.72115 6.904V6.976L1 18.928L1.72115 30.88V30.952L3.45192 33.976L7.12981 36.496H7.20192L16 37L24.2933 36.784H24.3654L28.5481 34.12L30.2788 31.096V31.024L31 19.072L30.2788 7.048ZM3.52404 29.872L5.75961 28.144L3.52404 33.688L2.00962 31.024L3.52404 29.872ZM8.71635 5.968L8.86058 6.328L5.25481 4.672L3.88462 4.024L7.12981 1.72L8.71635 5.968ZM25.1587 32.032L22.851 30.808L20.8317 25.912L25.8077 27.784L28.1875 33.616L25.1587 32.032ZM16 1.288L22.7067 6.544L16 11.008L13.476 9.352L9.36538 6.616L14.7019 2.44L16 1.288ZM20.4712 25.624L16 26.704L11.5288 25.624L11.2404 24.184L10.0865 19L11.2404 13.816L11.5288 12.376L16 11.296L20.4712 12.376L20.7596 13.816L21.9135 19L20.7596 24.184L20.4712 25.624ZM6.26442 10.504L9.94231 11.872L11.2404 12.376L10.4471 15.832L9.87019 18.568L9.50962 17.848L6.26442 10.504ZM9.87019 19.432L10.6635 23.104L11.2404 25.624L6.33654 27.424L8.21154 23.248L9.87019 19.432ZM20.7596 25.624L21.8413 20.728L22.1298 19.504L25.6635 27.496L20.7596 25.624ZM25.5913 10.504L22.0577 18.568L20.6875 12.376L22.4904 11.656L25.5913 10.504ZM20.4712 12.088L16.3606 11.08L22.7067 6.976L21.8413 8.92L20.4712 12.088ZM15.6394 11.08L11.5288 12.088L10.7356 10.288L9.36538 6.976L14.9904 10.72L15.6394 11.08ZM9.36538 30.592L11.3125 26.272L11.4567 25.912L15.5673 26.92L9.36538 30.592ZM16.3606 26.92L20.4712 25.912L22.4183 30.592L16.3606 26.92ZM25.8798 10.576L30.7115 19L25.9519 27.352L22.2019 19L25.8798 10.576ZM24.5817 10.648L20.8317 12.088L22.0577 9.136L23.0673 6.76L28.1875 4.384L25.8077 10.216L24.5817 10.648ZM8.93269 6.688L11.1683 12.016L6.12019 10.144L5.75961 9.136L3.8125 4.24L8.93269 6.688ZM5.97596 10.576L9.79808 19L6.04808 27.352L1.28846 19L2.08173 17.632L5.97596 10.576ZM6.19231 27.784L11.1683 25.912L9.00481 30.808L3.88462 33.616L4.02885 33.328L6.19231 27.784ZM3.52404 4.312L4.96635 7.912L5.6875 9.784L2.00962 6.976L3.52404 4.312ZM16 36.64L9.29327 30.88L16 26.92L16.8654 27.496L22.4904 30.88L22.0577 31.24L16 36.64ZM22.6346 31.168L24.0769 36.496L16.3606 36.64L22.6346 31.168ZM28.476 33.688L26.2404 28.144L29.9904 31.024L28.476 33.688ZM30.7115 18.424L26.0962 10.288L30.0625 7.264L30.7115 18.424ZM26.2404 9.856L28.1875 5.176L28.5481 4.384L30.0625 7.048L26.2404 9.856ZM23.2115 6.328L24.8702 1.72L28.1875 4.024L23.2115 6.328ZM24.149 2.872L22.9231 6.328L16.4327 1.288L24.5817 1.576L24.149 2.872ZM15.5673 1.288L9.14904 6.328L7.41827 1.576L15.5673 1.288ZM1.9375 7.336L5.83173 10.36L1.36058 18.496L1.9375 7.336ZM1.28846 19.576L5.90385 27.64L2.51442 30.232L1.9375 30.664L1.28846 19.576ZM7.41827 31.96L8.78846 31.24L7.12981 36.28L3.8125 33.976L7.41827 31.96ZM7.41827 36.424L9.14904 31.24L15.6394 36.784L7.41827 36.424ZM24.3654 36.424L22.9231 31.168L28.1875 33.976L24.3654 36.424ZM30.0625 30.736L28.1154 29.224L26.0962 27.64L30.7115 19.576L30.0625 30.736Z" fill="#2D6380"/>
<path d="M30.2788 7.048C30.2788 6.976 30.2788 6.976 30.2788 7.048L28.5481 3.952L24.8702 1.432H24.7981L16 1L7.20192 1.36H7.12981L3.45192 3.88L1.72115 6.904V6.976L1 18.928L1.72115 30.88V30.952L3.45192 33.976L7.12981 36.496H7.20192L16 37L24.2933 36.784H24.3654L28.5481 34.12L30.2788 31.096V31.024L31 19.072L30.2788 7.048ZM3.52404 29.872L5.75961 28.144L3.52404 33.688L2.00962 31.024L3.52404 29.872ZM8.71635 5.968L8.86058 6.328L5.25481 4.672L3.88462 4.024L7.12981 1.72L8.71635 5.968ZM25.1587 32.032L22.851 30.808L20.8317 25.912L25.8077 27.784L28.1875 33.616L25.1587 32.032ZM16 1.288L22.7067 6.544L16 11.008L13.476 9.352L9.36538 6.616L14.7019 2.44L16 1.288ZM20.4712 25.624L16 26.704L11.5288 25.624L11.2404 24.184L10.0865 19L11.2404 13.816L11.5288 12.376L16 11.296L20.4712 12.376L20.7596 13.816L21.9135 19L20.7596 24.184L20.4712 25.624ZM6.26442 10.504L9.94231 11.872L11.2404 12.376L10.4471 15.832L9.87019 18.568L9.50962 17.848L6.26442 10.504ZM9.87019 19.432L10.6635 23.104L11.2404 25.624L6.33654 27.424L8.21154 23.248L9.87019 19.432ZM20.7596 25.624L21.8413 20.728L22.1298 19.504L25.6635 27.496L20.7596 25.624ZM25.5913 10.504L22.0577 18.568L20.6875 12.376L22.4904 11.656L25.5913 10.504ZM20.4712 12.088L16.3606 11.08L22.7067 6.976L21.8413 8.92L20.4712 12.088ZM15.6394 11.08L11.5288 12.088L10.7356 10.288L9.36538 6.976L14.9904 10.72L15.6394 11.08ZM9.36538 30.592L11.3125 26.272L11.4567 25.912L15.5673 26.92L9.36538 30.592ZM16.3606 26.92L20.4712 25.912L22.4183 30.592L16.3606 26.92ZM25.8798 10.576L30.7115 19L25.9519 27.352L22.2019 19L25.8798 10.576ZM24.5817 10.648L20.8317 12.088L22.0577 9.136L23.0673 6.76L28.1875 4.384L25.8077 10.216L24.5817 10.648ZM8.93269 6.688L11.1683 12.016L6.12019 10.144L5.75961 9.136L3.8125 4.24L8.93269 6.688ZM5.97596 10.576L9.79808 19L6.04808 27.352L1.28846 19L2.08173 17.632L5.97596 10.576ZM6.19231 27.784L11.1683 25.912L9.00481 30.808L3.88462 33.616L4.02885 33.328L6.19231 27.784ZM3.52404 4.312L4.96635 7.912L5.6875 9.784L2.00962 6.976L3.52404 4.312ZM16 36.64L9.29327 30.88L16 26.92L16.8654 27.496L22.4904 30.88L22.0577 31.24L16 36.64ZM22.6346 31.168L24.0769 36.496L16.3606 36.64L22.6346 31.168ZM28.476 33.688L26.2404 28.144L29.9904 31.024L28.476 33.688ZM30.7115 18.424L26.0962 10.288L30.0625 7.264L30.7115 18.424ZM26.2404 9.856L28.1875 5.176L28.5481 4.384L30.0625 7.048L26.2404 9.856ZM23.2115 6.328L24.8702 1.72L28.1875 4.024L23.2115 6.328ZM24.149 2.872L22.9231 6.328L16.4327 1.288L24.5817 1.576L24.149 2.872ZM15.5673 1.288L9.14904 6.328L7.41827 1.576L15.5673 1.288ZM1.9375 7.336L5.83173 10.36L1.36058 18.496L1.9375 7.336ZM1.28846 19.576L5.90385 27.64L2.51442 30.232L1.9375 30.664L1.28846 19.576ZM7.41827 31.96L8.78846 31.24L7.12981 36.28L3.8125 33.976L7.41827 31.96ZM7.41827 36.424L9.14904 31.24L15.6394 36.784L7.41827 36.424ZM24.3654 36.424L22.9231 31.168L28.1875 33.976L24.3654 36.424ZM30.0625 30.736L28.1154 29.224L26.0962 27.64L30.7115 19.576L30.0625 30.736Z" stroke="#2D6380" stroke-width="1.4" stroke-linecap="round" stroke-linejoin="round" mask="url(#path-1-outside-1)"/>
</svg>
