<svg width="29" height="38" viewBox="0 0 29 38" fill="none" xmlns="http://www.w3.org/2000/svg">
<path fill-rule="evenodd" clip-rule="evenodd" d="M2.09784 32.0135L3.19559 31.5609V6.48488L2.09784 6.0322V32.0135ZM2.54695 4.98799L4.9799 2.55504L5.43402 3.65629L3.63684 5.45346L2.54695 4.98799ZM4.33917 6.95646V31.0893L5.43719 30.6365V7.40925L4.33917 6.95646ZM5.8488 6.39815L4.75199 5.92973L5.89093 4.7643L6.35567 5.89128L5.8488 6.39815ZM6.89186 4.33944L7.36351 5.4832H21.8081L22.2798 4.33944H6.89186ZM5.98635 2.14358L6.43914 3.2416H22.7325L23.1853 2.14358H5.98635ZM24.1934 2.55104L23.7375 3.65648L25.5288 5.44779L26.6502 4.97379L24.1934 2.55104ZM22.816 5.89122L23.2806 4.76449L24.4104 5.92054L23.3103 6.38553L22.816 5.89122ZM24.8322 6.95048L23.7345 7.40784V30.6379L24.8322 31.0953V6.95048ZM27.0737 6.01652L25.9758 6.47399V31.5718L27.0737 32.0292V6.01652ZM26.6166 33.0657L25.5426 32.6228L23.7396 34.3948L24.1915 35.4908L26.6166 33.0657ZM23.3134 31.7036L24.3892 32.1472L23.2806 33.2817L22.8294 32.1876L23.3134 31.7036ZM22.2797 33.7067L21.8271 32.609H7.34457L6.89193 33.7067H22.2797ZM23.1851 35.9022L22.7324 34.8045H6.43921L5.98657 35.9022H23.1851ZM4.98006 35.4909L5.43407 34.3899L3.65026 32.6061L2.55261 33.0634L4.98006 35.4909ZM6.34226 32.1875L5.88817 33.2887L4.7481 32.1486L5.84594 31.6912L6.34226 32.1875ZM1 4.93393L4.93393 1H24.2376L28.1715 4.93393V33.0661L24.2376 37H4.93393L1 33.0661V4.93393ZM7.22118 31.4654H21.9505L22.6367 30.7793V7.26719L21.9505 6.58104H7.22118L6.53503 7.26719V30.7793L7.22118 31.4654Z" fill="#2D6380"/>
<path d="M3.19559 31.5609L3.2909 31.792L3.44559 31.7282V31.5609H3.19559ZM2.09784 32.0135H1.84784V32.3871L2.19315 32.2447L2.09784 32.0135ZM3.19559 6.48488H3.44559V6.31755L3.2909 6.25376L3.19559 6.48488ZM2.09784 6.0322L2.19315 5.80108L1.84784 5.65869V6.0322H2.09784ZM2.54695 4.98799L2.37018 4.81121L2.10872 5.07267L2.44876 5.2179L2.54695 4.98799ZM4.9799 2.55504L5.21102 2.45974L5.06814 2.11325L4.80312 2.37827L4.9799 2.55504ZM5.43402 3.65629L5.6108 3.83306L5.72871 3.71515L5.66514 3.56098L5.43402 3.65629ZM3.63684 5.45346L3.53865 5.68337L3.6941 5.74976L3.81362 5.63024L3.63684 5.45346ZM4.33917 6.95646L4.43448 6.72534L4.08917 6.58295V6.95646H4.33917ZM4.33917 31.0893H4.08917V31.4628L4.43448 31.3204L4.33917 31.0893ZM5.43719 30.6365L5.5325 30.8676L5.68719 30.8038V30.6365H5.43719ZM5.43719 7.40925H5.68719V7.24192L5.5325 7.17813L5.43719 7.40925ZM4.75199 5.92973L4.5732 5.75499L4.31793 6.01619L4.6538 6.15964L4.75199 5.92973ZM5.8488 6.39815L5.75061 6.62806L5.90605 6.69445L6.02558 6.57493L5.8488 6.39815ZM5.89093 4.7643L6.12205 4.66899L5.97738 4.31816L5.71214 4.58957L5.89093 4.7643ZM6.35567 5.89128L6.53244 6.06806L6.65036 5.95014L6.58679 5.79598L6.35567 5.89128ZM7.36351 5.4832L7.13239 5.57851L7.19618 5.7332H7.36351V5.4832ZM6.89186 4.33944V4.08944H6.51834L6.66074 4.43475L6.89186 4.33944ZM21.8081 5.4832V5.7332H21.9754L22.0392 5.57851L21.8081 5.4832ZM22.2798 4.33944L22.5109 4.43475L22.6533 4.08944H22.2798V4.33944ZM6.43914 3.2416L6.20802 3.33691L6.27181 3.4916H6.43914V3.2416ZM5.98635 2.14358V1.89358H5.61283L5.75523 2.23889L5.98635 2.14358ZM22.7325 3.2416V3.4916H22.8998L22.9636 3.33691L22.7325 3.2416ZM23.1853 2.14358L23.4164 2.23889L23.5588 1.89358H23.1853V2.14358ZM23.7375 3.65648L23.5064 3.56117L23.4428 3.71533L23.5608 3.83325L23.7375 3.65648ZM24.1934 2.55104L24.3689 2.37304L24.1041 2.11186L23.9623 2.45574L24.1934 2.55104ZM25.5288 5.44779L25.3521 5.62457L25.4711 5.74361L25.6262 5.67806L25.5288 5.44779ZM26.6502 4.97379L26.7476 5.20407L27.0921 5.05843L26.8258 4.79578L26.6502 4.97379ZM23.2806 4.76449L23.4594 4.58976L23.1942 4.31835L23.0495 4.66919L23.2806 4.76449ZM22.816 5.89122L22.5849 5.79591L22.5213 5.95008L22.6392 6.068L22.816 5.89122ZM24.4104 5.92054L24.5077 6.15081L24.8455 6.00805L24.5892 5.74581L24.4104 5.92054ZM23.3103 6.38553L23.1335 6.5623L23.2526 6.68135L23.4076 6.6158L23.3103 6.38553ZM23.7345 7.40784L23.6384 7.17707L23.4845 7.24117V7.40784H23.7345ZM24.8322 6.95048H25.0822V6.57548L24.736 6.71971L24.8322 6.95048ZM23.7345 30.6379H23.4845V30.8046L23.6384 30.8687L23.7345 30.6379ZM24.8322 31.0953L24.736 31.326L25.0822 31.4703V31.0953H24.8322ZM25.9758 6.47399L25.8796 6.24322L25.7258 6.30732V6.47399H25.9758ZM27.0737 6.01652H27.3237V5.64152L26.9775 5.78575L27.0737 6.01652ZM25.9758 31.5718H25.7258V31.7384L25.8796 31.8025L25.9758 31.5718ZM27.0737 32.0292L26.9775 32.26L27.3237 32.4042V32.0292H27.0737ZM25.5426 32.6228L25.6379 32.3917L25.4852 32.3288L25.3673 32.4445L25.5426 32.6228ZM26.6166 33.0657L26.7934 33.2425L27.0584 32.9775L26.7119 32.8346L26.6166 33.0657ZM23.7396 34.3948L23.5643 34.2165L23.4443 34.3345L23.5085 34.4901L23.7396 34.3948ZM24.1915 35.4908L23.9604 35.5861L24.1033 35.9326L24.3683 35.6676L24.1915 35.4908ZM24.3892 32.1472L24.568 32.322L24.8267 32.0572L24.4845 31.9161L24.3892 32.1472ZM23.3134 31.7036L23.4087 31.4725L23.2545 31.4089L23.1366 31.5268L23.3134 31.7036ZM23.2806 33.2817L23.0494 33.377L23.1941 33.7278L23.4594 33.4564L23.2806 33.2817ZM22.8294 32.1876L22.6526 32.0108L22.5347 32.1287L22.5983 32.2829L22.8294 32.1876ZM21.8271 32.609L22.0582 32.5137L21.9944 32.359H21.8271V32.609ZM22.2797 33.7067V33.9567H22.6532L22.5108 33.6114L22.2797 33.7067ZM7.34457 32.609V32.359H7.17724L7.11345 32.5137L7.34457 32.609ZM6.89193 33.7067L6.66081 33.6114L6.51841 33.9567H6.89193V33.7067ZM22.7324 34.8045L22.9635 34.7092L22.8997 34.5545H22.7324V34.8045ZM23.1851 35.9022V36.1522H23.5586L23.4162 35.8069L23.1851 35.9022ZM6.43921 34.8045V34.5545H6.27188L6.20809 34.7092L6.43921 34.8045ZM5.98657 35.9022L5.75545 35.8069L5.61305 36.1522H5.98657V35.9022ZM5.43407 34.3899L5.66519 34.4852L5.72877 34.331L5.61085 34.2131L5.43407 34.3899ZM4.98006 35.4909L4.80328 35.6676L5.06829 35.9327L5.21118 35.5862L4.98006 35.4909ZM3.65026 32.6061L3.82704 32.4293L3.70865 32.3109L3.55411 32.3753L3.65026 32.6061ZM2.55261 33.0634L2.45646 32.8326L2.11187 32.9762L2.37583 33.2402L2.55261 33.0634ZM5.88817 33.2887L5.71139 33.4655L5.97641 33.7305L6.11929 33.384L5.88817 33.2887ZM6.34226 32.1875L6.57338 32.2828L6.63695 32.1287L6.51904 32.0107L6.34226 32.1875ZM4.7481 32.1486L4.65195 31.9179L4.30736 32.0614L4.57132 32.3254L4.7481 32.1486ZM5.84594 31.6912L6.02272 31.5144L5.90433 31.396L5.74979 31.4604L5.84594 31.6912ZM4.93393 1V0.75H4.83037L4.75715 0.823223L4.93393 1ZM1 4.93393L0.823223 4.75715L0.75 4.83037V4.93393H1ZM24.2376 1L24.4144 0.823223L24.3412 0.75H24.2376V1ZM28.1715 4.93393H28.4215V4.83037L28.3483 4.75715L28.1715 4.93393ZM28.1715 33.0661L28.3483 33.2429L28.4215 33.1696V33.0661H28.1715ZM24.2376 37V37.25H24.3412L24.4144 37.1768L24.2376 37ZM4.93393 37L4.75715 37.1768L4.83037 37.25H4.93393V37ZM1 33.0661H0.75V33.1696L0.823223 33.2429L1 33.0661ZM21.9505 31.4654V31.7154H22.0541L22.1273 31.6422L21.9505 31.4654ZM7.22118 31.4654L7.04441 31.6422L7.11763 31.7154H7.22118V31.4654ZM22.6367 30.7793L22.8135 30.956L22.8867 30.8828V30.7793H22.6367ZM22.6367 7.26719H22.8867V7.16364L22.8135 7.09042L22.6367 7.26719ZM21.9505 6.58104L22.1273 6.40427L22.0541 6.33104H21.9505V6.58104ZM7.22118 6.58104V6.33104H7.11763L7.04441 6.40427L7.22118 6.58104ZM6.53503 7.26719L6.35826 7.09042L6.28503 7.16364V7.26719H6.53503ZM6.53503 30.7793H6.28503V30.8828L6.35826 30.956L6.53503 30.7793ZM3.10028 31.3297L2.00253 31.7824L2.19315 32.2447L3.2909 31.792L3.10028 31.3297ZM2.94559 6.48488V31.5609H3.44559V6.48488H2.94559ZM3.2909 6.25376L2.19315 5.80108L2.00253 6.26332L3.10028 6.716L3.2909 6.25376ZM2.34784 32.0135V6.0322H1.84784V32.0135H2.34784ZM2.72373 5.16477L5.15668 2.73182L4.80312 2.37827L2.37018 4.81121L2.72373 5.16477ZM4.74878 2.65035L5.2029 3.75159L5.66514 3.56098L5.21102 2.45974L4.74878 2.65035ZM5.25724 3.47951L3.46006 5.27669L3.81362 5.63024L5.6108 3.83306L5.25724 3.47951ZM2.44876 5.2179L3.53865 5.68337L3.73503 5.22355L2.64514 4.75808L2.44876 5.2179ZM4.08917 6.95646V31.0893H4.58917V6.95646H4.08917ZM4.43448 31.3204L5.5325 30.8676L5.34189 30.4054L4.24387 30.8582L4.43448 31.3204ZM5.68719 30.6365V7.40925H5.18719V30.6365H5.68719ZM5.5325 7.17813L4.43448 6.72534L4.24387 7.18758L5.34189 7.64037L5.5325 7.17813ZM4.6538 6.15964L5.75061 6.62806L5.94699 6.16824L4.85019 5.69982L4.6538 6.15964ZM5.71214 4.58957L4.5732 5.75499L4.93079 6.10446L6.06973 4.93903L5.71214 4.58957ZM6.58679 5.79598L6.12205 4.66899L5.65981 4.85961L6.12455 5.98659L6.58679 5.79598ZM6.02558 6.57493L6.53244 6.06806L6.17889 5.71451L5.67202 6.22138L6.02558 6.57493ZM7.59463 5.3879L7.12298 4.24413L6.66074 4.43475L7.13239 5.57851L7.59463 5.3879ZM21.8081 5.2332H7.36351V5.7332H21.8081V5.2332ZM22.0487 4.24413L21.577 5.3879L22.0392 5.57851L22.5109 4.43475L22.0487 4.24413ZM6.89186 4.58944H22.2798V4.08944H6.89186V4.58944ZM6.67026 3.14629L6.21747 2.04828L5.75523 2.23889L6.20802 3.33691L6.67026 3.14629ZM22.7325 2.9916H6.43914V3.4916H22.7325V2.9916ZM22.9542 2.04828L22.5014 3.14629L22.9636 3.33691L23.4164 2.23889L22.9542 2.04828ZM5.98635 2.39358H23.1853V1.89358H5.98635V2.39358ZM23.9686 3.75178L24.4245 2.64635L23.9623 2.45574L23.5064 3.56117L23.9686 3.75178ZM25.7056 5.27101L23.9143 3.4797L23.5608 3.83325L25.3521 5.62457L25.7056 5.27101ZM26.5529 4.74352L25.4315 5.21751L25.6262 5.67806L26.7476 5.20407L26.5529 4.74352ZM24.0178 2.72905L26.4747 5.1518L26.8258 4.79578L24.3689 2.37304L24.0178 2.72905ZM23.0495 4.66919L22.5849 5.79591L23.0471 5.98653L23.5117 4.8598L23.0495 4.66919ZM24.5892 5.74581L23.4594 4.58976L23.1018 4.93923L24.2316 6.09527L24.5892 5.74581ZM23.4076 6.6158L24.5077 6.15081L24.3131 5.69027L23.213 6.15525L23.4076 6.6158ZM22.6392 6.068L23.1335 6.5623L23.4871 6.20875L22.9928 5.71444L22.6392 6.068ZM23.8307 7.63861L24.9283 7.18125L24.736 6.71971L23.6384 7.17707L23.8307 7.63861ZM23.9845 30.6379V7.40784H23.4845V30.6379H23.9845ZM24.9283 30.8645L23.8307 30.4071L23.6384 30.8687L24.736 31.326L24.9283 30.8645ZM24.5822 6.95048V31.0953H25.0822V6.95048H24.5822ZM26.0719 6.70476L27.1699 6.24729L26.9775 5.78575L25.8796 6.24322L26.0719 6.70476ZM26.2258 31.5718V6.47399H25.7258V31.5718H26.2258ZM27.1699 31.7985L26.0719 31.341L25.8796 31.8025L26.9775 32.26L27.1699 31.7985ZM26.8237 6.01652V32.0292H27.3237V6.01652H26.8237ZM25.4473 32.854L26.5213 33.2969L26.7119 32.8346L25.6379 32.3917L25.4473 32.854ZM23.9148 34.5731L25.7178 32.8012L25.3673 32.4445L23.5643 34.2165L23.9148 34.5731ZM24.4227 35.3955L23.9707 34.2995L23.5085 34.4901L23.9604 35.5861L24.4227 35.3955ZM26.4398 32.889L24.0148 35.314L24.3683 35.6676L26.7934 33.2425L26.4398 32.889ZM24.4845 31.9161L23.4087 31.4725L23.2181 31.9347L24.2939 32.3784L24.4845 31.9161ZM23.4594 33.4564L24.568 32.322L24.2104 31.9725L23.1018 33.1069L23.4594 33.4564ZM22.5983 32.2829L23.0494 33.377L23.5117 33.1864L23.0605 32.0923L22.5983 32.2829ZM23.1366 31.5268L22.6526 32.0108L23.0062 32.3644L23.4902 31.8804L23.1366 31.5268ZM21.5959 32.7043L22.0486 33.802L22.5108 33.6114L22.0582 32.5137L21.5959 32.7043ZM7.34457 32.859H21.8271V32.359H7.34457V32.859ZM7.12305 33.802L7.57569 32.7043L7.11345 32.5137L6.66081 33.6114L7.12305 33.802ZM22.2797 33.4567H6.89193V33.9567H22.2797V33.4567ZM22.5013 34.8998L22.9539 35.9975L23.4162 35.8069L22.9635 34.7092L22.5013 34.8998ZM6.43921 35.0545H22.7324V34.5545H6.43921V35.0545ZM6.21769 35.9975L6.67033 34.8998L6.20809 34.7092L5.75545 35.8069L6.21769 35.9975ZM23.1851 35.6522H5.98657V36.1522H23.1851V35.6522ZM5.20295 34.2946L4.74894 35.3956L5.21118 35.5862L5.66519 34.4852L5.20295 34.2946ZM3.47348 32.7828L5.2573 34.5666L5.61085 34.2131L3.82704 32.4293L3.47348 32.7828ZM2.64876 33.2942L3.74641 32.8368L3.55411 32.3753L2.45646 32.8326L2.64876 33.2942ZM5.15683 35.3141L2.72939 32.8866L2.37583 33.2402L4.80328 35.6676L5.15683 35.3141ZM6.11929 33.384L6.57338 32.2828L6.11114 32.0922L5.65705 33.1934L6.11929 33.384ZM4.57132 32.3254L5.71139 33.4655L6.06494 33.1119L4.92488 31.9718L4.57132 32.3254ZM5.74979 31.4604L4.65195 31.9179L4.84426 32.3794L5.94209 31.922L5.74979 31.4604ZM6.51904 32.0107L6.02272 31.5144L5.66916 31.868L6.16548 32.3643L6.51904 32.0107ZM4.75715 0.823223L0.823223 4.75715L1.17678 5.1107L5.1107 1.17678L4.75715 0.823223ZM24.2376 0.75H4.93393V1.25H24.2376V0.75ZM28.3483 4.75715L24.4144 0.823223L24.0608 1.17678L27.9948 5.1107L28.3483 4.75715ZM28.4215 33.0661V4.93393H27.9215V33.0661H28.4215ZM24.4144 37.1768L28.3483 33.2429L27.9948 32.8893L24.0608 36.8232L24.4144 37.1768ZM4.93393 37.25H24.2376V36.75H4.93393V37.25ZM0.823223 33.2429L4.75715 37.1768L5.1107 36.8232L1.17678 32.8893L0.823223 33.2429ZM0.75 4.93393V33.0661H1.25V4.93393H0.75ZM21.9505 31.2154H7.22118V31.7154H21.9505V31.2154ZM22.4599 30.6025L21.7738 31.2886L22.1273 31.6422L22.8135 30.956L22.4599 30.6025ZM22.3867 7.26719V30.7793H22.8867V7.26719H22.3867ZM21.7738 6.75782L22.4599 7.44397L22.8135 7.09042L22.1273 6.40427L21.7738 6.75782ZM7.22118 6.83104H21.9505V6.33104H7.22118V6.83104ZM6.71181 7.44397L7.39796 6.75782L7.04441 6.40427L6.35826 7.09042L6.71181 7.44397ZM6.78503 30.7793V7.26719H6.28503V30.7793H6.78503ZM7.39796 31.2886L6.71181 30.6025L6.35826 30.956L7.04441 31.6422L7.39796 31.2886Z" fill="#2D6380"/>
</svg>
