<svg width="42" height="39" viewBox="0 0 42 39" fill="none" xmlns="http://www.w3.org/2000/svg">
<path d="M1.24453 15.667C1.3271 15.7496 1.3271 15.7496 1.24453 15.667C1.24453 15.7496 1.24453 15.8322 1.3271 15.8322V15.9147C1.3271 15.9147 1.3271 15.9147 1.3271 15.9973V16.0799C1.40967 16.3276 1.49224 16.4927 1.57481 16.7404L1.65738 16.9056V16.9881L1.82252 17.401C1.82252 17.4835 1.90508 17.5661 1.90508 17.6487L2.23536 18.4744L2.31793 18.7221L2.4005 18.8046L3.06105 20.0432C3.06105 20.0432 3.06105 20.0432 3.06105 20.1257L3.30875 20.6211C3.39132 20.7863 3.55646 20.9514 3.63903 21.1991C3.7216 21.2817 3.7216 21.3643 3.80417 21.3643L4.05187 21.6945L4.54729 22.2725C4.62985 22.3551 4.62985 22.3551 4.71242 22.4377C7.43719 25.823 10.2445 29.1257 13.6299 31.8505C14.6207 32.6762 15.6115 33.5019 16.6023 34.245L17.0977 34.5753C17.2629 34.6578 17.3454 34.7404 17.5106 34.9056L20.8133 37.3C20.8959 37.3 20.8959 37.3 20.9785 37.3L24.2812 34.9056C24.3638 34.823 24.4464 34.7404 24.5289 34.7404L25.3546 34.1624C26.3454 33.4193 27.2537 32.6762 28.162 31.8505C28.162 31.8505 28.162 31.8505 28.2445 31.8505C29.8133 30.4468 31.5473 29.1257 32.951 27.5569C34.4372 25.9056 35.7583 24.2542 37.162 22.5202C37.2445 22.4377 37.2445 22.4377 37.3271 22.3551L37.8225 21.7771C37.8225 21.7771 37.8225 21.7771 37.8225 21.6945L37.9051 21.612L37.9877 21.5294C38.0702 21.4468 38.0702 21.3643 38.1528 21.3643L38.0702 21.2817H38.2354C38.3179 21.1166 38.4831 20.9514 38.5656 20.7863L38.8959 20.1257C38.8959 20.0432 38.9785 20.0432 38.9785 19.9606L39.2262 19.5478L39.5565 18.8872L39.7216 18.5569L39.9693 17.8964C39.9693 17.8138 39.9693 17.8138 40.0519 17.7312L40.1344 17.401V17.3184L40.217 17.2358L40.2996 17.0707C40.2996 16.9881 40.2996 16.9881 40.3821 16.9056L40.5473 16.4927H40.3821H40.5473V16.4101L40.3821 16.3276H40.5473H40.4647H40.6299V16.1624C41.1253 14.3459 40.795 12.1166 40.5473 10.2175C40.3821 8.81381 39.8867 7.74042 39.1436 6.50188C38.5656 5.59363 37.9877 4.43766 37.162 3.69454C35.6757 2.45601 33.3638 1.30005 31.3821 1.46519C30.3088 1.46519 29.3179 1.54776 28.2445 1.71289C27.2537 1.87803 26.1803 1.9606 25.3546 2.53858C23.7858 3.77711 22.0519 5.09821 20.9785 6.83216C20.2354 5.75876 19.2445 4.85051 18.2537 4.02482C17.6757 3.44684 16.9326 2.62115 16.1895 2.29087C14.6207 1.54776 12.3088 1.46519 10.5748 1.46519C8.59316 0.887205 6.03352 2.04317 4.62985 3.44684C4.05187 3.94225 3.63903 4.76794 3.22618 5.34592C2.6482 6.25418 1.73995 7.41014 1.57481 8.48353C1.16196 10.7129 0.666552 13.5202 1.24453 15.667ZM1.90508 8.40097C2.31793 7.245 4.05187 4.68537 4.62985 3.85968L6.19866 9.96977L1.90508 8.40097ZM35.7583 9.96977L37.3271 3.85968C37.9051 4.68537 39.639 7.245 40.0519 8.40097L35.7583 9.96977ZM32.6207 27.4744L28.2445 29.7037L22.9601 32.3459L29.9785 24.5019L34.2721 21.1991L33.1161 25.823L32.6207 27.4744ZM33.3638 15.9973L34.4372 20.7863L30.2262 23.9239L30.9693 21.9422L33.3638 15.9973ZM18.8317 31.7679L12.7216 24.9973L20.7308 29.9514L19.4922 32.5936L18.8317 31.7679ZM7.51976 20.7863L8.59316 15.9973L10.9051 22.0248L11.6482 24.0065L8.75829 21.6945L7.51976 20.7863ZM32.4555 17.4835L29.8133 24.2542L20.9785 29.7037L12.1436 24.2542L9.50141 17.4835L8.75829 15.5019L10.0794 8.97895L20.9785 8.48353L31.8776 8.97895L33.1987 15.5019L32.4555 17.4835ZM22.3821 32.5111L21.1436 29.9514L27.006 26.3184L29.1528 24.9973L28.0794 26.1533L22.3821 32.5111ZM29.3179 8.5661L22.1344 8.23583L29.0702 6.74959L31.5473 8.64867L29.3179 8.5661ZM17.2629 8.3184L10.4097 8.64867L12.8867 6.74959L19.9051 8.23583L17.2629 8.3184ZM32.0427 8.73124L29.4005 6.66702L36.9968 3.77711L35.428 10.0523L32.0427 8.73124ZM6.52894 10.3L9.74912 9.06152L8.51059 15.0065L8.26288 14.3459L6.52894 10.3ZM1.65738 15.667L6.3638 10.4652L8.42802 15.5019L7.27206 20.5386L1.65738 15.667ZM9.33628 27.4744L7.60233 21.1991L11.8959 24.5019L18.9143 32.3459L10.9877 28.3826L9.33628 27.4744ZM20.9785 30.1991L22.217 32.7588L20.9785 36.7221L19.7399 32.7588L20.9785 30.1991ZM33.4464 15.0065L32.2078 9.06152L35.428 10.3L33.7766 14.3459L33.4464 15.0065ZM27.6665 6.74959L26.3454 6.9973L20.9785 8.07069L14.4555 6.83216H14.2904H20.9785L27.6665 6.74959ZM12.4739 6.66702L9.83169 8.73124L6.44637 10.0523L4.87756 3.77711L12.4739 6.66702ZM22.4647 33.089L23.2078 33.9147L24.0335 34.823L21.2262 36.8872L22.4647 33.089ZM34.6849 20.5386L33.5289 15.5019L33.8592 14.6762L35.5932 10.4652L38.8133 14.0156L40.2996 15.667L40.0519 15.9147L34.6849 20.5386ZM4.29958 21.5294C4.29958 21.5294 4.21701 21.5294 4.29958 21.5294L4.13444 21.2817C4.05187 21.1991 4.05187 21.1166 3.9693 21.1166V21.034C3.88674 20.8689 3.7216 20.7037 3.63903 20.5386L3.39132 20.1257V20.0432L2.81334 18.8872C2.81334 18.8872 2.81334 18.8046 2.73077 18.8046L2.23536 17.5661C2.23536 17.4835 2.23536 17.4835 2.15279 17.401L1.90508 16.7404C1.82252 16.5753 1.73995 16.3276 1.73995 16.1624L7.10692 20.8689L5.0427 22.19L4.87756 22.2725L4.79499 22.19L4.29958 21.5294ZM5.0427 22.4377L7.18949 21.034L8.84086 27.0615C7.60233 25.5753 6.28123 24.0065 5.0427 22.4377ZM17.0152 34.245C16.9326 34.1624 16.9326 34.1624 17.0152 34.245L16.85 34.0799C15.8592 33.3367 14.8684 32.5111 13.8776 31.6854C12.5565 30.5294 11.3179 29.3734 10.0794 28.2175L19.4097 32.9239L17.7583 34.7404C17.6757 34.7404 17.6757 34.6578 17.5932 34.6578L17.0152 34.245ZM19.4922 33.089L20.7308 36.8872L17.9234 34.823L19.4922 33.089ZM28.9877 30.8597C28.6574 31.1074 28.4097 31.3551 28.0794 31.6854C27.1711 32.5111 26.2629 33.2542 25.2721 33.9973L25.0243 34.1624C25.0243 34.1624 24.9418 34.1624 24.9418 34.245L24.4464 34.5753C24.3638 34.5753 24.3638 34.6578 24.2812 34.6578L22.6299 32.8413L31.9601 28.1349C31.217 28.878 30.1436 29.8689 28.9877 30.8597C28.7399 31.1074 30.1436 29.8689 28.9877 30.8597ZM35.8409 23.6762C34.6023 25.1624 33.6941 26.3184 33.0335 26.9789L34.6849 20.9514L36.8317 22.3551C36.6666 22.6854 36.3363 23.0982 35.8409 23.6762C34.6023 25.1624 36.3363 23.0982 35.8409 23.6762ZM40.217 16.1624C40.217 16.245 40.217 16.245 40.217 16.1624L40.1344 16.4927C40.1344 16.5753 40.1344 16.5753 40.0519 16.6578L39.9693 16.823L40.1344 16.9056H39.9693V16.9881L40.1344 17.0707H39.9693L39.8042 17.401C39.8042 17.4835 39.8042 17.4835 39.7216 17.5661L39.639 17.8138V17.8964L39.3088 18.6395L39.4739 18.7221H39.3088C39.3088 18.8046 39.2262 18.8872 39.2262 18.9698L38.9785 19.3826L38.8133 19.7955C38.8133 19.878 38.7308 19.9606 38.7308 19.9606L38.4005 20.6211C38.3179 20.7863 38.1528 20.9514 38.0702 21.1166V21.1991C37.9877 21.2817 37.9877 21.3643 37.9051 21.3643L37.8225 21.4468C37.8225 21.4468 37.8225 21.5294 37.7399 21.5294L37.2445 22.1074L37.162 22.19L36.9968 22.1074L34.85 20.7863L40.217 16.0799V16.1624ZM40.4647 15.3367L35.8409 10.2175L38.1528 9.39179L40.1344 8.64867C40.217 9.55693 40.795 13.4377 40.4647 15.3367ZM36.9968 3.44684L29.4005 6.33675L31.4647 1.38262H31.5473C34.2721 1.38262 36.3363 2.95142 36.9968 3.44684ZM31.1344 1.38262L29.6482 5.09821L29.0702 6.33675L26.0152 2.12574C27.6665 1.63032 29.4005 1.30005 31.1344 1.38262ZM25.7675 2.20831L28.8225 6.50188L21.2262 6.58445C22.1344 5.18078 25.1069 2.70372 25.7675 2.20831ZM20.7308 6.50188L13.1344 6.41931L16.1895 2.12574C16.7675 2.70372 19.8225 5.18078 20.7308 6.50188ZM15.8592 2.04317L12.8042 6.25418L12.3088 5.01564L10.8225 1.30005C12.4739 1.30005 14.2904 1.63032 15.8592 2.04317ZM10.4097 1.38262L12.5565 6.33675L4.96013 3.44684C5.62068 2.95142 7.6849 1.38262 10.4097 1.38262ZM1.82252 8.73124L3.80417 9.47436L6.11609 10.3L1.49224 15.4193C1.0794 13.4377 1.65738 9.55693 1.82252 8.73124Z" fill="#2D6380"/>
<path d="M28.9877 30.8597C28.6574 31.1074 28.4097 31.3551 28.0794 31.6854C27.1711 32.5111 26.2629 33.2542 25.2721 33.9973L25.0243 34.1624C25.0243 34.1624 24.9418 34.1624 24.9418 34.245L24.4464 34.5753C24.3638 34.5753 24.3638 34.6578 24.2812 34.6578L22.6299 32.8413L31.9601 28.1349C31.217 28.878 30.1436 29.8689 28.9877 30.8597ZM28.9877 30.8597C28.7399 31.1074 30.1436 29.8689 28.9877 30.8597ZM35.8409 23.6762C34.6023 25.1624 33.6941 26.3184 33.0335 26.9789L34.6849 20.9514L36.8317 22.3551C36.6666 22.6854 36.3363 23.0982 35.8409 23.6762ZM35.8409 23.6762C34.6023 25.1624 36.3363 23.0982 35.8409 23.6762ZM1.24453 15.667C1.3271 15.7496 1.3271 15.7496 1.24453 15.667C1.24453 15.7496 1.24453 15.8322 1.3271 15.8322V15.9147C1.3271 15.9147 1.3271 15.9147 1.3271 15.9973V16.0799C1.40967 16.3276 1.49224 16.4927 1.57481 16.7404L1.65738 16.9056V16.9881L1.82252 17.401C1.82252 17.4835 1.90508 17.5661 1.90508 17.6487L2.23536 18.4744L2.31793 18.7221L2.4005 18.8046L3.06105 20.0432C3.06105 20.0432 3.06105 20.0432 3.06105 20.1257L3.30875 20.6211C3.39132 20.7863 3.55646 20.9514 3.63903 21.1991C3.7216 21.2817 3.7216 21.3643 3.80417 21.3643L4.05187 21.6945L4.54729 22.2725C4.62985 22.3551 4.62985 22.3551 4.71242 22.4377C7.43719 25.823 10.2445 29.1257 13.6299 31.8505C14.6207 32.6762 15.6115 33.5019 16.6023 34.245L17.0977 34.5753C17.2629 34.6578 17.3454 34.7404 17.5106 34.9056L20.8133 37.3C20.8959 37.3 20.8959 37.3 20.9785 37.3L24.2812 34.9056C24.3638 34.823 24.4464 34.7404 24.5289 34.7404L25.3546 34.1624C26.3454 33.4193 27.2537 32.6762 28.162 31.8505C28.162 31.8505 28.162 31.8505 28.2445 31.8505C29.8133 30.4468 31.5473 29.1257 32.951 27.5569C34.4372 25.9056 35.7583 24.2542 37.162 22.5202C37.2445 22.4377 37.2445 22.4377 37.3271 22.3551L37.8225 21.7771C37.8225 21.7771 37.8225 21.7771 37.8225 21.6945L37.9051 21.612L37.9877 21.5294C38.0702 21.4468 38.0702 21.3643 38.1528 21.3643L38.0702 21.2817H38.2354C38.3179 21.1166 38.4831 20.9514 38.5656 20.7863L38.8959 20.1257C38.8959 20.0432 38.9785 20.0432 38.9785 19.9606L39.2262 19.5478L39.5565 18.8872L39.7216 18.5569L39.9693 17.8964C39.9693 17.8138 39.9693 17.8138 40.0519 17.7312L40.1344 17.401V17.3184L40.217 17.2358L40.2996 17.0707C40.2996 16.9881 40.2996 16.9881 40.3821 16.9056L40.5473 16.4927H40.3821H40.5473V16.4101L40.3821 16.3276H40.5473H40.4647H40.6299V16.1624C41.1253 14.3459 40.795 12.1166 40.5473 10.2175C40.3821 8.81381 39.8867 7.74042 39.1436 6.50188C38.5656 5.59363 37.9877 4.43766 37.162 3.69454C35.6757 2.45601 33.3638 1.30005 31.3821 1.46519C30.3088 1.46519 29.3179 1.54776 28.2445 1.71289C27.2537 1.87803 26.1803 1.9606 25.3546 2.53858C23.7858 3.77711 22.0519 5.09821 20.9785 6.83216C20.2354 5.75876 19.2445 4.85051 18.2537 4.02482C17.6757 3.44684 16.9326 2.62115 16.1895 2.29087C14.6207 1.54776 12.3088 1.46519 10.5748 1.46519C8.59316 0.887205 6.03352 2.04317 4.62985 3.44684C4.05187 3.94225 3.63903 4.76794 3.22618 5.34592C2.6482 6.25418 1.73995 7.41014 1.57481 8.48353C1.16196 10.7129 0.666552 13.5202 1.24453 15.667ZM1.90508 8.40097C2.31793 7.245 4.05187 4.68537 4.62985 3.85968L6.19866 9.96977L1.90508 8.40097ZM35.7583 9.96977L37.3271 3.85968C37.9051 4.68537 39.639 7.245 40.0519 8.40097L35.7583 9.96977ZM32.6207 27.4744L28.2445 29.7037L22.9601 32.3459L29.9785 24.5019L34.2721 21.1991L33.1161 25.823L32.6207 27.4744ZM33.3638 15.9973L34.4372 20.7863L30.2262 23.9239L30.9693 21.9422L33.3638 15.9973ZM18.8317 31.7679L12.7216 24.9973L20.7308 29.9514L19.4922 32.5936L18.8317 31.7679ZM7.51976 20.7863L8.59316 15.9973L10.9051 22.0248L11.6482 24.0065L8.75829 21.6945L7.51976 20.7863ZM32.4555 17.4835L29.8133 24.2542L20.9785 29.7037L12.1436 24.2542L9.50141 17.4835L8.75829 15.5019L10.0794 8.97895L20.9785 8.48353L31.8776 8.97895L33.1987 15.5019L32.4555 17.4835ZM22.3821 32.5111L21.1436 29.9514L27.006 26.3184L29.1528 24.9973L28.0794 26.1533L22.3821 32.5111ZM29.3179 8.5661L22.1344 8.23583L29.0702 6.74959L31.5473 8.64867L29.3179 8.5661ZM17.2629 8.3184L10.4097 8.64867L12.8867 6.74959L19.9051 8.23583L17.2629 8.3184ZM32.0427 8.73124L29.4005 6.66702L36.9968 3.77711L35.428 10.0523L32.0427 8.73124ZM6.52894 10.3L9.74912 9.06152L8.51059 15.0065L8.26288 14.3459L6.52894 10.3ZM1.65738 15.667L6.3638 10.4652L8.42802 15.5019L7.27206 20.5386L1.65738 15.667ZM9.33628 27.4744L7.60233 21.1991L11.8959 24.5019L18.9143 32.3459L10.9877 28.3826L9.33628 27.4744ZM20.9785 30.1991L22.217 32.7588L20.9785 36.7221L19.7399 32.7588L20.9785 30.1991ZM33.4464 15.0065L32.2078 9.06152L35.428 10.3L33.7766 14.3459L33.4464 15.0065ZM27.6666 6.74959L26.3454 6.9973L20.9785 8.07069L14.4555 6.83216H14.2904H20.9785L27.6666 6.74959ZM12.4739 6.66702L9.83169 8.73124L6.44637 10.0523L4.87756 3.77711L12.4739 6.66702ZM22.4647 33.089L23.2078 33.9147L24.0335 34.823L21.2262 36.8872L22.4647 33.089ZM34.6849 20.5386L33.5289 15.5019L33.8592 14.6762L35.5932 10.4652L38.8133 14.0156L40.2996 15.667L40.0519 15.9147L34.6849 20.5386ZM4.29958 21.5294C4.29958 21.5294 4.21701 21.5294 4.29958 21.5294L4.13444 21.2817C4.05187 21.1991 4.05187 21.1166 3.9693 21.1166V21.034C3.88674 20.8689 3.7216 20.7037 3.63903 20.5386L3.39132 20.1257V20.0432L2.81334 18.8872C2.81334 18.8872 2.81334 18.8046 2.73077 18.8046L2.23536 17.5661C2.23536 17.4835 2.23536 17.4835 2.15279 17.401L1.90508 16.7404C1.82252 16.5753 1.73995 16.3276 1.73995 16.1624L7.10692 20.8689L5.0427 22.19L4.87756 22.2725L4.79499 22.19L4.29958 21.5294ZM5.0427 22.4377L7.18949 21.034L8.84086 27.0615C7.60233 25.5753 6.28123 24.0065 5.0427 22.4377ZM17.0152 34.245C16.9326 34.1624 16.9326 34.1624 17.0152 34.245L16.85 34.0799C15.8592 33.3367 14.8684 32.5111 13.8776 31.6854C12.5565 30.5294 11.3179 29.3734 10.0794 28.2175L19.4097 32.9239L17.7583 34.7404C17.6757 34.7404 17.6757 34.6578 17.5932 34.6578L17.0152 34.245ZM19.4922 33.089L20.7308 36.8872L17.9234 34.823L19.4922 33.089ZM40.217 16.1624C40.217 16.245 40.217 16.245 40.217 16.1624L40.1344 16.4927C40.1344 16.5753 40.1344 16.5753 40.0519 16.6578L39.9693 16.823L40.1344 16.9056H39.9693V16.9881L40.1344 17.0707H39.9693L39.8042 17.401C39.8042 17.4835 39.8042 17.4835 39.7216 17.5661L39.639 17.8138V17.8964L39.3088 18.6395L39.4739 18.7221H39.3088C39.3088 18.8046 39.2262 18.8872 39.2262 18.9698L38.9785 19.3826L38.8133 19.7955C38.8133 19.878 38.7308 19.9606 38.7308 19.9606L38.4005 20.6211C38.3179 20.7863 38.1528 20.9514 38.0702 21.1166V21.1991C37.9877 21.2817 37.9877 21.3643 37.9051 21.3643L37.8225 21.4468C37.8225 21.4468 37.8225 21.5294 37.7399 21.5294L37.2445 22.1074L37.162 22.19L36.9968 22.1074L34.85 20.7863L40.217 16.0799V16.1624ZM40.4647 15.3367L35.8409 10.2175L38.1528 9.39179L40.1344 8.64867C40.217 9.55693 40.795 13.4377 40.4647 15.3367ZM36.9968 3.44684L29.4005 6.33675L31.4647 1.38262H31.5473C34.2721 1.38262 36.3363 2.95142 36.9968 3.44684ZM31.1344 1.38262L29.6482 5.09821L29.0702 6.33675L26.0152 2.12574C27.6665 1.63032 29.4005 1.30005 31.1344 1.38262ZM25.7675 2.20831L28.8225 6.50188L21.2262 6.58445C22.1344 5.18078 25.1069 2.70372 25.7675 2.20831ZM20.7308 6.50188L13.1344 6.41931L16.1895 2.12574C16.7675 2.70372 19.8225 5.18078 20.7308 6.50188ZM15.8592 2.04317L12.8042 6.25418L12.3088 5.01564L10.8225 1.30005C12.4739 1.30005 14.2904 1.63032 15.8592 2.04317ZM10.4097 1.38262L12.5565 6.33675L4.96013 3.44684C5.62068 2.95142 7.6849 1.38262 10.4097 1.38262ZM1.82252 8.73124L3.80417 9.47436L6.11609 10.3L1.49224 15.4193C1.0794 13.4377 1.65738 9.55693 1.82252 8.73124Z" stroke="#2D6380" stroke-width="1.5" stroke-linecap="round" stroke-linejoin="round"/>
</svg>
