<svg width="23" height="38" viewBox="0 0 23 38" fill="none" xmlns="http://www.w3.org/2000/svg">
<path fill-rule="evenodd" clip-rule="evenodd" d="M9.52095 5.76654L11.4902 6.73388L13.6121 5.69151L11.5881 2.17616L9.52095 5.76654ZM14.279 5.37535L15.579 4.60716L14.9255 3.95373C14.6996 3.86336 14.5189 3.68263 14.2478 3.41153C13.7056 2.9145 13.073 2.50785 12.4404 2.19156L14.279 5.37535ZM17.2752 5.6258C17.0414 5.29186 16.7336 4.88387 16.5342 4.65722C16.5214 4.61635 16.4994 4.57873 16.4618 4.54112C16.1455 4.08928 15.784 3.72781 15.3774 3.41153C15.2759 3.33541 15.1744 3.24504 15.0569 3.14042C14.9652 3.05874 14.8637 2.96837 14.7448 2.86932C13.9001 2.10908 12.9369 1.54624 11.8923 1.14389C11.8001 1.01505 11.6242 0.97273 11.4915 1.01694C10.362 1.4236 9.32273 2.01099 8.41905 2.8243C8.14795 3.0954 7.96721 3.23095 7.78648 3.3665C7.41476 3.69692 7.0808 4.02733 6.78459 4.39226C6.73253 4.41568 6.68717 4.4509 6.65696 4.49621C6.61799 4.57416 6.24284 5.05551 5.93748 5.44732L5.79847 5.6258C5.15027 6.49008 4.00611 8.55289 3.86804 8.8102C3.86053 8.8207 3.85386 8.83141 3.84796 8.84239C3.82436 8.87207 3.81558 8.91565 3.81232 8.95448C3.63907 9.28723 3.01577 10.6137 2.81608 11.093C2.62926 11.4977 2.29225 12.4818 2.08598 13.0842L2.08597 13.0842C2.05358 13.1788 2.02442 13.2639 1.99956 13.336C1.93603 13.3867 1.88772 13.4593 1.86725 13.5412C1.86725 13.555 1.83357 13.7203 1.7842 13.9627C1.67184 14.5144 1.47819 15.4651 1.41541 15.9359C1.32504 16.6137 1.00876 18.8729 1.00876 18.8729V18.8993C0.997674 18.9461 0.996466 18.9957 1.00886 19.0453C1.00886 19.0453 1.32515 21.3045 1.41552 21.9822C1.47341 22.4454 1.64259 23.261 1.75669 23.811L1.7567 23.8111C1.82069 24.1195 1.86735 24.3445 1.86735 24.377C1.88325 24.4564 1.91591 24.5247 1.95945 24.5779C2.01153 24.7166 2.10001 24.9718 2.20331 25.2699C2.40436 25.8498 2.66158 26.5919 2.81608 26.9524C2.87213 27.0757 2.96155 27.2685 3.06433 27.4901L3.06436 27.4902L3.06442 27.4903L3.06444 27.4904C3.37595 28.1621 3.81012 29.0984 3.81012 29.1664C3.86389 29.2739 3.93365 29.3494 4.0194 29.3835C4.34918 29.9788 5.28236 31.6259 5.84365 32.3743L5.98273 32.5528L5.98277 32.5529C6.21046 32.845 6.47691 33.1869 6.61387 33.3742C6.61767 33.428 6.62812 33.475 6.65688 33.5038C6.97317 33.9556 7.33464 34.3171 7.74129 34.6334C7.84276 34.7095 7.94424 34.7998 8.0617 34.9044L8.06177 34.9045C8.15351 34.9862 8.255 35.0765 8.37387 35.1756C9.21577 35.9333 10.1753 36.4949 11.216 36.897C11.291 36.9716 11.3985 37.0057 11.4977 36.9993C11.5136 37.0002 11.5295 37.0001 11.5452 36.999C11.6411 37.0052 11.7215 36.9803 11.7862 36.9242C11.9038 36.8798 12.0204 36.8333 12.1359 36.7848C13.0522 36.4207 13.9005 35.8995 14.6544 35.2209C14.711 35.1738 14.7656 35.1286 14.8179 35.0854C15.0159 34.9215 15.1798 34.786 15.287 34.6787C15.4685 34.5174 15.641 34.3561 15.8044 34.1908C15.9925 34.0033 16.169 33.811 16.3337 33.608C16.386 33.5846 16.4316 33.5493 16.4619 33.5039C16.5522 33.3683 17.0041 32.7809 17.3204 32.3743C17.9976 31.4713 19.2163 29.2599 19.2632 29.1664C19.3085 29.1209 20.0765 27.4946 20.3024 26.9524C20.4892 26.5477 20.8262 25.5637 21.0324 24.9614L21.0325 24.9613L21.0325 24.9612L21.0325 24.9611C21.1256 24.6894 21.192 24.4954 21.2061 24.4673C21.2061 24.4415 21.2061 24.4121 21.205 24.3811L21.2061 24.377C21.2061 24.3642 21.2351 24.2241 21.2789 24.0135L21.2789 24.0132C21.3894 23.4813 21.5932 22.5 21.6579 21.9822C21.7306 21.4369 21.9496 19.8675 22.0324 19.2753L22.0646 19.2256C22.155 19.09 22.155 18.9545 22.0646 18.8189L21.9901 18.703C21.9096 18.1367 21.6864 16.5606 21.6129 15.9722C21.5481 15.4544 21.3444 14.4731 21.2339 13.9412L21.203 13.7924C21.2496 13.708 21.2426 13.6053 21.2061 13.5322C21.1866 13.5128 21.0669 13.1675 20.9152 12.7299L20.9152 12.7297L20.9151 12.7296L20.9151 12.7296L20.915 12.7293C20.714 12.1494 20.4568 11.4075 20.3024 11.0471C20.0765 10.5049 19.3083 8.87828 19.2631 8.8331C19.2237 8.75418 19.1756 8.6925 19.1189 8.6518C18.808 8.08911 17.848 6.38952 17.2752 5.6258ZM14.6358 31.3284L18.5237 28.7977L18.3377 26.1699L18.2244 24.698L17.6569 25.1766L15.1819 27.2877L14.6358 31.3284ZM2.825 24.5941L2.77119 24.6038C2.95203 25.1913 3.3132 26.2297 3.49384 26.6361C3.54151 26.7314 3.60175 26.8771 3.67457 27.0531C3.73979 27.2108 3.8151 27.3928 3.90049 27.5849L3.95617 26.9261L4.13624 24.3826L2.825 24.5941ZM2.12017 21.4142C2.09671 21.2351 2.0695 21.0272 2.03482 20.8129L3.90062 23.654L2.54511 23.88C2.45476 23.3378 2.27407 22.3441 2.18369 21.847L2.18367 21.8469L2.18366 21.8468L2.18364 21.8467C2.16376 21.7473 2.14389 21.5955 2.12017 21.4142ZM19.1922 23.6573L20.821 21.1443L21.0386 20.8129C21.0039 21.0272 20.9767 21.2351 20.9532 21.4142L20.9532 21.4143L20.9532 21.4144L20.9532 21.4145L20.9532 21.4147C20.9295 21.5957 20.9096 21.7474 20.8898 21.8467C20.8605 22.1982 20.7552 22.7205 20.6602 23.1922C20.6087 23.4481 20.5601 23.6892 20.5283 23.88L19.1922 23.6573ZM21.2339 19.0123L18.613 14.9312L17.7579 17.0344L16.9635 19.0111L18.6193 23.0835L21.2339 19.0123ZM19.8632 24.5248L18.9469 24.377L19.1728 27.585C19.3535 27.2235 19.5343 26.8621 19.5794 26.6361C19.8043 26.2315 20.1633 25.2003 20.3449 24.6115L19.8632 24.5248ZM7.7284 11.9168L7.28836 13.9365L6.43599 17.7574L5.94578 16.543L5.03034 14.2101L7.7284 11.9168ZM14.253 9.66905L12.1698 7.29655L13.82 6.49376L14.253 9.66905ZM15.189 10.7623C15.1801 10.7298 15.1639 10.7044 15.145 10.6819L14.6122 6.68564L18.5217 9.23049L18.2321 13.3204L15.189 10.7623ZM16.6989 17.7171L15.4357 11.9194L15.8762 12.2917L18.1193 14.1983L16.6989 17.7171ZM16.6974 20.2891L18.1256 23.8151L15.426 26.1245L16.6974 20.2891ZM12.1696 30.7029L14.2603 28.3219L13.8257 31.5086L12.1696 30.7029ZM14.4033 11.0635L14.4283 11.0925L16.1453 18.9996L14.4283 26.9068L11.5603 30.223L8.65164 26.8699L8.12753 24.5245L6.92784 18.9996L8.64094 11.1104C8.65077 11.097 8.65913 11.0828 8.66602 11.068L11.5149 7.77394L14.4033 11.0635ZM19.1857 14.336L21.0464 17.2334C21.008 17.0027 20.9785 16.7776 20.9534 16.5854V16.5854L20.9534 16.5854L20.9534 16.5853L20.9534 16.5852C20.9297 16.4041 20.9098 16.2523 20.8899 16.153C20.7996 15.6559 20.6188 14.6619 20.4833 14.1197L19.1872 14.3357L19.1857 14.336ZM13.589 32.2485L11.9434 31.4257V35.1066L13.589 32.2485ZM11.1753 31.5L9.56472 32.2643L11.1753 35.0616V31.5ZM12.4575 35.7787C13.1091 35.4668 13.6784 35.0699 14.2478 34.5882C14.3664 34.4893 14.4677 34.3991 14.5593 34.3176L14.5597 34.3173L14.5599 34.3171C14.6774 34.2125 14.7788 34.1221 14.8803 34.046C15.1514 33.8653 15.3773 33.6394 15.6032 33.3683L15.596 33.3641L14.2819 32.6195L12.4575 35.7787ZM7.05499 32.8157L7.47315 32.5834L8.28358 32.1032L5.25626 30.1603C5.41619 30.409 5.57612 30.6788 5.73055 30.9392L5.73063 30.9394L5.73065 30.9394C5.96886 31.3412 6.19399 31.7209 6.38586 31.9676C6.45314 32.0517 6.53295 32.1546 6.61829 32.2646C6.75927 32.4464 6.91535 32.6476 7.05499 32.8157ZM7.56056 33.3682L8.61999 32.7472L8.81937 32.632L10.6169 35.754C10.0201 35.4459 9.42784 35.0573 8.91607 34.5882C8.79721 34.4891 8.69571 34.3988 8.60397 34.3171L8.6039 34.317C8.48644 34.2124 8.38497 34.1221 8.2835 34.046C8.07935 33.9099 7.90082 33.7225 7.72861 33.5418C7.67214 33.4826 7.61635 33.424 7.56056 33.3682ZM4.88306 24.6753L4.55383 28.7724L8.5095 31.2897L7.97707 27.2964L5.75311 25.394L4.88306 24.6753ZM7.68209 26.0735L4.99643 23.8085L5.20612 23.289L6.43103 20.265L7.68209 26.0735ZM6.15019 19.0004L4.47999 14.9008L1.8674 18.9998L4.48806 23.1116L4.84358 22.2372L6.15019 19.0004ZM16.1086 5.28381L14.9483 5.96945L17.8626 7.83981C17.5011 7.20724 17.0493 6.43911 16.733 6.03246C16.6125 5.91197 16.4518 5.71115 16.2912 5.51033L16.291 5.51011C16.2294 5.43317 16.1679 5.35623 16.1086 5.28381ZM19.715 11.4086C19.8883 11.7986 20.2279 12.7704 20.4148 13.3675L19.041 13.6148L19.2631 10.4597C19.3987 10.8212 19.5794 11.1827 19.715 11.4086ZM8.5588 3.68279C8.65053 3.6011 8.75202 3.51074 8.87089 3.41168C9.41309 2.95985 10.0457 2.55319 10.7234 2.19172L8.87089 5.39977L7.51538 4.63165C7.74129 4.36054 7.96721 4.13462 8.23832 3.95389C8.3398 3.87777 8.44129 3.78741 8.55878 3.6828L8.55879 3.68279L8.5588 3.68279ZM7.06362 5.21915L8.25252 5.92368L5.26521 7.86825C5.62516 7.19536 6.07218 6.48095 6.38586 6.07764C6.61178 5.85173 6.83769 5.53544 7.06361 5.21916L7.06362 5.21915ZM3.90049 10.4604L3.9763 11.3574L4.13543 13.6052L2.7953 13.364C2.98253 12.7665 3.32091 11.7983 3.49384 11.4093C3.53902 11.1833 3.71975 10.8219 3.90049 10.4604L3.90049 10.4604ZM2.52928 14.1292C2.49828 14.3031 2.45675 14.5092 2.41307 14.726C2.31805 15.1977 2.21282 15.72 2.18353 16.0715C2.16366 16.1709 2.14378 16.3227 2.12006 16.5039L2.12006 16.504C2.08985 16.7347 2.05341 17.0131 2.0028 17.2915L3.87666 14.3717L2.52928 14.1292ZM7.97604 10.6652L4.88502 13.3094L4.59164 9.20204L8.5095 6.66434L7.97604 10.6652ZM9.2936 6.49188L8.86039 9.6976L10.9494 7.29742L9.2936 6.49188ZM9.27508 31.5438L10.9331 30.7294L8.82567 28.3081L9.27508 31.5438ZM17.9078 30.1151L14.8804 32.058L16.1004 32.7357C16.2422 32.5656 16.4018 32.3598 16.5457 32.1743L16.5457 32.1743L16.5458 32.1742C16.6311 32.0642 16.7109 31.9613 16.7782 31.8772C17.0493 31.5158 17.5011 30.7928 17.9078 30.1151Z" fill="#2D6380"/>
<path d="M11.4902 6.73388L11.3799 6.95827L11.4902 7.01241L11.6004 6.95827L11.4902 6.73388ZM9.52095 5.76654L9.30429 5.6418L9.17106 5.8732L9.41072 5.99093L9.52095 5.76654ZM13.6121 5.69151L13.7224 5.9159L13.962 5.79817L13.8288 5.56677L13.6121 5.69151ZM11.5881 2.17616L11.8048 2.05142L11.5881 1.67512L11.3715 2.05142L11.5881 2.17616ZM15.579 4.60716L15.7062 4.82239L15.9837 4.65837L15.7558 4.43039L15.579 4.60716ZM14.279 5.37535L14.0625 5.50037L14.1887 5.71905L14.4061 5.59058L14.279 5.37535ZM14.9255 3.95373L15.1023 3.77696L15.066 3.74067L15.0184 3.72161L14.9255 3.95373ZM14.2478 3.41153L14.4247 3.23458L14.4167 3.22724L14.2478 3.41153ZM12.4404 2.19156L12.5522 1.96796L11.8076 1.59565L12.2239 2.31658L12.4404 2.19156ZM16.5342 4.65722L16.2956 4.73203L16.3115 4.78259L16.3465 4.82236L16.5342 4.65722ZM17.2752 5.6258L17.0703 5.76925L17.0752 5.7758L17.2752 5.6258ZM16.4618 4.54112L16.257 4.68449L16.2695 4.70242L16.285 4.7179L16.4618 4.54112ZM15.3774 3.41153L15.5309 3.21416L15.5274 3.21153L15.3774 3.41153ZM15.0569 3.14042L15.2232 2.95371V2.95371L15.0569 3.14042ZM14.7448 2.86932L14.5774 3.05528L14.5848 3.06138L14.7448 2.86932ZM11.8923 1.14389L11.6889 1.28934L11.7325 1.35026L11.8024 1.37719L11.8923 1.14389ZM11.4915 1.01694L11.4125 0.779706L11.4069 0.781722L11.4915 1.01694ZM8.41905 2.8243L8.25158 2.63821L8.24227 2.64752L8.41905 2.8243ZM7.78648 3.3665L7.63648 3.1665L7.62816 3.17274L7.62039 3.17965L7.78648 3.3665ZM6.78459 4.39226L6.88718 4.62024L6.94129 4.59588L6.97869 4.54981L6.78459 4.39226ZM6.65696 4.49621L6.44895 4.35753L6.44032 4.37049L6.43336 4.38441L6.65696 4.49621ZM5.93748 5.44732L5.7403 5.29364L5.74025 5.2937L5.93748 5.44732ZM5.79847 5.6258L5.6012 5.47216L5.59847 5.4758L5.79847 5.6258ZM3.86804 8.8102L4.07143 8.95557L4.08075 8.94253L4.08832 8.92841L3.86804 8.8102ZM3.84796 8.84239L4.04363 8.998L4.05759 8.98045L4.0682 8.96069L3.84796 8.84239ZM3.81232 8.95448L4.03406 9.06993L4.05724 9.02542L4.06144 8.97542L3.81232 8.95448ZM2.81608 11.093L3.04323 11.1978L3.04685 11.1891L2.81608 11.093ZM2.08598 13.0842L1.84945 13.0032L1.8488 13.0051L2.08598 13.0842ZM2.08597 13.0842L2.32249 13.1652L2.32314 13.1632L2.08597 13.0842ZM1.99956 13.336L2.15556 13.5313L2.21223 13.4861L2.23589 13.4175L1.99956 13.336ZM1.86725 13.5412L1.62471 13.4806L1.61725 13.5104V13.5412H1.86725ZM1.7842 13.9627L2.02917 14.0126L1.7842 13.9627ZM1.41541 15.9359L1.66322 15.969L1.41541 15.9359ZM1.00876 18.8729L0.76117 18.8382L0.758755 18.8555V18.8729H1.00876ZM1.00876 18.8993L1.25203 18.9569L1.25876 18.9285V18.8993H1.00876ZM1.00886 19.0453L1.25645 19.0106L1.25461 18.9975L1.2514 18.9847L1.00886 19.0453ZM1.41552 21.9822L1.66359 21.9512L1.66332 21.9492L1.41552 21.9822ZM1.75669 23.811L2.00207 23.7631L2.00148 23.7603L1.75669 23.811ZM1.7567 23.8111L1.51132 23.859L1.51191 23.8619L1.7567 23.8111ZM1.86735 24.377H1.61735V24.4017L1.62221 24.426L1.86735 24.377ZM1.95945 24.5779L2.19349 24.49L2.179 24.4514L2.15288 24.4195L1.95945 24.5779ZM2.20331 25.2699L1.9671 25.3517H1.9671L2.20331 25.2699ZM2.81608 26.9524L2.58624 27.0509L2.58849 27.0558L2.81608 26.9524ZM3.06433 27.4901L2.83753 27.5953L2.83757 27.5954L3.06433 27.4901ZM3.06436 27.4902L2.83761 27.5955L2.838 27.5963L3.06436 27.4902ZM3.06442 27.4903L3.29215 27.3871L3.29078 27.3842L3.06442 27.4903ZM3.06444 27.4904L2.83672 27.5936L2.83764 27.5956L3.06444 27.4904ZM3.81012 29.1664H3.56012V29.2254L3.58652 29.2782L3.81012 29.1664ZM4.0194 29.3835L4.23808 29.2623L4.19475 29.1841L4.11164 29.1511L4.0194 29.3835ZM5.84365 32.3743L5.64362 32.5243L5.64642 32.5279L5.84365 32.3743ZM5.98273 32.5528L6.18277 32.4028L6.17997 32.3992L5.98273 32.5528ZM5.98277 32.5529L5.78274 32.7029L5.78559 32.7066L5.98277 32.5529ZM6.61387 33.3742L6.86325 33.3566L6.85817 33.2848L6.81568 33.2267L6.61387 33.3742ZM6.65688 33.5038L6.86169 33.3604L6.84914 33.3425L6.83366 33.327L6.65688 33.5038ZM7.74129 34.6334L7.58779 34.8308L7.59129 34.8334L7.74129 34.6334ZM8.0617 34.9044L7.89529 35.0913L7.9036 35.0981L8.0617 34.9044ZM8.06177 34.9045L8.22817 34.7176L8.21986 34.7108L8.06177 34.9045ZM8.37387 35.1756L8.54123 34.9896L8.53391 34.9835L8.37387 35.1756ZM11.216 36.897L11.3922 36.7197L11.355 36.6827L11.3061 36.6638L11.216 36.897ZM11.4977 36.9993L11.512 36.7497L11.4967 36.7488L11.4815 36.7498L11.4977 36.9993ZM11.5452 36.999L11.5614 36.7495L11.5444 36.7484L11.5274 36.7496L11.5452 36.999ZM11.7862 36.9242L11.6978 36.6904L11.6563 36.7061L11.6227 36.7351L11.7862 36.9242ZM12.1359 36.7848L12.0435 36.5524L12.039 36.5543L12.1359 36.7848ZM14.6544 35.2209L14.4943 35.0287L14.4872 35.0351L14.6544 35.2209ZM14.8179 35.0854L14.9772 35.278L14.9772 35.278L14.8179 35.0854ZM15.287 34.6787L15.1209 34.4919L15.1154 34.4968L15.1102 34.5019L15.287 34.6787ZM15.8044 34.1908L15.6279 34.0137L15.6267 34.015L15.8044 34.1908ZM16.3337 33.608L16.2315 33.3799L16.1772 33.4042L16.1396 33.4505L16.3337 33.608ZM16.4619 33.5039L16.6699 33.6425H16.6699L16.4619 33.5039ZM17.3204 32.3743L17.5177 32.5278L17.5204 32.5243L17.3204 32.3743ZM19.2632 29.1664L19.086 28.99L19.0577 29.0184L19.0397 29.0543L19.2632 29.1664ZM20.3024 26.9524L20.0752 26.8476L20.0716 26.8563L20.3024 26.9524ZM21.0324 24.9614L20.7989 24.8715L20.7959 24.8804L21.0324 24.9614ZM21.0325 24.9613L21.266 25.0511L21.2696 25.0403L21.0325 24.9613ZM21.0325 24.9611L20.796 24.8801L20.7954 24.882L21.0325 24.9611ZM21.2061 24.4673L21.4297 24.5791L21.4561 24.5263V24.4673H21.2061ZM21.205 24.3811L20.9628 24.3189L20.9539 24.3537L20.9551 24.3895L21.205 24.3811ZM21.2061 24.377L21.4482 24.4391L21.4561 24.4085V24.377H21.2061ZM21.2789 24.0135L21.0343 23.9615L21.0341 23.9627L21.2789 24.0135ZM21.2789 24.0132L21.5235 24.0652L21.5237 24.0641L21.2789 24.0132ZM21.6579 21.9822L21.4101 21.9492L21.4098 21.9512L21.6579 21.9822ZM22.0324 19.2753L21.8226 19.1393L21.7925 19.1858L21.7848 19.2407L22.0324 19.2753ZM22.0646 19.2256L21.8566 19.0869L21.8548 19.0896L22.0646 19.2256ZM22.0646 18.8189L21.8542 18.954L21.8566 18.9576L22.0646 18.8189ZM21.9901 18.703L21.7426 18.7382L21.7503 18.7922L21.7798 18.838L21.9901 18.703ZM21.6129 15.9722L21.3648 16.0032V16.0032L21.6129 15.9722ZM21.2339 13.9412L20.9891 13.992L20.9891 13.9921L21.2339 13.9412ZM21.203 13.7924L20.9841 13.6717L20.9395 13.7527L20.9583 13.8432L21.203 13.7924ZM21.2061 13.5322L21.4297 13.4204L21.4115 13.3841L21.3828 13.3554L21.2061 13.5322ZM20.9152 12.7299L21.1514 12.648L21.1508 12.6461L20.9152 12.7299ZM20.9152 12.7297L20.678 12.8088L20.6796 12.8135L20.9152 12.7297ZM20.9151 12.7296L20.6726 12.7903L20.6749 12.7996L20.678 12.8087L20.9151 12.7296ZM20.9151 12.7296L21.1577 12.669L21.1549 12.658L21.1512 12.6473L20.9151 12.7296ZM20.915 12.7293L20.6788 12.8112L20.679 12.8116L20.915 12.7293ZM20.3024 11.0471L20.0716 11.1433L20.0726 11.1456L20.3024 11.0471ZM19.2631 8.8331L19.0395 8.9449L19.0577 8.98119L19.0864 9.00988L19.2631 8.8331ZM19.1189 8.6518L18.9001 8.77271L18.9274 8.82202L18.9731 8.85488L19.1189 8.6518ZM18.5237 28.7977L18.6601 29.0072L18.7835 28.9269L18.7731 28.78L18.5237 28.7977ZM14.6358 31.3284L14.3881 31.295L14.315 31.8356L14.7722 31.538L14.6358 31.3284ZM18.3377 26.1699L18.587 26.1522L18.5869 26.1507L18.3377 26.1699ZM18.2244 24.698L18.4737 24.6788L18.4363 24.1923L18.0633 24.5069L18.2244 24.698ZM17.6569 25.1766L17.4958 24.9855L17.4947 24.9864L17.6569 25.1766ZM15.1819 27.2877L15.0197 27.0974L14.9469 27.1595L14.9341 27.2542L15.1819 27.2877ZM2.77119 24.6038L2.7269 24.3577L2.44928 24.4077L2.53225 24.6773L2.77119 24.6038ZM2.825 24.5941L2.78518 24.3472L2.7807 24.348L2.825 24.5941ZM3.49384 26.6361L3.26515 26.7377L3.27023 26.7479L3.49384 26.6361ZM3.67457 27.0531L3.90559 26.9575H3.90559L3.67457 27.0531ZM3.90049 27.5849L3.67204 27.6865L4.1496 27.606L3.90049 27.5849ZM3.95617 26.9261L4.2053 26.9472L4.20554 26.9438L3.95617 26.9261ZM4.13624 24.3826L4.38562 24.4003L4.40789 24.0856L4.09643 24.1358L4.13624 24.3826ZM2.03482 20.8129L2.24379 20.6757L1.78803 20.8529L2.03482 20.8129ZM2.12017 21.4142L2.36805 21.3818H2.36805L2.12017 21.4142ZM3.90062 23.654L3.94172 23.9006L4.32023 23.8376L4.10959 23.5168L3.90062 23.654ZM2.54511 23.88L2.29851 23.9211L2.33961 24.1677L2.58621 24.1266L2.54511 23.88ZM2.18369 21.847L2.42966 21.8022L2.42959 21.8019L2.18369 21.847ZM2.18367 21.8469L1.93761 21.8911L1.93777 21.8919L2.18367 21.8469ZM2.18366 21.8468L1.93757 21.8909L1.9376 21.891L2.18366 21.8468ZM2.18364 21.8467L2.42977 21.8026L2.42879 21.7977L2.18364 21.8467ZM20.821 21.1443L20.612 21.0071L20.6112 21.0083L20.821 21.1443ZM19.1922 23.6573L18.9824 23.5213L18.7751 23.8412L19.1511 23.9039L19.1922 23.6573ZM21.0386 20.8129L21.2854 20.8529L20.8296 20.6757L21.0386 20.8129ZM20.9532 21.4142L20.7054 21.3818L20.7052 21.3832L20.9532 21.4142ZM20.9532 21.4143L20.7051 21.3833L20.7046 21.3881L20.9532 21.4143ZM20.9532 21.4144L21.2013 21.4454L21.2019 21.4406L20.9532 21.4144ZM20.9532 21.4145L21.2009 21.4489L21.2013 21.4455L20.9532 21.4145ZM20.9532 21.4147L20.7055 21.3803L20.7053 21.3823L20.9532 21.4147ZM20.8898 21.8467L20.6446 21.7977L20.6418 21.8117L20.6406 21.8259L20.8898 21.8467ZM20.6602 23.1922L20.4151 23.1428L20.6602 23.1922ZM20.5283 23.88L20.4872 24.1266L20.7338 24.1677L20.7749 23.9211L20.5283 23.88ZM18.613 14.9312L18.8234 14.7961L18.563 14.3906L18.3814 14.8371L18.613 14.9312ZM21.2339 19.0123L21.4442 19.1474L21.531 19.0123L21.4442 18.8772L21.2339 19.0123ZM17.7579 17.0344L17.5263 16.9402L17.5259 16.9412L17.7579 17.0344ZM16.9635 19.0111L16.7315 18.9179L16.6938 19.0117L16.7319 19.1053L16.9635 19.0111ZM18.6193 23.0835L18.3877 23.1777L18.5693 23.6241L18.8297 23.2186L18.6193 23.0835ZM18.9469 24.377L18.9867 24.1301L18.6753 24.0799L18.6975 24.3945L18.9469 24.377ZM19.8632 24.5248L19.9075 24.2787L19.903 24.2779L19.8632 24.5248ZM19.1728 27.585L18.9234 27.6026L18.9876 28.5144L19.3964 27.6968L19.1728 27.585ZM19.5794 26.6361L19.3609 26.5147L19.3419 26.5488L19.3343 26.5871L19.5794 26.6361ZM20.3449 24.6115L20.5838 24.6851L20.667 24.4154L20.3892 24.3654L20.3449 24.6115ZM7.28836 13.9365L7.53236 13.9909L7.53263 13.9897L7.28836 13.9365ZM7.7284 11.9168L7.97267 11.97L8.13016 11.2472L7.56649 11.7263L7.7284 11.9168ZM6.43599 17.7574L6.20417 17.851L6.50501 18.5963L6.67999 17.8119L6.43599 17.7574ZM5.94578 16.543L5.71305 16.6344L5.71396 16.6366L5.94578 16.543ZM5.03034 14.2101L4.86842 14.0197L4.7324 14.1353L4.79761 14.3015L5.03034 14.2101ZM12.1698 7.29655L12.0605 7.07174L11.7657 7.21516L11.982 7.4615L12.1698 7.29655ZM14.253 9.66905L14.0651 9.834L14.6129 10.4578L14.5007 9.63527L14.253 9.66905ZM13.82 6.49376L14.0677 6.45999L14.0211 6.11794L13.7106 6.26896L13.82 6.49376ZM15.145 10.6819L14.8972 10.7149L14.9068 10.7869L14.9535 10.8426L15.145 10.6819ZM15.189 10.7623L14.9479 10.8285L14.9685 10.9036L15.0281 10.9537L15.189 10.7623ZM14.6122 6.68564L14.7486 6.47611L14.2924 6.1792L14.3644 6.71868L14.6122 6.68564ZM18.5217 9.23049L18.771 9.24815L18.7814 9.10129L18.6581 9.02097L18.5217 9.23049ZM18.2321 13.3204L18.0713 13.5117L18.4468 13.8274L18.4815 13.338L18.2321 13.3204ZM15.4357 11.9194L15.5971 11.7284L15.0347 11.2531L15.1914 11.9726L15.4357 11.9194ZM16.6989 17.7171L16.4546 17.7703L16.6272 18.5625L16.9307 17.8107L16.6989 17.7171ZM15.8762 12.2917L16.0381 12.1012L16.0375 12.1007L15.8762 12.2917ZM18.1193 14.1983L18.3511 14.2919L18.4186 14.1247L18.2812 14.0079L18.1193 14.1983ZM18.1256 23.8151L18.2882 24.0051L18.4249 23.8881L18.3574 23.7213L18.1256 23.8151ZM16.6974 20.2891L16.9291 20.1952L16.6253 19.4454L16.4531 20.2359L16.6974 20.2891ZM15.426 26.1245L15.1817 26.0712L15.0234 26.7978L15.5885 26.3144L15.426 26.1245ZM14.2603 28.3219L14.508 28.3557L14.6202 27.5332L14.0724 28.157L14.2603 28.3219ZM12.1696 30.7029L11.9818 30.538L11.7655 30.7843L12.0603 30.9278L12.1696 30.7029ZM13.8257 31.5086L13.7164 31.7334L14.0268 31.8845L14.0735 31.5424L13.8257 31.5086ZM14.4283 11.0925L14.6727 11.0394L14.6591 10.9771L14.6174 10.9289L14.4283 11.0925ZM14.4033 11.0635L14.5924 10.8999L14.5911 10.8985L14.4033 11.0635ZM16.1453 18.9996L16.3896 19.0527L16.4012 18.9996L16.3896 18.9466L16.1453 18.9996ZM14.4283 26.9068L14.6174 27.0703L14.6591 27.0221L14.6727 26.9598L14.4283 26.9068ZM11.5603 30.223L11.3715 30.3868L11.5606 30.6048L11.7494 30.3865L11.5603 30.223ZM8.65164 26.8699L8.40766 26.9244L8.42143 26.986L8.46279 27.0337L8.65164 26.8699ZM8.12753 24.5245L7.88322 24.5776L7.88355 24.5791L8.12753 24.5245ZM6.92784 18.9996L6.68354 18.9466L6.67202 18.9996L6.68354 19.0527L6.92784 18.9996ZM8.64094 11.1104L8.4397 10.962L8.40797 11.0051L8.39663 11.0573L8.64094 11.1104ZM8.66602 11.068L8.47693 10.9044L8.454 10.9309L8.43925 10.9627L8.66602 11.068ZM11.5149 7.77394L11.7028 7.60899L11.5135 7.39342L11.3258 7.61041L11.5149 7.77394ZM21.0464 17.2334L20.8361 17.3685L21.293 17.1924L21.0464 17.2334ZM19.1857 14.336L19.1413 14.0899L18.7731 14.1563L18.9753 14.4711L19.1857 14.336ZM20.9534 16.5854H20.7034V16.6017L20.7055 16.6179L20.9534 16.5854ZM20.9534 16.5854H21.2034V16.5688L21.2012 16.5524L20.9534 16.5854ZM20.9534 16.5854L20.7051 16.6146L20.7056 16.6184L20.9534 16.5854ZM20.9534 16.5853L21.2018 16.5561L21.2005 16.5473L20.9534 16.5853ZM20.9534 16.5852L20.7054 16.6177L20.7063 16.6233L20.9534 16.5852ZM20.8899 16.153L20.6439 16.1977L20.6448 16.202L20.8899 16.153ZM20.4833 14.1197L20.7258 14.0591L20.6698 13.8351L20.4422 13.8731L20.4833 14.1197ZM19.1872 14.3357L19.1461 14.0891L19.1429 14.0897L19.1872 14.3357ZM11.9434 31.4257L12.0552 31.2021L11.6934 31.0212V31.4257H11.9434ZM13.589 32.2485L13.8056 32.3733L13.9379 32.1435L13.7008 32.0249L13.589 32.2485ZM11.9434 35.1066H11.6934V36.0418L12.1601 35.2313L11.9434 35.1066ZM9.56472 32.2643L9.45753 32.0385L9.21301 32.1545L9.34806 32.3891L9.56472 32.2643ZM11.1753 31.5H11.4253V31.1046L11.0681 31.2741L11.1753 31.5ZM11.1753 35.0616L10.9586 35.1864L11.4253 35.9969V35.0616H11.1753ZM14.2478 34.5882L14.0877 34.3961L14.0863 34.3974L14.2478 34.5882ZM12.4575 35.7787L12.241 35.6537L11.8373 36.3528L12.5655 36.0042L12.4575 35.7787ZM14.5593 34.3176L14.3939 34.1301L14.3931 34.1309L14.5593 34.3176ZM14.5597 34.3173L14.7251 34.5047L14.7288 34.5014L14.5597 34.3173ZM14.5599 34.3171L14.3936 34.1304L14.3908 34.1329L14.5599 34.3171ZM14.8803 34.046L14.7414 33.8377L14.7303 33.846L14.8803 34.046ZM15.6032 33.3683L15.7952 33.5284L15.9841 33.3018L15.7296 33.1527L15.6032 33.3683ZM15.596 33.3641L15.7225 33.1484L15.7193 33.1466L15.596 33.3641ZM14.2819 32.6195L14.4051 32.402L14.1894 32.2797L14.0654 32.4944L14.2819 32.6195ZM7.47315 32.5834L7.59461 32.802L7.60061 32.7985L7.47315 32.5834ZM7.05499 32.8157L6.86267 32.9755L6.99515 33.135L7.1764 33.0343L7.05499 32.8157ZM8.28358 32.1032L8.41103 32.3182L8.75965 32.1116L8.41861 31.8928L8.28358 32.1032ZM5.25626 30.1603L5.39129 29.9499L5.04597 30.2954L5.25626 30.1603ZM5.73055 30.9392L5.94579 30.8121L5.9456 30.8118L5.73055 30.9392ZM5.73063 30.9394L5.94658 30.8134L5.94586 30.8122L5.73063 30.9394ZM5.73065 30.9394L5.5147 31.0654L5.5156 31.0669L5.73065 30.9394ZM6.38586 31.9676L6.1885 32.1211L6.19064 32.1238L6.38586 31.9676ZM6.61829 32.2646L6.42075 32.4178L6.61829 32.2646ZM8.61999 32.7472L8.49492 32.5307L8.49356 32.5315L8.61999 32.7472ZM7.56056 33.3682L7.43413 33.1526L7.15497 33.3162L7.38379 33.545L7.56056 33.3682ZM8.81937 32.632L9.03602 32.5073L8.91109 32.2903L8.6943 32.4155L8.81937 32.632ZM10.6169 35.754L10.5022 35.9762L11.2579 36.3663L10.8336 35.6293L10.6169 35.754ZM8.91607 34.5882L9.08519 34.4037L9.07612 34.3961L8.91607 34.5882ZM8.60397 34.3171L8.77037 34.1302L8.76207 34.1234L8.60397 34.3171ZM8.6039 34.317L8.4375 34.5039L8.44581 34.5107L8.6039 34.317ZM8.2835 34.046L8.43373 33.8457L8.42217 33.838L8.2835 34.046ZM7.72861 33.5418L7.54763 33.7143H7.54763L7.72861 33.5418ZM4.55383 28.7724L4.30463 28.7524L4.29257 28.9025L4.41961 28.9833L4.55383 28.7724ZM4.88306 24.6753L5.04228 24.4826L4.6723 24.1769L4.63387 24.6553L4.88306 24.6753ZM8.5095 31.2897L8.37528 31.5006L8.82827 31.7889L8.7573 31.2566L8.5095 31.2897ZM7.97707 27.2964L8.22487 27.2634L8.21224 27.1686L8.13958 27.1065L7.97707 27.2964ZM5.75311 25.394L5.91564 25.204L5.91233 25.2013L5.75311 25.394ZM4.99643 23.8085L4.7646 23.7149L4.69681 23.8828L4.83525 23.9996L4.99643 23.8085ZM7.68209 26.0735L7.52092 26.2646L8.08067 26.7367L7.92649 26.0208L7.68209 26.0735ZM5.20612 23.289L4.97441 23.1951L4.9743 23.1954L5.20612 23.289ZM6.43103 20.265L6.67543 20.2124L6.50435 19.4181L6.19932 20.1711L6.43103 20.265ZM4.47999 14.9008L4.71152 14.8065L4.52907 14.3586L4.26917 14.7664L4.47999 14.9008ZM6.15019 19.0004L6.38202 19.0939L6.41997 18.9999L6.38171 18.906L6.15019 19.0004ZM1.8674 18.9998L1.65658 18.8655L1.57094 18.9998L1.65658 19.1342L1.8674 18.9998ZM4.48806 23.1116L4.27724 23.2459L4.53736 23.6541L4.71965 23.2057L4.48806 23.1116ZM4.84358 22.2372L5.07517 22.3313L5.07541 22.3308L4.84358 22.2372ZM14.9483 5.96945L14.8211 5.75422L14.4717 5.96066L14.8133 6.17985L14.9483 5.96945ZM16.1086 5.28381L16.302 5.12544L16.1661 4.95944L15.9814 5.06858L16.1086 5.28381ZM17.8626 7.83981L17.7275 8.05021L18.0796 7.71578L17.8626 7.83981ZM16.733 6.03246L16.9303 5.87897L16.9208 5.86669L16.9098 5.85568L16.733 6.03246ZM16.2912 5.51033L16.0957 5.6662L16.096 5.66651L16.2912 5.51033ZM16.291 5.51011L16.4865 5.35423L16.4862 5.35393L16.291 5.51011ZM20.4148 13.3675L20.4591 13.6135L20.7381 13.5633L20.6534 13.2928L20.4148 13.3675ZM19.715 11.4086L19.9434 11.307L19.9372 11.2931L19.9294 11.28L19.715 11.4086ZM19.041 13.6148L18.7916 13.5972L18.769 13.9178L19.0852 13.8608L19.041 13.6148ZM19.2631 10.4597L19.4972 10.3719L19.0138 10.4422L19.2631 10.4597ZM8.87089 3.41168L8.71084 3.21963V3.21963L8.87089 3.41168ZM8.5588 3.68279L8.39255 3.49607L8.38714 3.50089L8.38202 3.50601L8.5588 3.68279ZM10.7234 2.19172L10.9399 2.31674L11.377 1.5598L10.6058 1.97113L10.7234 2.19172ZM8.87089 5.39977L8.74764 5.61728L8.96338 5.73953L9.08738 5.52479L8.87089 5.39977ZM7.51538 4.63165L7.32332 4.4716L7.13168 4.70157L7.39212 4.84915L7.51538 4.63165ZM8.23832 3.95389L8.3772 4.16222L8.38832 4.15389L8.23832 3.95389ZM8.55878 3.6828L8.72503 3.86952L8.72602 3.86863L8.55878 3.6828ZM8.55879 3.68279L8.72626 3.86887L8.73557 3.85957L8.55879 3.68279ZM8.25252 5.92368L8.3889 6.1332L8.72608 5.91372L8.37997 5.70861L8.25252 5.92368ZM7.06362 5.21915L7.19107 5.00408L6.9936 4.88706L6.86018 5.07384L7.06362 5.21915ZM5.26521 7.86825L5.04477 7.75033L5.40159 8.07777L5.26521 7.86825ZM6.38586 6.07764L6.20908 5.90087L6.19808 5.91187L6.18852 5.92416L6.38586 6.07764ZM7.06361 5.21916L7.26704 5.36447L7.06361 5.21916ZM3.9763 11.3574L4.2257 11.3398L4.22541 11.3364L3.9763 11.3574ZM3.90049 10.4604L4.1496 10.4393L3.66972 10.3642L3.90049 10.4604ZM4.13543 13.6052L4.09114 13.8512L4.40751 13.9082L4.38481 13.5875L4.13543 13.6052ZM2.7953 13.364L2.55674 13.2892L2.47195 13.5598L2.75101 13.61L2.7953 13.364ZM3.49384 11.4093L3.72229 11.5108L3.73355 11.4855L3.73898 11.4583L3.49384 11.4093ZM3.90049 10.4604L4.12409 10.5722L4.12795 10.5645L4.13126 10.5566L3.90049 10.4604ZM2.41307 14.726L2.168 14.6767L2.41307 14.726ZM2.52928 14.1292L2.57357 13.8832L2.32711 13.8388L2.28316 14.0853L2.52928 14.1292ZM2.18353 16.0715L2.42868 16.1205L2.43148 16.1065L2.43267 16.0923L2.18353 16.0715ZM2.12006 16.5039L1.87217 16.4715L1.87199 16.4729L2.12006 16.5039ZM2.12006 16.504L2.36795 16.5364L2.36813 16.535L2.12006 16.504ZM2.0028 17.2915L1.75683 17.2467L2.21319 17.4265L2.0028 17.2915ZM3.87666 14.3717L4.08705 14.5068L4.28909 14.192L3.92094 14.1257L3.87666 14.3717ZM4.88502 13.3094L4.63566 13.3272L4.67097 13.8215L5.04753 13.4993L4.88502 13.3094ZM7.97604 10.6652L8.13855 10.8552L8.21121 10.7931L8.22385 10.6983L7.97604 10.6652ZM4.59164 9.20204L4.45573 8.99221L4.33175 9.07252L4.34228 9.21985L4.59164 9.20204ZM8.5095 6.66434L8.7573 6.69738L8.82902 6.15952L8.37359 6.45451L8.5095 6.66434ZM8.86039 9.6976L8.61265 9.66412L8.50084 10.4915L9.04897 9.86173L8.86039 9.6976ZM9.2936 6.49188L9.40297 6.26707L9.09214 6.11586L9.04585 6.4584L9.2936 6.49188ZM10.9494 7.29742L11.138 7.46155L11.3523 7.21538L11.0588 7.07261L10.9494 7.29742ZM10.9331 30.7294L11.0433 30.9538L11.3351 30.8104L11.1217 30.5652L10.9331 30.7294ZM9.27508 31.5438L9.02746 31.5782L9.07502 31.9206L9.38531 31.7682L9.27508 31.5438ZM8.82567 28.3081L9.01424 28.1439L8.46241 27.5099L8.57804 28.3425L8.82567 28.3081ZM14.8804 32.058L14.7454 31.8476L14.3935 32.0734L14.759 32.2765L14.8804 32.058ZM17.9078 30.1151L18.1221 30.2437L17.7727 29.9047L17.9078 30.1151ZM16.1004 32.7357L15.979 32.9543L16.1599 33.0548L16.2925 32.8958L16.1004 32.7357ZM16.5457 32.1743L16.7433 32.3275L16.7457 32.3243L16.5457 32.1743ZM16.5458 32.1742L16.3482 32.021L16.3458 32.0242L16.5458 32.1742ZM16.7782 31.8772L16.9735 32.0335L16.9782 32.0272L16.7782 31.8772ZM11.6004 6.50949L9.63117 5.54215L9.41072 5.99093L11.3799 6.95827L11.6004 6.50949ZM13.5019 5.46713L11.3799 6.50949L11.6004 6.95827L13.7224 5.9159L13.5019 5.46713ZM11.3715 2.3009L13.3955 5.81626L13.8288 5.56677L11.8048 2.05142L11.3715 2.3009ZM9.7376 5.89128L11.8048 2.3009L11.3715 2.05142L9.30429 5.6418L9.7376 5.89128ZM15.4518 4.39193L14.1518 5.16012L14.4061 5.59058L15.7062 4.82239L15.4518 4.39193ZM14.7488 4.13051L15.4022 4.78394L15.7558 4.43039L15.1023 3.77696L14.7488 4.13051ZM14.071 3.5883C14.33 3.84727 14.549 4.07237 14.8327 4.18585L15.0184 3.72161C14.8503 3.65436 14.7078 3.51799 14.4246 3.23475L14.071 3.5883ZM12.3286 2.41517C12.9451 2.72341 13.5573 3.11768 14.0789 3.59581L14.4167 3.22724C13.8539 2.71133 13.2009 2.29229 12.5522 1.96796L12.3286 2.41517ZM14.4955 5.25033L12.6569 2.06655L12.2239 2.31658L14.0625 5.50037L14.4955 5.25033ZM16.3465 4.82236C16.5369 5.03881 16.8386 5.43811 17.0704 5.76917L17.48 5.48244C17.2442 5.14561 16.9303 4.72893 16.7219 4.49207L16.3465 4.82236ZM16.285 4.7179C16.2914 4.72426 16.2937 4.72784 16.2942 4.72873C16.2947 4.72944 16.295 4.73012 16.2956 4.73203L16.7727 4.5824C16.7472 4.50117 16.7033 4.42903 16.6386 4.36434L16.285 4.7179ZM15.2239 3.60886C15.6135 3.91191 15.9568 4.25571 16.257 4.68449L16.6666 4.39775C16.3342 3.92285 15.9545 3.54371 15.5309 3.21419L15.2239 3.60886ZM14.8907 3.32714C15.0061 3.42997 15.1159 3.52788 15.2274 3.61153L15.5274 3.21153C15.4359 3.14294 15.3427 3.06012 15.2232 2.95371L14.8907 3.32714ZM14.5848 3.06138C14.7001 3.15749 14.7988 3.24534 14.8907 3.32714L15.2232 2.95371C15.1315 2.87215 15.0272 2.77926 14.9049 2.67727L14.5848 3.06138ZM11.8024 1.37719C12.8219 1.76982 13.758 2.31753 14.5776 3.05514L14.9121 2.6835C14.0422 1.90063 13.052 1.32266 11.9821 0.910596L11.8024 1.37719ZM11.5706 1.25411C11.5848 1.2494 11.6096 1.24744 11.6367 1.2554C11.6626 1.26301 11.6796 1.27631 11.6889 1.28934L12.0956 0.998447C11.9329 0.770955 11.6378 0.704683 11.4125 0.779773L11.5706 1.25411ZM8.58629 3.01012C9.46302 2.22107 10.4732 1.64925 11.5762 1.25217L11.4069 0.781722C10.2507 1.19794 9.18244 1.80091 8.25181 2.63847L8.58629 3.01012ZM7.93648 3.5665C8.12068 3.42835 8.31235 3.28455 8.59583 3.00107L8.24227 2.64752C7.98355 2.90624 7.81375 3.03355 7.63648 3.1665L7.93648 3.5665ZM6.97869 4.54981C7.26353 4.1989 7.58692 3.87838 7.95257 3.55335L7.62039 3.17965C7.24261 3.51545 6.89807 3.85576 6.59048 4.2347L6.97869 4.54981ZM6.86497 4.63488C6.86461 4.63543 6.86558 4.6338 6.86929 4.63081C6.87305 4.62779 6.87894 4.62395 6.88718 4.62024L6.682 4.16427C6.59546 4.20321 6.50987 4.26616 6.44895 4.35753L6.86497 4.63488ZM6.13467 5.601C6.28714 5.40537 6.45806 5.18606 6.59576 5.00586C6.66453 4.91586 6.72592 4.83444 6.77295 4.77003C6.81336 4.71468 6.85928 4.6506 6.88057 4.60801L6.43336 4.38441C6.43516 4.38079 6.41957 4.40611 6.36913 4.47519C6.32532 4.53519 6.26653 4.61321 6.19848 4.70227C6.06252 4.88019 5.89319 5.09746 5.7403 5.29364L6.13467 5.601ZM5.9957 5.77942L6.13472 5.60094L5.74025 5.2937L5.60124 5.47219L5.9957 5.77942ZM4.08832 8.92841C4.22796 8.6682 5.36352 6.6224 5.99847 5.7758L5.59847 5.4758C4.93701 6.35775 3.78427 8.43759 3.64775 8.69199L4.08832 8.92841ZM4.0682 8.96069C4.06894 8.95931 4.06996 8.95763 4.07143 8.95557L3.66465 8.66483C3.65111 8.68378 3.63878 8.70352 3.62773 8.72409L4.0682 8.96069ZM4.06144 8.97542C4.06181 8.97103 4.06223 8.96774 4.06261 8.96544C4.063 8.96308 4.06321 8.96259 4.06291 8.96361C4.06263 8.96459 4.06152 8.96829 4.05889 8.97386C4.05624 8.97946 4.05151 8.98809 4.04363 8.998L3.65229 8.68678C3.57993 8.77778 3.5672 8.88583 3.56319 8.93354L4.06144 8.97542ZM3.04685 11.1891C3.24383 10.7164 3.86413 9.39633 4.03406 9.06993L3.59057 8.83903C3.41402 9.17813 2.78771 10.5111 2.58531 10.9968L3.04685 11.1891ZM2.32249 13.1652C2.53141 12.5551 2.86313 11.5876 3.04307 11.1977L2.58909 10.9882C2.3954 11.4079 2.0531 12.4085 1.84946 13.0032L2.32249 13.1652ZM2.32314 13.1632L2.32315 13.1632L1.8488 13.0051L1.8488 13.0051L2.32314 13.1632ZM2.23589 13.4175C2.26086 13.3451 2.29013 13.2597 2.32249 13.1652L1.84945 13.0032C1.81704 13.0978 1.78797 13.1827 1.76323 13.2544L2.23589 13.4175ZM2.10978 13.6018C2.1165 13.575 2.13336 13.549 2.15556 13.5313L1.84356 13.1406C1.7387 13.2243 1.65894 13.3437 1.62471 13.4806L2.10978 13.6018ZM2.02917 14.0126C2.05381 13.8917 2.07471 13.7891 2.08943 13.715C2.09678 13.6781 2.1028 13.6472 2.10704 13.6243C2.10913 13.613 2.11105 13.6023 2.11252 13.5931C2.11324 13.5886 2.1141 13.583 2.11485 13.5772C2.1151 13.5752 2.11725 13.5596 2.11725 13.5412H1.61725C1.61725 13.5308 1.61794 13.5229 1.61816 13.5205C1.61846 13.5172 1.61875 13.5148 1.61887 13.5139C1.6191 13.5121 1.61918 13.5117 1.61889 13.5136C1.61833 13.5171 1.61722 13.5234 1.61539 13.5333C1.61178 13.5528 1.60629 13.581 1.59904 13.6175C1.58459 13.6901 1.56397 13.7914 1.53923 13.9128L2.02917 14.0126ZM1.66322 15.969C1.72457 15.5088 1.91587 14.5689 2.02917 14.0126L1.53923 13.9128C1.42781 14.4598 1.23182 15.4213 1.1676 15.9029L1.66322 15.969ZM1.00876 18.8729C1.25634 18.9076 1.25634 18.9075 1.25634 18.9075C1.25635 18.9075 1.25635 18.9075 1.25636 18.9074C1.25636 18.9074 1.25638 18.9073 1.2564 18.9071C1.25644 18.9069 1.25649 18.9065 1.25657 18.9059C1.25672 18.9048 1.25695 18.9032 1.25725 18.901C1.25785 18.8967 1.25875 18.8904 1.25992 18.882C1.26226 18.8653 1.2657 18.8407 1.27011 18.8091C1.27894 18.746 1.29165 18.6551 1.30718 18.5439C1.33825 18.3215 1.38062 18.0178 1.42581 17.693C1.51614 17.0438 1.61792 16.3087 1.66322 15.969L1.1676 15.9029C1.12253 16.2409 1.02098 16.9744 0.930579 17.6241C0.885404 17.9488 0.84305 18.2524 0.811991 18.4747C0.796461 18.5859 0.783755 18.6768 0.774932 18.7399C0.77052 18.7714 0.767079 18.796 0.764742 18.8127C0.763573 18.8211 0.762679 18.8274 0.762079 18.8317C0.761778 18.8339 0.761551 18.8355 0.761399 18.8366C0.761323 18.8371 0.761265 18.8375 0.761227 18.8378C0.761208 18.838 0.761194 18.8381 0.761184 18.8381C0.761179 18.8382 0.761176 18.8382 0.761173 18.8382C0.761171 18.8382 0.76117 18.8382 1.00876 18.8729ZM1.25876 18.8993V18.8729H0.758755V18.8993H1.25876ZM1.2514 18.9847C1.24966 18.9777 1.2492 18.9689 1.25203 18.9569L0.765484 18.8417C0.746148 18.9234 0.743271 19.0137 0.766327 19.1059L1.2514 18.9847ZM1.66332 21.9492C1.61803 21.6095 1.51625 20.8744 1.42592 20.2252C1.38073 19.9003 1.33836 19.5967 1.30729 19.3743C1.29176 19.2631 1.27905 19.1722 1.27022 19.1091C1.26581 19.0775 1.26236 19.0529 1.26002 19.0362C1.25885 19.0278 1.25796 19.0214 1.25736 19.0171C1.25706 19.015 1.25683 19.0134 1.25668 19.0123C1.2566 19.0117 1.25654 19.0113 1.25651 19.011C1.25649 19.0109 1.25647 19.0108 1.25646 19.0107C1.25646 19.0107 1.25645 19.0107 1.25645 19.0107C1.25645 19.0106 1.25645 19.0106 1.00886 19.0453C0.761277 19.08 0.761279 19.08 0.761281 19.08C0.761283 19.08 0.761287 19.08 0.761292 19.0801C0.761301 19.0801 0.761316 19.0802 0.761335 19.0804C0.761373 19.0806 0.76143 19.081 0.761507 19.0816C0.761659 19.0827 0.761886 19.0843 0.762186 19.0864C0.762787 19.0907 0.76368 19.0971 0.764849 19.1055C0.767187 19.1222 0.770628 19.1468 0.77504 19.1783C0.783863 19.2414 0.796569 19.3323 0.812098 19.4435C0.843158 19.6658 0.885511 19.9694 0.930687 20.2941C1.02109 20.9438 1.12264 21.6773 1.16771 22.0153L1.66332 21.9492ZM2.00148 23.7603C1.88638 23.2054 1.71992 22.4019 1.66359 21.9512L1.16745 22.0132C1.2269 22.4889 1.3988 23.3166 1.5119 23.8618L2.00148 23.7603ZM2.00207 23.7632L2.00206 23.7631L1.51133 23.859L1.51134 23.859L2.00207 23.7632ZM2.11735 24.377C2.11735 24.3418 2.10908 24.2964 2.10526 24.2748C2.09941 24.2416 2.09115 24.1987 2.08122 24.1488C2.06131 24.0487 2.0334 23.9141 2.00149 23.7603L1.51191 23.8619C1.54399 24.0165 1.57141 24.1487 1.59083 24.2463C1.60056 24.2952 1.60797 24.3339 1.61286 24.3617C1.6198 24.401 1.61735 24.3959 1.61735 24.377H2.11735ZM2.15288 24.4195C2.13694 24.4001 2.1209 24.3699 2.1125 24.3279L1.62221 24.426C1.6456 24.5429 1.69488 24.6494 1.76601 24.7363L2.15288 24.4195ZM2.43952 25.188C2.33685 24.8918 2.24701 24.6325 2.19349 24.49L1.72541 24.6658C1.77606 24.8007 1.86316 25.0519 1.9671 25.3517L2.43952 25.188ZM3.04587 26.8539C2.89583 26.5038 2.64228 25.7729 2.43952 25.188L1.9671 25.3517C2.16645 25.9268 2.42734 26.6799 2.58629 27.0508L3.04587 26.8539ZM3.29113 27.385C3.18814 27.1629 3.09923 26.9711 3.04367 26.8489L2.58849 27.0558C2.64503 27.1802 2.73495 27.3741 2.83753 27.5953L3.29113 27.385ZM3.29112 27.3849L3.29108 27.3849L2.83757 27.5954L2.83761 27.5955L3.29112 27.3849ZM3.29078 27.3842L3.29073 27.3841L2.838 27.5963L2.83805 27.5964L3.29078 27.3842ZM3.29215 27.3872L3.29213 27.3872L2.8367 27.5935L2.83672 27.5936L3.29215 27.3872ZM4.06012 29.1664C4.06012 29.1197 4.04649 29.0781 4.04444 29.0713C4.03899 29.0533 4.03212 29.0338 4.02506 29.0149C4.01073 28.9766 3.99095 28.928 3.9677 28.873C3.92091 28.7623 3.85589 28.6156 3.78194 28.4519C3.63384 28.124 3.44685 27.7208 3.29124 27.3852L2.83764 27.5956C2.99354 27.9318 3.17939 28.3325 3.32626 28.6577C3.39979 28.8205 3.46278 28.9627 3.50714 29.0676C3.52945 29.1204 3.54603 29.1614 3.55666 29.1899C3.56208 29.2044 3.56484 29.2127 3.5659 29.2162C3.57036 29.2309 3.56012 29.2045 3.56012 29.1664H4.06012ZM4.11164 29.1511C4.10317 29.1478 4.07158 29.1303 4.03373 29.0546L3.58652 29.2782C3.6562 29.4175 3.76412 29.5511 3.92715 29.6158L4.11164 29.1511ZM6.04365 32.2243C5.49478 31.4924 4.57023 29.8619 4.23808 29.2623L3.80071 29.5046C4.12813 30.0956 5.06993 31.7593 5.64365 32.5243L6.04365 32.2243ZM6.17997 32.3992L6.04089 32.2206L5.64642 32.5279L5.7855 32.7064L6.17997 32.3992ZM6.18277 32.4029L6.18273 32.4028L5.78273 32.7028L5.78277 32.7029L6.18277 32.4029ZM6.81568 33.2267C6.67585 33.0354 6.40633 32.6897 6.17996 32.3992L5.78559 32.7066C6.01458 33.0004 6.27797 33.3384 6.41206 33.5218L6.81568 33.2267ZM6.83366 33.327C6.85718 33.3505 6.86427 33.3725 6.86529 33.3759C6.86595 33.3781 6.86567 33.3778 6.86508 33.3741C6.8645 33.3704 6.86383 33.3647 6.86325 33.3566L6.36449 33.3919C6.36858 33.4497 6.38118 33.5816 6.48011 33.6806L6.83366 33.327ZM7.89478 34.436C7.50515 34.133 7.16183 33.7892 6.86169 33.3604L6.45208 33.6472C6.78451 34.1221 7.16413 34.5012 7.58781 34.8307L7.89478 34.436ZM8.22795 34.7177C8.11249 34.6149 8.0028 34.517 7.89129 34.4334L7.59129 34.8334C7.68273 34.902 7.77598 34.9848 7.89545 35.0911L8.22795 34.7177ZM8.21986 34.7108L8.21979 34.7108L7.9036 35.0981L7.90367 35.0981L8.21986 34.7108ZM8.53391 34.9835C8.41857 34.8874 8.31988 34.7996 8.22802 34.7178L7.89552 35.0912C7.98713 35.1728 8.09143 35.2656 8.21382 35.3676L8.53391 34.9835ZM11.3061 36.6638C10.2906 36.2714 9.35796 35.7249 8.54111 34.9898L8.20663 35.3614C9.07358 36.1417 10.0601 36.7184 11.1259 37.1302L11.3061 36.6638ZM11.4815 36.7498C11.4457 36.7521 11.411 36.7383 11.3922 36.7197L11.0397 37.0743C11.1711 37.2049 11.3513 37.2593 11.5139 37.2487L11.4815 36.7498ZM11.5274 36.7496C11.5225 36.7499 11.5174 36.75 11.512 36.7497L11.4834 37.2489C11.5099 37.2504 11.5365 37.2502 11.5631 37.2483L11.5274 36.7496ZM11.6227 36.7351C11.6138 36.7428 11.6005 36.752 11.5614 36.7495L11.5291 37.2484C11.6818 37.2583 11.8291 37.2177 11.9498 37.1133L11.6227 36.7351ZM12.039 36.5543C11.9264 36.6016 11.8126 36.647 11.6978 36.6904L11.8746 37.1581C11.995 37.1126 12.1144 37.065 12.2327 37.0153L12.039 36.5543ZM14.4872 35.0351C13.7555 35.6936 12.9327 36.1992 12.0436 36.5524L12.2282 37.0171C13.1718 36.6423 14.0455 36.1053 14.8217 35.4068L14.4872 35.0351ZM14.6585 34.8927C14.6063 34.9359 14.5514 34.9814 14.4944 35.0289L14.8145 35.413C14.8707 35.3662 14.925 35.3213 14.9772 35.278L14.6585 34.8927ZM15.1102 34.5019C15.0134 34.5988 14.8607 34.7255 14.6585 34.8927L14.9772 35.278C15.1712 35.1176 15.3462 34.9731 15.4638 34.8555L15.1102 34.5019ZM15.6267 34.015C15.4678 34.1757 15.2994 34.3332 15.1209 34.4919L15.4531 34.8656C15.6376 34.7016 15.8141 34.5366 15.9822 34.3666L15.6267 34.015ZM16.1396 33.4505C15.9813 33.6456 15.8109 33.8314 15.6279 34.0137L15.9809 34.3678C16.1742 34.1752 16.3567 33.9764 16.5278 33.7656L16.1396 33.4505ZM16.2539 33.3652C16.2542 33.3646 16.2533 33.3663 16.2495 33.3693C16.2457 33.3723 16.2398 33.3762 16.2315 33.3799L16.436 33.8362C16.5228 33.7973 16.6088 33.7342 16.6699 33.6425L16.2539 33.3652ZM17.123 32.2208C16.8107 32.6223 16.3508 33.2198 16.2539 33.3652L16.6699 33.6425C16.7537 33.5168 17.1975 32.9395 17.5177 32.5277L17.123 32.2208ZM19.0397 29.0543C19.0397 29.0543 19.0384 29.0569 19.0347 29.0638C19.0314 29.0701 19.0269 29.0784 19.0212 29.0889C19.0099 29.1098 18.9943 29.1383 18.9749 29.1736C18.9362 29.2441 18.8824 29.3411 18.817 29.4579C18.6861 29.6915 18.5089 30.0036 18.3122 30.3408C17.9164 31.0192 17.4491 31.7859 17.1204 32.2243L17.5204 32.5243C18.211 31.6034 19.4375 29.3763 19.4866 29.2785L19.0397 29.0543ZM20.0716 26.8563C19.9611 27.1215 19.7149 27.6589 19.4888 28.1392C19.3762 28.3786 19.2695 28.6018 19.1883 28.7676C19.1477 28.8507 19.114 28.9182 19.0895 28.9657C19.0771 28.9897 19.0679 29.0068 19.0619 29.0176C19.0587 29.0232 19.0576 29.025 19.058 29.0244C19.0581 29.0241 19.0598 29.0214 19.0627 29.0174C19.0642 29.0154 19.0725 29.0036 19.086 28.99L19.4403 29.3429C19.464 29.3191 19.4795 29.2933 19.481 29.2909C19.487 29.2814 19.4928 29.2714 19.4978 29.2625C19.5081 29.2442 19.5203 29.2211 19.5337 29.1952C19.5607 29.143 19.5962 29.0717 19.6374 28.9874C19.7201 28.8185 19.828 28.5928 19.9413 28.3521C20.167 27.8724 20.4178 27.3255 20.5331 27.0486L20.0716 26.8563ZM20.7959 24.8804C20.587 25.4904 20.2553 26.4578 20.0754 26.8477L20.5294 27.0572C20.723 26.6375 21.0653 25.637 21.269 25.0423L20.7959 24.8804ZM20.7991 24.8715L20.7991 24.8716L21.2658 25.0511L21.2658 25.051L20.7991 24.8715ZM20.7953 24.8822L20.7953 24.8822L21.2696 25.0403L21.2697 25.0403L20.7953 24.8822ZM20.7954 24.882L20.7953 24.8822L21.2697 25.0403L21.2697 25.0402L20.7954 24.882ZM20.9824 24.3555C20.9712 24.378 20.9592 24.4106 20.9513 24.4322C20.941 24.4604 20.928 24.4972 20.9129 24.5405C20.8826 24.6273 20.8424 24.7445 20.796 24.8801L21.269 25.0421C21.3157 24.906 21.3553 24.7904 21.385 24.7052C21.3998 24.6626 21.4119 24.6286 21.4209 24.6041C21.4323 24.5729 21.4339 24.5707 21.4297 24.5791L20.9824 24.3555ZM20.9551 24.3895C20.956 24.4157 20.9561 24.4411 20.9561 24.4673H21.4561C21.4561 24.4419 21.4561 24.4085 21.4549 24.3726L20.9551 24.3895ZM20.9639 24.3149L20.9628 24.3189L21.4472 24.4432L21.4482 24.4391L20.9639 24.3149ZM21.0341 23.9627C21.0123 24.0677 20.9939 24.1561 20.981 24.2198C20.9746 24.2516 20.9693 24.2783 20.9655 24.2984C20.9637 24.3083 20.9619 24.318 20.9606 24.3266C20.9599 24.3307 20.9591 24.3362 20.9583 24.3419C20.958 24.3444 20.9561 24.3592 20.9561 24.377H21.4561C21.4561 24.3869 21.4554 24.3944 21.4552 24.3971C21.4549 24.4006 21.4546 24.4031 21.4544 24.4042C21.4542 24.4065 21.454 24.4074 21.4542 24.4061C21.4546 24.4037 21.4555 24.3987 21.457 24.3904C21.4601 24.374 21.4648 24.3502 21.4711 24.319C21.4837 24.2568 21.5017 24.1699 21.5236 24.0643L21.0341 23.9627ZM21.0344 23.9612L21.0343 23.9615L21.5234 24.0655L21.5235 24.0652L21.0344 23.9612ZM21.4098 21.9512C21.3467 22.4565 21.1456 23.4255 21.0341 23.9624L21.5237 24.0641C21.6331 23.5371 21.8397 22.5436 21.906 22.0132L21.4098 21.9512ZM21.7848 19.2407C21.7021 19.8325 21.4829 21.4028 21.4101 21.9492L21.9057 22.0153C21.9783 21.4709 22.1971 19.9026 22.28 19.3099L21.7848 19.2407ZM21.8548 19.0896L21.8226 19.1393L22.2422 19.4112L22.2744 19.3615L21.8548 19.0896ZM21.8566 18.9576C21.88 18.9927 21.8824 19.013 21.8824 19.0222C21.8824 19.0314 21.88 19.0518 21.8566 19.0869L22.2726 19.3642C22.3396 19.2638 22.3824 19.1486 22.3824 19.0222C22.3824 18.8959 22.3396 18.7807 22.2726 18.6802L21.8566 18.9576ZM21.7798 18.838L21.8542 18.954L22.275 18.6838L22.2005 18.5679L21.7798 18.838ZM21.3648 16.0032C21.4387 16.5943 21.6623 18.173 21.7426 18.7382L22.2376 18.6678C22.157 18.1003 21.9341 16.5269 21.8609 15.9412L21.3648 16.0032ZM20.9891 13.9921C21.1006 14.5289 21.3016 15.498 21.3648 16.0032L21.8609 15.9412C21.7946 15.4109 21.5881 14.4173 21.4787 13.8904L20.9891 13.9921ZM20.9583 13.8432L20.9891 13.992L21.4787 13.8905L21.4478 13.7417L20.9583 13.8432ZM20.9824 13.644C20.9826 13.6444 20.9836 13.6464 20.9844 13.6499C20.9852 13.6533 20.9857 13.6571 20.9857 13.6608C20.9858 13.6645 20.9854 13.6674 20.9849 13.6693C20.9847 13.6702 20.9845 13.6708 20.9843 13.6712C20.9843 13.6714 20.9842 13.6715 20.9842 13.6716C20.9841 13.6717 20.9841 13.6717 20.9841 13.6717L21.422 13.9132C21.5137 13.7468 21.4976 13.5563 21.4297 13.4204L20.9824 13.644ZM20.679 12.8117C20.7547 13.0301 20.823 13.2272 20.8748 13.3721C20.9007 13.4443 20.9231 13.5056 20.9408 13.5509C20.9494 13.5732 20.958 13.5944 20.9659 13.6121C20.9698 13.6206 20.9749 13.6316 20.9808 13.6427C20.9821 13.6452 20.9988 13.6785 21.0293 13.709L21.3828 13.3554C21.4005 13.3731 21.4109 13.3891 21.4138 13.3935C21.418 13.4001 21.4207 13.405 21.4217 13.4069C21.4237 13.4106 21.4241 13.4117 21.4225 13.4082C21.4195 13.4015 21.4144 13.3892 21.4067 13.3695C21.3917 13.3309 21.3711 13.2749 21.3456 13.2037C21.2948 13.0616 21.2274 12.8673 21.1514 12.648L20.679 12.8117ZM20.6796 12.8135L20.6797 12.8136L21.1508 12.6461L21.1507 12.646L20.6796 12.8135ZM20.678 12.8087L20.678 12.8088L21.1523 12.6507L21.1523 12.6506L20.678 12.8087ZM20.6726 12.7902L20.6726 12.7903L21.1577 12.669L21.1577 12.669L20.6726 12.7902ZM20.679 12.8116L20.6791 12.8119L21.1512 12.6473L21.1511 12.647L20.679 12.8116ZM20.0726 11.1456C20.2226 11.4956 20.4761 12.2263 20.6788 12.8112L21.1512 12.6474C20.9519 12.0724 20.6911 11.3195 20.5322 10.9486L20.0726 11.1456ZM19.0864 9.00988C19.0727 8.99616 19.0642 8.98427 19.0627 8.98219C19.0598 8.97817 19.0582 8.97548 19.058 8.97519C19.0576 8.97454 19.0587 8.97634 19.0618 8.98192C19.0679 8.9927 19.077 9.00978 19.0894 9.03375C19.1139 9.08121 19.1476 9.14867 19.1883 9.23176C19.2694 9.39753 19.3761 9.62079 19.4888 9.86017C19.7148 10.3405 19.9611 10.878 20.0716 11.1433L20.5331 10.9509C20.4177 10.674 20.167 10.1271 19.9412 9.64727C19.8279 9.40657 19.72 9.18082 19.6374 9.01195C19.5961 8.92771 19.5606 8.85645 19.5336 8.80419C19.5202 8.7783 19.508 8.75526 19.4977 8.73699C19.4927 8.72804 19.4869 8.71807 19.481 8.70859C19.4795 8.70624 19.4638 8.68024 19.4399 8.65632L19.0864 9.00988ZM18.9731 8.85488C18.9874 8.86516 19.0122 8.89026 19.0395 8.9449L19.4868 8.72129C19.4352 8.61811 19.3638 8.51983 19.2647 8.44871L18.9731 8.85488ZM17.0752 5.7758C17.6354 6.52281 18.5868 8.20569 18.9001 8.77271L19.3377 8.53089C19.0292 7.97253 18.0605 6.25622 17.4752 5.4758L17.0752 5.7758ZM18.3873 28.5881L14.4995 31.1189L14.7722 31.538L18.6601 29.0072L18.3873 28.5881ZM18.0883 26.1875L18.2743 28.8153L18.7731 28.78L18.587 26.1522L18.0883 26.1875ZM17.9752 24.7171L18.0884 26.189L18.5869 26.1507L18.4737 24.6788L17.9752 24.7171ZM17.8181 25.3677L18.3856 24.8891L18.0633 24.5069L17.4958 24.9855L17.8181 25.3677ZM15.3441 27.4779L17.8192 25.3668L17.4947 24.9864L15.0197 27.0974L15.3441 27.4779ZM14.8836 31.3619L15.4296 27.3211L14.9341 27.2542L14.3881 31.295L14.8836 31.3619ZM2.81548 24.8498L2.86929 24.8401L2.7807 24.348L2.7269 24.3577L2.81548 24.8498ZM3.72229 26.5345C3.54788 26.1421 3.1902 25.1153 3.01013 24.5302L2.53225 24.6773C2.71385 25.2673 3.07852 26.3172 3.26538 26.7376L3.72229 26.5345ZM3.90559 26.9575C3.83443 26.7855 3.77012 26.6296 3.71744 26.5243L3.27023 26.7479C3.3129 26.8332 3.36908 26.9686 3.44356 27.1487L3.90559 26.9575ZM4.12894 27.4834C4.04505 27.2947 3.97091 27.1154 3.90559 26.9575L3.44356 27.1487C3.50868 27.3061 3.58515 27.491 3.67204 27.6865L4.12894 27.4834ZM3.70705 26.9051L3.65138 27.5639L4.1496 27.606L4.20528 26.9472L3.70705 26.9051ZM3.88686 24.3649L3.70679 26.9085L4.20554 26.9438L4.38562 24.4003L3.88686 24.3649ZM2.8648 24.8409L4.17605 24.6294L4.09643 24.1358L2.78519 24.3473L2.8648 24.8409ZM1.78803 20.8529C1.82202 21.0629 1.84878 21.2671 1.87228 21.4467L2.36805 21.3818C2.34465 21.203 2.31699 20.9916 2.28161 20.773L1.78803 20.8529ZM4.10959 23.5168L2.24379 20.6757L1.82585 20.9502L3.69166 23.7913L4.10959 23.5168ZM2.58621 24.1266L3.94172 23.9006L3.85953 23.4074L2.50401 23.6334L2.58621 24.1266ZM1.93772 21.8917C2.02826 22.3896 2.20854 23.3812 2.29851 23.9211L2.79171 23.8389C2.70098 23.2945 2.51989 22.2985 2.42966 21.8022L1.93772 21.8917ZM1.93777 21.8919L1.93779 21.892L2.42959 21.8019L2.42957 21.8018L1.93777 21.8919ZM1.9376 21.891L1.93761 21.8911L2.42973 21.8027L2.42972 21.8026L1.9376 21.891ZM1.93756 21.8908L1.93757 21.8909L2.42974 21.8027L2.42972 21.8026L1.93756 21.8908ZM1.87228 21.4467C1.89546 21.6238 1.91655 21.786 1.9385 21.8957L2.42879 21.7977C2.41098 21.7086 2.39232 21.5672 2.36805 21.3818L1.87228 21.4467ZM20.6112 21.0083L18.9824 23.5213L19.402 23.7932L21.0308 21.2803L20.6112 21.0083ZM20.8296 20.6757L20.612 21.0071L21.0299 21.2815L21.2476 20.9502L20.8296 20.6757ZM21.2011 21.4467C21.2246 21.2671 21.2514 21.0629 21.2854 20.8529L20.7918 20.773C20.7564 20.9916 20.7288 21.203 20.7054 21.3818L21.2011 21.4467ZM21.2013 21.4453L21.2013 21.4452L20.7052 21.3832L20.7052 21.3833L21.2013 21.4453ZM21.2019 21.4406L21.2019 21.4404L20.7046 21.3881L20.7046 21.3882L21.2019 21.4406ZM21.2013 21.4455L21.2013 21.4454L20.7052 21.3834L20.7051 21.3835L21.2013 21.4455ZM21.2008 21.4491L21.2008 21.4489L20.7056 21.3801L20.7056 21.3803L21.2008 21.4491ZM21.1349 21.8957C21.1568 21.7861 21.1779 21.6241 21.2011 21.4472L20.7053 21.3823C20.6811 21.5674 20.6624 21.7087 20.6446 21.7977L21.1349 21.8957ZM20.9053 23.2415C20.9991 22.776 21.1081 22.2368 21.1389 21.8674L20.6406 21.8259C20.6128 22.1595 20.5114 22.6649 20.4151 23.1428L20.9053 23.2415ZM20.7749 23.9211C20.8058 23.7354 20.8534 23.499 20.9053 23.2415L20.4151 23.1428C20.3639 23.3973 20.3143 23.643 20.2817 23.8389L20.7749 23.9211ZM19.1511 23.9039L20.4872 24.1266L20.5694 23.6334L19.2333 23.4107L19.1511 23.9039ZM18.4027 15.0663L21.0235 19.1474L21.4442 18.8772L18.8234 14.7961L18.4027 15.0663ZM17.9895 17.1286L18.8446 15.0254L18.3814 14.8371L17.5263 16.9402L17.9895 17.1286ZM17.1955 19.1043L17.9899 17.1276L17.5259 16.9412L16.7315 18.9179L17.1955 19.1043ZM18.8509 22.9894L17.1951 18.917L16.7319 19.1053L18.3877 23.1777L18.8509 22.9894ZM21.0235 18.8772L18.409 22.9484L18.8297 23.2186L21.4442 19.1474L21.0235 18.8772ZM18.9071 24.6238L19.8234 24.7716L19.903 24.2779L18.9867 24.1301L18.9071 24.6238ZM19.4222 27.5674L19.1962 24.3594L18.6975 24.3945L18.9234 27.6026L19.4222 27.5674ZM19.3343 26.5871C19.3176 26.6706 19.2714 26.7956 19.1988 26.9575C19.128 27.1155 19.0401 27.2913 18.9492 27.4732L19.3964 27.6968C19.4862 27.5173 19.5791 27.3316 19.6551 27.162C19.7293 26.9963 19.7961 26.8276 19.8246 26.6852L19.3343 26.5871ZM20.106 24.5378C19.9233 25.1302 19.5711 26.1364 19.3609 26.5147L19.798 26.7576C20.0374 26.3265 20.4033 25.2705 20.5838 24.6851L20.106 24.5378ZM19.8189 24.7708L20.3006 24.8575L20.3892 24.3654L19.9075 24.2787L19.8189 24.7708ZM7.53263 13.9897L7.97267 11.97L7.48413 11.8636L7.04409 13.8832L7.53263 13.9897ZM6.67999 17.8119L7.53236 13.9909L7.04436 13.882L6.19199 17.703L6.67999 17.8119ZM5.71396 16.6366L6.20417 17.851L6.66782 17.6638L6.17761 16.4495L5.71396 16.6366ZM4.79761 14.3015L5.71306 16.6344L6.17851 16.4517L5.26306 14.1188L4.79761 14.3015ZM7.56649 11.7263L4.86842 14.0197L5.19225 14.4006L7.89032 12.1073L7.56649 11.7263ZM11.982 7.4615L14.0651 9.834L14.4409 9.5041L12.3577 7.1316L11.982 7.4615ZM13.7106 6.26896L12.0605 7.07174L12.2792 7.52136L13.9294 6.71857L13.7106 6.26896ZM14.5007 9.63527L14.0677 6.45999L13.5723 6.52754L14.0053 9.70282L14.5007 9.63527ZM14.9535 10.8426C14.9558 10.8453 14.9551 10.8448 14.9533 10.8418C14.9514 10.8384 14.9493 10.8337 14.9479 10.8285L15.4301 10.6962C15.4088 10.6188 15.3707 10.5619 15.3365 10.5212L14.9535 10.8426ZM14.3644 6.71868L14.8972 10.7149L15.3928 10.6488L14.86 6.65259L14.3644 6.71868ZM18.6581 9.02097L14.7486 6.47611L14.4758 6.89516L18.3853 9.44001L18.6581 9.02097ZM18.4815 13.338L18.771 9.24815L18.2723 9.21284L17.9827 13.3027L18.4815 13.338ZM15.0281 10.9537L18.0713 13.5117L18.393 13.129L15.3498 10.571L15.0281 10.9537ZM15.1914 11.9726L16.4546 17.7703L16.9432 17.6639L15.68 11.8662L15.1914 11.9726ZM16.0375 12.1007L15.5971 11.7284L15.2743 12.1103L15.7148 12.4826L16.0375 12.1007ZM18.2812 14.0079L16.0381 12.1012L15.7142 12.4822L17.9574 14.3888L18.2812 14.0079ZM16.9307 17.8107L18.3511 14.2919L17.8875 14.1048L16.4671 17.6235L16.9307 17.8107ZM18.3574 23.7213L16.9291 20.1952L16.4657 20.383L17.8939 23.909L18.3574 23.7213ZM15.5885 26.3144L18.2882 24.0051L17.9631 23.6251L15.2635 25.9345L15.5885 26.3144ZM16.4531 20.2359L15.1817 26.0712L15.6703 26.1777L16.9417 20.3423L16.4531 20.2359ZM14.0724 28.157L11.9818 30.538L12.3575 30.8679L14.4482 28.4869L14.0724 28.157ZM14.0735 31.5424L14.508 28.3557L14.0126 28.2881L13.578 31.4748L14.0735 31.5424ZM12.0603 30.9278L13.7164 31.7334L13.9351 31.2838L12.279 30.4781L12.0603 30.9278ZM14.6174 10.9289L14.5924 10.8999L14.2142 11.227L14.2393 11.256L14.6174 10.9289ZM16.3896 18.9466L14.6727 11.0394L14.184 11.1455L15.901 19.0527L16.3896 18.9466ZM14.6727 26.9598L16.3896 19.0527L15.901 18.9466L14.184 26.8537L14.6727 26.9598ZM11.7494 30.3865L14.6174 27.0703L14.2393 26.7433L11.3712 30.0594L11.7494 30.3865ZM8.46279 27.0337L11.3715 30.3868L11.7492 30.0591L8.84049 26.7061L8.46279 27.0337ZM7.88355 24.5791L8.40766 26.9244L8.89562 26.8154L8.37152 24.47L7.88355 24.5791ZM6.68354 19.0527L7.88323 24.5776L8.37184 24.4715L7.17215 18.9466L6.68354 19.0527ZM8.39663 11.0573L6.68354 18.9466L7.17215 19.0527L8.88524 11.1634L8.39663 11.0573ZM8.43925 10.9627L8.4397 10.962L8.84218 11.2587C8.86223 11.2315 8.87906 11.2028 8.8928 11.1732L8.43925 10.9627ZM11.3258 7.61041L8.47693 10.9044L8.85511 11.2315L11.704 7.93748L11.3258 7.61041ZM14.5911 10.8985L11.7028 7.60899L11.327 7.93889L14.2154 11.2284L14.5911 10.8985ZM21.2568 17.0983L19.396 14.2009L18.9753 14.4711L20.8361 17.3685L21.2568 17.0983ZM20.7055 16.6179C20.7306 16.8096 20.7606 17.0389 20.7998 17.2745L21.293 17.1924C21.2555 16.9666 21.2265 16.7456 21.2013 16.553L20.7055 16.6179ZM20.7034 16.5854V16.5854H21.2034V16.5854H20.7034ZM20.7056 16.6184L20.7056 16.6185L21.2012 16.5524L21.2012 16.5523L20.7056 16.6184ZM20.7051 16.6145L20.7051 16.6146L21.2017 16.5562L21.2017 16.5561L20.7051 16.6145ZM20.7063 16.6233L20.7063 16.6233L21.2005 16.5473L21.2005 16.5472L20.7063 16.6233ZM20.6448 16.202C20.6626 16.291 20.6812 16.4324 20.7055 16.6177L21.2013 16.5528C21.1781 16.3758 21.157 16.2136 21.1351 16.1039L20.6448 16.202ZM20.2407 14.1803C20.3738 14.7127 20.5529 15.697 20.644 16.1977L21.1359 16.1082C21.0462 15.6149 20.8638 14.6111 20.7258 14.0591L20.2407 14.1803ZM19.2283 14.5823L20.5244 14.3663L20.4422 13.8731L19.1461 14.0891L19.2283 14.5823ZM19.23 14.582L19.2315 14.5817L19.1429 14.0897L19.1413 14.0899L19.23 14.582ZM11.8316 31.6493L13.4772 32.4721L13.7008 32.0249L12.0552 31.2021L11.8316 31.6493ZM12.1934 35.1066V31.4257H11.6934V35.1066H12.1934ZM13.3723 32.1238L11.7268 34.9818L12.1601 35.2313L13.8056 32.3733L13.3723 32.1238ZM9.6719 32.4902L11.2825 31.7259L11.0681 31.2741L9.45753 32.0385L9.6719 32.4902ZM11.3919 34.9369L9.78137 32.1396L9.34806 32.3891L10.9586 35.1864L11.3919 34.9369ZM10.9253 31.5V35.0616H11.4253V31.5H10.9253ZM14.0863 34.3974C13.5284 34.8694 12.9769 35.2529 12.3496 35.5532L12.5655 36.0042C13.2414 35.6806 13.8285 35.2704 14.4092 34.779L14.0863 34.3974ZM14.3931 34.1309C14.3013 34.2125 14.2028 34.3002 14.0877 34.3961L14.4078 34.7803C14.53 34.6785 14.6341 34.5858 14.7255 34.5043L14.3931 34.1309ZM14.3943 34.1298L14.3939 34.1301L14.7247 34.5051L14.7251 34.5047L14.3943 34.1298ZM14.3908 34.1329L14.3906 34.1331L14.7288 34.5014L14.7289 34.5013L14.3908 34.1329ZM14.7303 33.846C14.6188 33.9296 14.5091 34.0276 14.3936 34.1304L14.7261 34.5038C14.8456 34.3974 14.9389 34.3146 15.0303 34.246L14.7303 33.846ZM15.4111 33.2083C15.1938 33.4691 14.9854 33.6755 14.7417 33.838L15.019 34.254C15.3174 34.0551 15.5608 33.8097 15.7952 33.5284L15.4111 33.2083ZM15.7296 33.1527L15.7225 33.1485L15.4696 33.5798L15.4768 33.584L15.7296 33.1527ZM14.1586 32.837L15.4728 33.5816L15.7193 33.1466L14.4051 32.402L14.1586 32.837ZM14.0654 32.4944L12.241 35.6537L12.674 35.9037L14.4984 32.7445L14.0654 32.4944ZM7.35174 32.3649L6.93357 32.5972L7.1764 33.0343L7.59457 32.8019L7.35174 32.3649ZM8.15613 31.8881L7.3457 32.3683L7.60061 32.7985L8.41103 32.3182L8.15613 31.8881ZM5.12123 30.3706L8.14855 32.3135L8.41861 31.8928L5.39129 29.9499L5.12123 30.3706ZM5.9456 30.8118C5.79163 30.5521 5.62937 30.2783 5.46656 30.0251L5.04597 30.2954C5.20302 30.5397 5.36061 30.8055 5.51551 31.0667L5.9456 30.8118ZM5.94586 30.8122L5.94578 30.8121L5.51532 31.0664L5.5154 31.0666L5.94586 30.8122ZM5.94659 30.8134L5.94657 30.8134L5.51468 31.0653L5.5147 31.0654L5.94659 30.8134ZM6.5832 31.8141C6.40331 31.5828 6.18733 31.2195 5.94569 30.8119L5.5156 31.0669C5.75038 31.4629 5.98466 31.859 6.18852 32.1211L6.5832 31.8141ZM6.81583 32.1114C6.73086 32.0019 6.64978 31.8973 6.58108 31.8114L6.19064 32.1238C6.2565 32.2061 6.33504 32.3073 6.42075 32.4178L6.81583 32.1114ZM7.2473 32.656C7.11085 32.4917 6.95747 32.294 6.81583 32.1114L6.42075 32.4178C6.56108 32.5988 6.71985 32.8035 6.86267 32.9755L7.2473 32.656ZM8.49356 32.5315L7.43413 33.1526L7.68699 33.5839L8.74642 32.9629L8.49356 32.5315ZM8.6943 32.4155L8.49492 32.5307L8.74506 32.9637L8.94444 32.8485L8.6943 32.4155ZM10.8336 35.6293L9.03602 32.5073L8.60271 32.7567L10.4002 35.8788L10.8336 35.6293ZM8.74714 34.7725C9.27842 35.2595 9.89 35.6601 10.5022 35.9762L10.7316 35.5319C10.1502 35.2318 9.57726 34.8551 9.085 34.4039L8.74714 34.7725ZM8.43772 34.5038C8.52933 34.5854 8.63363 34.6783 8.75603 34.7803L9.07612 34.3961C8.96078 34.3 8.86209 34.2122 8.77022 34.1304L8.43772 34.5038ZM8.44581 34.5107L8.44588 34.5108L8.76207 34.1234L8.762 34.1234L8.44581 34.5107ZM8.1335 34.246C8.22493 34.3146 8.31819 34.3974 8.43765 34.5037L8.77015 34.1303C8.65469 34.0275 8.54501 33.9296 8.4335 33.846L8.1335 34.246ZM7.54763 33.7143C7.71593 33.8909 7.91344 34.0998 8.14483 34.254L8.42217 33.838C8.24525 33.72 8.0857 33.5542 7.9096 33.3694L7.54763 33.7143ZM7.38379 33.545C7.43707 33.5983 7.49077 33.6546 7.54763 33.7143L7.9096 33.3694C7.85352 33.3105 7.79563 33.2498 7.73733 33.1915L7.38379 33.545ZM4.80303 28.7925L5.13226 24.6953L4.63387 24.6553L4.30463 28.7524L4.80303 28.7925ZM8.64372 31.0788L4.68805 28.5615L4.41961 28.9833L8.37528 31.5006L8.64372 31.0788ZM7.72926 27.3295L8.26169 31.3227L8.7573 31.2566L8.22487 27.2634L7.72926 27.3295ZM5.5906 25.584L7.81456 27.4864L8.13958 27.1065L5.91562 25.2041L5.5906 25.584ZM4.72384 24.868L5.59389 25.5868L5.91233 25.2013L5.04228 24.4826L4.72384 24.868ZM4.83525 23.9996L7.52092 26.2646L7.84327 25.8824L5.1576 23.6174L4.83525 23.9996ZM4.9743 23.1954L4.7646 23.7149L5.22825 23.902L5.43795 23.3826L4.9743 23.1954ZM6.19932 20.1711L4.97441 23.1951L5.43783 23.3829L6.66275 20.3589L6.19932 20.1711ZM7.92649 26.0208L6.67543 20.2124L6.18664 20.3176L7.4377 26.1261L7.92649 26.0208ZM4.24847 14.9951L5.91867 19.0947L6.38171 18.906L4.71152 14.8065L4.24847 14.9951ZM2.07822 19.1342L4.69081 15.0352L4.26917 14.7664L1.65658 18.8655L2.07822 19.1342ZM4.69888 22.9772L2.07822 18.8655L1.65658 19.1342L4.27724 23.2459L4.69888 22.9772ZM4.61199 22.143L4.25647 23.0174L4.71965 23.2057L5.07517 22.3313L4.61199 22.143ZM5.91837 18.9068L4.61176 22.1436L5.07541 22.3308L6.38202 19.0939L5.91837 18.9068ZM15.0755 6.18468L16.2358 5.49904L15.9814 5.06858L14.8211 5.75422L15.0755 6.18468ZM17.9976 7.62941L15.0833 5.75905L14.8133 6.17985L17.7275 8.05021L17.9976 7.62941ZM16.5356 6.18594C16.8388 6.57575 17.2816 7.32694 17.6455 7.96384L18.0796 7.71578C17.7206 7.08754 17.2597 6.30248 16.9303 5.87897L16.5356 6.18594ZM16.096 5.66651C16.2527 5.86238 16.4235 6.07654 16.5562 6.20924L16.9098 5.85568C16.8015 5.74739 16.651 5.55992 16.4864 5.35416L16.096 5.66651ZM16.0955 5.66598L16.0957 5.6662L16.4866 5.35446L16.4865 5.35423L16.0955 5.66598ZM15.9152 5.44219C15.9734 5.51331 16.034 5.58911 16.0958 5.66628L16.4862 5.35393C16.4248 5.27722 16.3624 5.19914 16.302 5.12544L15.9152 5.44219ZM20.6534 13.2928C20.466 12.6941 20.1229 11.7108 19.9434 11.307L19.4865 11.5101C19.6537 11.8863 19.9898 12.8468 20.1763 13.4422L20.6534 13.2928ZM19.0852 13.8608L20.4591 13.6135L20.3706 13.1214L18.9967 13.3687L19.0852 13.8608ZM19.0138 10.4422L18.7916 13.5972L19.2903 13.6324L19.5125 10.4773L19.0138 10.4422ZM19.9294 11.28C19.8016 11.067 19.6274 10.7192 19.4972 10.3719L19.0291 10.5475C19.17 10.9232 19.3573 11.2983 19.5006 11.5372L19.9294 11.28ZM8.71084 3.21963C8.58845 3.32162 8.48415 3.41451 8.39255 3.49607L8.72504 3.8695C8.81691 3.7877 8.9156 3.69985 9.03093 3.60374L8.71084 3.21963ZM10.6058 1.97113C9.91696 2.3385 9.26926 2.75428 8.71084 3.21963L9.03093 3.60374C9.55693 3.16541 10.1744 2.76788 10.8411 2.41231L10.6058 1.97113ZM9.08738 5.52479L10.9399 2.31674L10.5069 2.0667L8.65439 5.27475L9.08738 5.52479ZM7.39212 4.84915L8.74764 5.61728L8.99414 5.18226L7.63863 4.41414L7.39212 4.84915ZM8.09964 3.74588C7.80122 3.94482 7.55776 4.19027 7.32332 4.4716L7.70743 4.79169C7.92483 4.53082 8.13321 4.32443 8.37699 4.1619L8.09964 3.74588ZM8.39253 3.49609C8.27303 3.60249 8.17977 3.6853 8.08832 3.75389L8.38832 4.15389C8.49984 4.07025 8.60954 3.97234 8.72502 3.86952L8.39253 3.49609ZM8.39155 3.49697L8.39154 3.49698L8.72602 3.86863L8.72603 3.86861L8.39155 3.49697ZM8.38202 3.50601L8.38201 3.50601L8.73557 3.85957L8.73557 3.85956L8.38202 3.50601ZM8.37997 5.70861L7.19107 5.00408L6.93617 5.43422L8.12506 6.13876L8.37997 5.70861ZM5.40159 8.07777L8.3889 6.1332L8.11613 5.71416L5.12882 7.65873L5.40159 8.07777ZM6.18852 5.92416C5.86301 6.34267 5.40846 7.07045 5.04477 7.75033L5.48565 7.98617C5.84186 7.32027 6.28134 6.61923 6.5832 6.23113L6.18852 5.92416ZM6.86018 5.07385C6.6305 5.3954 6.41729 5.69266 6.20908 5.90087L6.56264 6.25442C6.80626 6.0108 7.04489 5.67548 7.26704 5.36447L6.86018 5.07385ZM6.86018 5.07384L6.86018 5.07385L7.26704 5.36447L7.26705 5.36446L6.86018 5.07384ZM4.22541 11.3364L4.1496 10.4393L3.65138 10.4814L3.72719 11.3785L4.22541 11.3364ZM4.38481 13.5875L4.22568 11.3398L3.72692 11.3751L3.88605 13.6228L4.38481 13.5875ZM2.75101 13.61L4.09114 13.8512L4.17972 13.3591L2.83959 13.1179L2.75101 13.61ZM3.26538 11.3077C3.08634 11.7106 2.74447 12.6902 2.55674 13.2892L3.03386 13.4387C3.22058 12.8429 3.55548 11.8861 3.72229 11.5108L3.26538 11.3077ZM3.67688 10.3486C3.58711 10.5281 3.49421 10.7139 3.4182 10.8834C3.34393 11.0491 3.27719 11.2178 3.24869 11.3602L3.73898 11.4583C3.75567 11.3748 3.80189 11.2498 3.87446 11.0879C3.9453 10.9299 4.03313 10.7541 4.12409 10.5722L3.67688 10.3486ZM3.66972 10.3642L3.66972 10.3642L4.13126 10.5566L4.13126 10.5565L3.66972 10.3642ZM2.65815 14.7754C2.70166 14.5594 2.7438 14.3503 2.7754 14.1731L2.28316 14.0853C2.25275 14.2559 2.21185 14.459 2.168 14.6767L2.65815 14.7754ZM2.43267 16.0923C2.46047 15.7587 2.56188 15.2533 2.65815 14.7754L2.168 14.6767C2.07422 15.1421 1.96518 15.6814 1.9344 16.0507L2.43267 16.0923ZM2.36794 16.5364C2.39221 16.351 2.41087 16.2096 2.42868 16.1205L1.93839 16.0225C1.91644 16.1322 1.89535 16.2944 1.87217 16.4715L2.36794 16.5364ZM2.36813 16.535L2.36813 16.5349L1.87199 16.4729L1.87199 16.4729L2.36813 16.535ZM2.24877 17.3362C2.30066 17.0508 2.33783 16.7664 2.36794 16.5364L1.87217 16.4715C1.84187 16.703 1.80617 16.9754 1.75683 17.2467L2.24877 17.3362ZM3.66626 14.2367L1.7924 17.1564L2.21319 17.4265L4.08705 14.5068L3.66626 14.2367ZM2.48499 14.3752L3.83237 14.6178L3.92094 14.1257L2.57357 13.8832L2.48499 14.3752ZM5.04753 13.4993L8.13855 10.8552L7.81353 10.4753L4.72251 13.1194L5.04753 13.4993ZM4.34228 9.21985L4.63566 13.3272L5.13439 13.2916L4.84101 9.18423L4.34228 9.21985ZM8.37359 6.45451L4.45573 8.99221L4.72756 9.41187L8.64541 6.87417L8.37359 6.45451ZM8.22385 10.6983L8.7573 6.69738L8.26169 6.6313L7.72824 10.6322L8.22385 10.6983ZM9.10814 9.73108L9.54135 6.52536L9.04585 6.4584L8.61265 9.66412L9.10814 9.73108ZM10.7609 7.13329L8.67182 9.53347L9.04897 9.86173L11.138 7.46155L10.7609 7.13329ZM9.18423 6.71669L10.8401 7.52223L11.0588 7.07261L9.40297 6.26707L9.18423 6.71669ZM10.8229 30.505L9.16485 31.3194L9.38531 31.7682L11.0433 30.9538L10.8229 30.505ZM8.63709 28.4722L10.7445 30.8935L11.1217 30.5652L9.01424 28.1439L8.63709 28.4722ZM9.5227 31.5094L9.07329 28.2737L8.57804 28.3425L9.02746 31.5782L9.5227 31.5094ZM15.0155 32.2684L18.0428 30.3255L17.7727 29.9047L14.7454 31.8476L15.0155 32.2684ZM16.2218 32.5172L15.0019 31.8394L14.759 32.2765L15.979 32.9543L16.2218 32.5172ZM16.3482 32.0211C16.2036 32.2075 16.0468 32.4095 15.9084 32.5757L16.2925 32.8958C16.4376 32.7216 16.6001 32.5121 16.7432 32.3275L16.3482 32.0211ZM16.3457 32.0243L16.3457 32.0243L16.7457 32.3243L16.7457 32.3243L16.3457 32.0243ZM16.3458 32.0242L16.3457 32.0243L16.7457 32.3243L16.7458 32.3242L16.3458 32.0242ZM16.5829 31.7211C16.5142 31.8069 16.4332 31.9115 16.3482 32.021L16.7433 32.3275C16.829 32.217 16.9075 32.1157 16.9734 32.0334L16.5829 31.7211ZM17.6934 29.9864C17.2858 30.6658 16.8403 31.3777 16.5782 31.7272L16.9782 32.0272C17.2582 31.6538 17.7164 30.9198 18.1221 30.2437L17.6934 29.9864Z" fill="#2D6380"/>
</svg>
