<svg width="28" height="38" viewBox="0 0 28 38" fill="none" xmlns="http://www.w3.org/2000/svg">
<path fill-rule="evenodd" clip-rule="evenodd" d="M10.3149 5.61259L13.2293 1.90338C12.7776 1.99372 12.3259 2.08406 11.9194 2.21957C10.8299 2.56821 9.82446 3.04299 8.86258 3.64391L10.3149 5.61259ZM7.77797 3.57621C7.5468 3.76419 7.1936 4.05912 6.79303 4.43298C5.57346 5.56221 4.53457 6.91728 3.72153 8.40787C3.68407 8.46405 3.66991 8.52801 3.6726 8.59328L1.98656 13.392C1.97857 13.4089 1.97211 13.4269 1.96757 13.4461L1.96026 13.4669L1.96032 13.4982C1.96011 13.5028 1.96 13.5074 1.96 13.512L1.02766 18.8841C0.998133 18.9525 0.991427 19.0329 1.01151 19.1132L1.96006 24.5787C1.96006 24.6485 2.01409 24.7454 2.08036 24.8066L3.62792 29.4911C3.62412 29.5584 3.63799 29.6245 3.67656 29.6823C4.4896 31.1277 5.52849 32.4828 6.74806 33.6572C7.4256 34.2896 8.0128 34.7413 8.0128 34.7413C8.03184 34.7508 8.05088 34.7603 8.06991 34.7694C9.17302 35.5474 10.4023 36.1541 11.7166 36.5484C12.5296 36.8194 13.3427 37.0001 14.2009 37.0001C14.216 37.0001 14.2311 36.999 14.2461 36.9968C14.2611 36.999 14.2762 37.0001 14.2913 37.0001C15.1495 37.0001 15.9625 36.8194 16.7756 36.5484C18.0897 36.1541 19.3189 35.5475 20.4219 34.7696C20.4411 34.7605 20.4603 34.7509 20.4795 34.7413C20.4904 34.7304 20.53 34.6986 20.5935 34.6477C20.7935 34.4873 21.2298 34.1374 21.7442 33.6572C22.9291 32.5601 23.9435 31.2498 24.7459 29.8091C24.8635 29.7192 24.9302 29.5449 24.862 29.37L26.4493 24.7337C26.4973 24.6844 26.5321 24.6177 26.5321 24.5335L27.4482 19.299C27.5257 19.2187 27.5561 19.0979 27.5259 18.977L26.6015 13.6508C26.6141 13.586 26.6031 13.519 26.5771 13.4669L24.8606 8.45311C24.7989 8.32952 24.7159 8.24821 24.6119 8.20916C23.8165 6.8382 22.8174 5.55326 21.6538 4.43278C21.2378 4.04449 20.8558 3.72433 20.6229 3.53502C20.6075 3.44756 20.5626 3.36602 20.4794 3.30363C19.3502 2.49058 18.0855 1.85821 16.7304 1.45169C15.9174 1.18068 15.1043 1 14.2461 1C14.2271 1 14.2082 1.00177 14.1894 1.00519C14.1706 1.00177 14.1516 1 14.1326 1C13.2744 1 12.4614 1.18068 11.6483 1.45169C10.2933 1.85821 9.02853 2.49058 7.94447 3.30363C7.84835 3.37572 7.79058 3.47338 7.77797 3.57621ZM20.3715 33.8244L18.9324 31.8736L22.2333 30.71L23.5058 30.2695C22.8283 31.3084 22.0604 32.257 21.157 33.1152C20.8735 33.3988 20.5899 33.646 20.3715 33.8244ZM23.8603 29.2568L22.0602 23.9914L20.1543 25.6808C20.1389 25.7317 20.1059 25.7647 20.0728 25.7978L20.0715 25.799L19.2057 29.1634L18.7214 31.0683L23.8603 29.2568ZM18.1708 32.4238L15.285 36.0967C15.7367 36.0064 16.1432 35.916 16.5949 35.7805C17.6701 35.4365 18.6634 34.9695 19.6138 34.3798L18.1708 32.4238ZM25.6628 24.7909L23.0159 23.9501L24.4653 28.2058L25.6628 24.7909ZM26.4951 19.0251L22.5433 22.5294L21.6759 19.0219L22.5345 15.5129L26.4951 19.0251ZM19.3334 25.3156L20.8193 19.0226L19.3328 12.7271L16.5453 9.98932L14.2734 7.79253L9.18699 12.744L7.69669 19.0213V19.0237L8.61373 23.0071L9.13147 25.1999L14.2663 30.2498L18.4672 26.1604L19.3334 25.3156ZM21.8344 23.1329L20.456 24.3389L21.2594 20.8331L21.8344 23.1329ZM18.975 26.8596L15.2421 30.4701L17.9013 31.0576L18.0479 30.4888L18.975 26.8596ZM17.297 31.9025L14.6526 31.3183V35.2838L17.297 31.9025ZM5.96797 15.5558L6.81631 19.023L5.9759 22.4577L2.05054 19.023L5.96797 15.5558ZM4.62662 29.2316L6.39861 23.9911L8.43743 25.7795L9.77429 31.0378L4.62662 29.2316ZM6.68205 23.1325L7.23929 20.95L8.04069 24.3243L6.68205 23.1325ZM4.6307 22.4173L5.38334 23.0911L2.68277 23.9463L2.00523 20.1069L4.6307 22.4173ZM7.26912 17.2038L6.70359 14.9171L8.10304 13.6926L7.26912 17.2038ZM18.9222 11.1691L17.8146 6.87183L17.7615 6.88314L15.1246 7.46571L18.9222 11.1691ZM13.4126 7.46547L12.0711 7.16909L10.6778 6.87216L9.55539 11.2271L13.4126 7.46547ZM10.3846 32.3894L8.9109 34.3437C9.87882 34.9505 10.8906 35.4295 11.9876 35.7805C12.4393 35.916 12.8458 36.0064 13.2975 36.0967L10.3846 32.3894ZM4.98646 30.2244L9.57275 31.856L8.14157 33.7961C7.92055 33.6166 7.62791 33.3627 7.33526 33.07C6.43188 32.2118 5.664 31.2633 4.98646 30.2244ZM2.92472 24.7606L5.57729 23.918L4.12475 28.1829L2.92472 24.7606ZM18.8575 6.16677L20.3016 4.20923C20.5272 4.3899 20.8421 4.65996 21.1569 4.97481C22.0585 5.83128 22.8251 6.77772 23.5016 7.81413L22.0042 7.28629L18.8575 6.16677ZM19.5853 3.68738C18.6025 3.06584 17.575 2.57657 16.4594 2.21957C16.1147 2.10467 15.7375 2.02224 15.3829 1.94475C15.3193 1.93086 15.2565 1.91712 15.1947 1.90338L18.1379 5.64939L19.5853 3.68738ZM18.7945 7.0634L20.1562 12.3544L21.093 13.1762L22.1057 14.0539L23.8825 8.85699L18.7945 7.0634ZM8.16475 4.26671C7.94649 4.44497 7.66336 4.69188 7.38023 4.97501C6.47685 5.83322 5.70897 6.78178 5.03143 7.82067L9.59009 6.19884L8.16475 4.26671ZM23.1515 15.0029L25.8142 14.1258L26.487 17.9381L23.1515 15.0029ZM25.5834 13.2862L22.9588 14.1314L24.42 9.84104L25.5834 13.2862ZM20.438 13.7091L21.8762 14.9706L21.2923 17.3061L20.438 13.7091ZM6.43228 14.0241L8.40947 12.2898L9.75748 7.0133L4.65436 8.80387L6.43228 14.0241ZM12.0249 6.31627L13.8848 6.72718V2.58072L11.0843 6.10389L12.0249 6.31627ZM5.56684 14.1694L2.91073 13.3257L4.08321 9.85335L5.56684 14.1694ZM2.68138 14.1067L2.00517 17.9386L5.38403 14.9652L2.68138 14.1067ZM10.4588 30.3694L10.6313 31.0387L13.2915 30.451L9.5589 26.8471L10.4588 30.3694ZM13.8394 35.329L11.1342 31.9257L13.8394 31.328V35.329ZM14.6978 2.5809V6.69129L17.4531 6.10409L14.6978 2.5809ZM23.0993 23.0881L25.8094 23.9463L26.487 20.1069L23.0993 23.0881Z" fill="#2D6380"/>
<path d="M13.2293 1.90338L13.4258 2.05784L13.8441 1.52546L13.1802 1.65824L13.2293 1.90338ZM10.3149 5.61259L10.1137 5.761L10.3086 6.02522L10.5115 5.76705L10.3149 5.61259ZM11.9194 2.21957L11.9956 2.45769L11.9984 2.45674L11.9194 2.21957ZM8.86258 3.64391L8.73012 3.43188L8.50106 3.57498L8.6614 3.79232L8.86258 3.64391ZM6.79303 4.43298L6.96288 4.61642L6.96361 4.61574L6.79303 4.43298ZM7.77797 3.57621L7.9357 3.77018L8.01385 3.70663L8.02611 3.60665L7.77797 3.57621ZM3.72153 8.40787L3.92954 8.54654L3.93569 8.53732L3.941 8.52758L3.72153 8.40787ZM3.6726 8.59328L3.90847 8.67615L3.92437 8.6309L3.92239 8.58297L3.6726 8.59328ZM1.98656 13.392L2.21246 13.4991L2.21808 13.4873L2.22243 13.4749L1.98656 13.392ZM1.96757 13.4461L2.20343 13.5289L2.2078 13.5165L2.21083 13.5037L1.96757 13.4461ZM1.96026 13.4669L1.72439 13.384L1.71017 13.4245L1.71026 13.4674L1.96026 13.4669ZM1.96032 13.4982L2.21034 13.5097L2.21032 13.4977L1.96032 13.4982ZM1.96 13.512L2.20632 13.5548L2.21 13.5336V13.512H1.96ZM1.02766 18.8841L1.2572 18.9832L1.26892 18.956L1.27397 18.9269L1.02766 18.8841ZM1.01151 19.1132L1.25783 19.0704L1.25626 19.0614L1.25405 19.0526L1.01151 19.1132ZM1.96006 24.5787H2.21006V24.5571L2.20638 24.5359L1.96006 24.5787ZM2.08036 24.8066L2.31774 24.7282L2.29747 24.6668L2.24999 24.623L2.08036 24.8066ZM3.62792 29.4911L3.87752 29.5052L3.8802 29.4578L3.8653 29.4127L3.62792 29.4911ZM3.67656 29.6823L3.89445 29.5598L3.88982 29.5515L3.88457 29.5437L3.67656 29.6823ZM6.74806 33.6572L6.57463 33.8373L6.57748 33.84L6.74806 33.6572ZM8.0128 34.7413L7.86037 34.9394L7.87946 34.9541L7.90101 34.9649L8.0128 34.7413ZM8.06991 34.7694L8.214 34.5651L8.19675 34.5529L8.17771 34.5438L8.06991 34.7694ZM11.7166 36.5484L11.7957 36.3111L11.7884 36.3089L11.7166 36.5484ZM14.2461 36.9968L14.2819 36.7494L14.2461 36.7442L14.2102 36.7494L14.2461 36.9968ZM16.7756 36.5484L16.7037 36.3088L16.6965 36.3112L16.7756 36.5484ZM20.4219 34.7696L20.3142 34.544L20.2951 34.5531L20.2778 34.5653L20.4219 34.7696ZM20.4795 34.7413L20.5913 34.9649L20.6276 34.9467L20.6563 34.9181L20.4795 34.7413ZM20.5935 34.6477L20.7499 34.8428L20.5935 34.6477ZM21.7442 33.6572L21.5744 33.4738L21.5737 33.4745L21.7442 33.6572ZM24.7459 29.8091L24.5941 29.6105L24.5528 29.642L24.5275 29.6875L24.7459 29.8091ZM24.862 29.37L24.6255 29.2891L24.5959 29.3756L24.6291 29.4608L24.862 29.37ZM26.4493 24.7337L26.2702 24.5592L26.2309 24.5995L26.2127 24.6527L26.4493 24.7337ZM26.5321 24.5335L26.2859 24.4904L26.2821 24.5118V24.5335H26.5321ZM27.4482 19.299L27.2683 19.1254L27.2151 19.1805L27.2019 19.2559L27.4482 19.299ZM27.5259 18.977L27.2796 19.0198L27.2811 19.0288L27.2834 19.0377L27.5259 18.977ZM26.6015 13.6508L26.3561 13.603L26.3473 13.6482L26.3552 13.6936L26.6015 13.6508ZM26.5771 13.4669L26.3405 13.5479L26.346 13.5637L26.3535 13.5787L26.5771 13.4669ZM24.8606 8.45311L25.0972 8.37214L25.0917 8.35629L25.0843 8.34131L24.8606 8.45311ZM24.6119 8.20916L24.3956 8.33461L24.4404 8.41184L24.524 8.44322L24.6119 8.20916ZM21.6538 4.43278L21.8272 4.25268L21.8244 4.25001L21.6538 4.43278ZM20.6229 3.53502L20.3767 3.57838L20.3929 3.6702L20.4652 3.72901L20.6229 3.53502ZM20.4794 3.30363L20.6295 3.10359L20.6255 3.10074L20.4794 3.30363ZM16.7304 1.45169L16.6513 1.68897L16.6586 1.69115L16.7304 1.45169ZM14.1894 1.00519L14.1448 1.25118L14.1896 1.25929L14.2343 1.25113L14.1894 1.00519ZM11.6483 1.45169L11.7202 1.69126L11.7274 1.68886L11.6483 1.45169ZM7.94447 3.30363L7.79447 3.10363L7.94447 3.30363ZM18.9324 31.8736L18.8493 31.6379L18.5307 31.7502L18.7312 32.0221L18.9324 31.8736ZM20.3715 33.8244L20.1703 33.9728L20.3262 34.1841L20.5296 34.018L20.3715 33.8244ZM22.2333 30.71L22.1515 30.4738L22.1501 30.4743L22.2333 30.71ZM23.5058 30.2695L23.7152 30.4061L24.1142 29.7944L23.4241 30.0333L23.5058 30.2695ZM21.157 33.1152L20.9848 32.9339L20.9803 32.9384L21.157 33.1152ZM23.8603 29.2568L23.9434 29.4926L24.177 29.4102L24.0969 29.1759L23.8603 29.2568ZM22.0602 23.9914L22.2968 23.9106L22.1753 23.5553L21.8944 23.8044L22.0602 23.9914ZM20.1543 25.6808L19.9884 25.4937L19.9354 25.5407L19.9149 25.6086L20.1543 25.6808ZM20.0728 25.7978L20.2466 25.9776L20.2495 25.9746L20.0728 25.7978ZM20.0715 25.799L19.8978 25.6193L19.847 25.6683L19.8294 25.7367L20.0715 25.799ZM19.2057 29.1634L18.9636 29.1011L18.9634 29.1018L19.2057 29.1634ZM18.7214 31.0683L18.4791 31.0067L18.364 31.4594L18.8045 31.3041L18.7214 31.0683ZM15.285 36.0967L15.0884 35.9422L14.6701 36.4746L15.334 36.3418L15.285 36.0967ZM18.1708 32.4238L18.372 32.2754L18.1771 32.0112L17.9743 32.2693L18.1708 32.4238ZM16.5949 35.7805L16.6667 36.02L16.6711 36.0186L16.5949 35.7805ZM19.6138 34.3798L19.7456 34.5922L19.9758 34.4494L19.815 34.2314L19.6138 34.3798ZM23.0159 23.9501L23.0916 23.7118L22.6196 23.5619L22.7793 24.0307L23.0159 23.9501ZM25.6628 24.7909L25.8987 24.8736L25.9839 24.6306L25.7384 24.5526L25.6628 24.7909ZM24.4653 28.2058L24.2287 28.2864L24.4619 28.9711L24.7012 28.2885L24.4653 28.2058ZM22.5433 22.5294L22.3007 22.5894L22.3999 22.9907L22.7092 22.7165L22.5433 22.5294ZM26.4951 19.0251L26.6609 19.2121L26.8719 19.0251L26.6609 18.838L26.4951 19.0251ZM21.6759 19.0219L21.4331 18.9625L21.4185 19.0222L21.4332 19.0819L21.6759 19.0219ZM22.5345 15.5129L22.7004 15.3258L22.3902 15.0508L22.2917 15.4535L22.5345 15.5129ZM20.8193 19.0226L21.0626 19.08L21.0762 19.0226L21.0626 18.9651L20.8193 19.0226ZM19.3334 25.3156L19.508 25.4946L19.56 25.4438L19.5767 25.3731L19.3334 25.3156ZM19.3328 12.7271L19.5762 12.6696L19.5596 12.5993L19.508 12.5487L19.3328 12.7271ZM16.5453 9.98932L16.7205 9.81095L16.7191 9.8096L16.5453 9.98932ZM14.2734 7.79253L14.4472 7.61281L14.2729 7.44421L14.0991 7.61339L14.2734 7.79253ZM9.18699 12.744L9.0126 12.5648L8.96053 12.6155L8.94375 12.6862L9.18699 12.744ZM7.69669 19.0213L7.45345 18.9635L7.44669 18.992V19.0213H7.69669ZM7.69669 19.0237H7.44669V19.0521L7.45306 19.0798L7.69669 19.0237ZM8.61373 23.0071L8.37009 23.0632L8.37042 23.0645L8.61373 23.0071ZM9.13147 25.1999L8.88816 25.2573L8.90473 25.3275L8.95617 25.3781L9.13147 25.1999ZM14.2663 30.2498L14.091 30.428L14.2654 30.5996L14.4406 30.4289L14.2663 30.2498ZM18.4672 26.1604L18.6416 26.3395L18.6417 26.3394L18.4672 26.1604ZM20.456 24.3389L20.2123 24.2831L20.04 25.0351L20.6206 24.5271L20.456 24.3389ZM21.8344 23.1329L21.999 23.321L22.114 23.2204L22.0769 23.0722L21.8344 23.1329ZM21.2594 20.8331L21.502 20.7725L21.0157 20.7773L21.2594 20.8331ZM15.2421 30.4701L15.0683 30.2904L14.7339 30.6139L15.1882 30.7142L15.2421 30.4701ZM18.975 26.8596L19.2173 26.9214L19.4358 26.0661L18.8012 26.6799L18.975 26.8596ZM17.9013 31.0576L17.8473 31.3017L18.0831 31.3538L18.1434 31.12L17.9013 31.0576ZM18.0479 30.4888L18.29 30.5512L18.2901 30.5506L18.0479 30.4888ZM14.6526 31.3183L14.7066 31.0742L14.4026 31.007V31.3183H14.6526ZM17.297 31.9025L17.4939 32.0565L17.7383 31.744L17.3509 31.6584L17.297 31.9025ZM14.6526 35.2838H14.4026V36.0093L14.8496 35.4378L14.6526 35.2838ZM6.81631 19.023L7.05915 19.0824L7.07369 19.023L7.05915 18.9635L6.81631 19.023ZM5.96797 15.5558L6.21081 15.4964L6.11239 15.0942L5.80228 15.3686L5.96797 15.5558ZM5.9759 22.4577L5.81128 22.6458L6.12094 22.9168L6.21874 22.5171L5.9759 22.4577ZM2.05054 19.023L1.88485 18.8358L1.67212 19.0241L1.88592 19.2111L2.05054 19.023ZM6.39861 23.9911L6.56347 23.8031L6.28179 23.5561L6.16178 23.911L6.39861 23.9911ZM4.62662 29.2316L4.38979 29.1516L4.31062 29.3857L4.54385 29.4675L4.62662 29.2316ZM8.43743 25.7795L8.67972 25.7179L8.6606 25.6427L8.60229 25.5916L8.43743 25.7795ZM9.77429 31.0378L9.69151 31.2737L10.1315 31.4281L10.0166 30.9762L9.77429 31.0378ZM7.23929 20.95L7.48253 20.8922L6.99706 20.8881L7.23929 20.95ZM6.68205 23.1325L6.43982 23.0706L6.40188 23.2193L6.51719 23.3204L6.68205 23.1325ZM8.04069 24.3243L7.87583 24.5122L8.46503 25.0291L8.28393 24.2665L8.04069 24.3243ZM5.38334 23.0911L5.45881 23.3295L5.87659 23.1972L5.55009 22.9049L5.38334 23.0911ZM4.6307 22.4173L4.79746 22.2311L4.79586 22.2296L4.6307 22.4173ZM2.68277 23.9463L2.43657 23.9897L2.48617 24.2708L2.75824 24.1846L2.68277 23.9463ZM2.00523 20.1069L2.17039 19.9192L1.63513 19.4482L1.75904 20.1504L2.00523 20.1069ZM6.70359 14.9171L6.53896 14.7289L6.42433 14.8292L6.4609 14.9771L6.70359 14.9171ZM7.26912 17.2038L7.02643 17.2638L7.51236 17.2616L7.26912 17.2038ZM8.10304 13.6926L8.34628 13.7503L8.52699 12.9894L7.93842 13.5044L8.10304 13.6926ZM17.8146 6.87183L18.0567 6.80943L17.9969 6.57737L17.7625 6.62732L17.8146 6.87183ZM18.9222 11.1691L18.7476 11.3481L19.3872 11.9718L19.1643 11.1067L18.9222 11.1691ZM17.7615 6.88314L17.7094 6.63863L17.7076 6.63903L17.7615 6.88314ZM15.1246 7.46571L15.0707 7.2216L14.6187 7.32147L14.9501 7.64469L15.1246 7.46571ZM12.0711 7.16909L12.125 6.92497L12.1232 6.92458L12.0711 7.16909ZM13.4126 7.46547L13.5872 7.64446L13.9186 7.32123L13.4666 7.22136L13.4126 7.46547ZM10.6778 6.87216L10.7299 6.62765L10.4955 6.57769L10.4357 6.80976L10.6778 6.87216ZM9.55539 11.2271L9.3133 11.1647L9.09034 12.0298L9.72994 11.4061L9.55539 11.2271ZM8.9109 34.3437L8.7113 34.1932L8.54722 34.4108L8.77811 34.5555L8.9109 34.3437ZM10.3846 32.3894L10.5812 32.235L10.3806 31.9796L10.185 32.2389L10.3846 32.3894ZM11.9876 35.7805L11.9114 36.0187L11.9158 36.02L11.9876 35.7805ZM13.2975 36.0967L13.2485 36.3418L13.9124 36.4746L13.4941 35.9422L13.2975 36.0967ZM9.57275 31.856L9.77393 32.0044L9.97388 31.7334L9.65654 31.6205L9.57275 31.856ZM4.98646 30.2244L5.07026 29.9888L4.37248 29.7406L4.77706 30.3609L4.98646 30.2244ZM8.14157 33.7961L7.98399 33.9901L8.18729 34.1552L8.34275 33.9445L8.14157 33.7961ZM7.33526 33.07L7.5121 32.8932L7.50745 32.8888L7.33526 33.07ZM5.57729 23.918L5.81394 23.9986L5.9736 23.5298L5.5016 23.6798L5.57729 23.918ZM2.92472 24.7606L2.84904 24.5223L2.60359 24.6003L2.6888 24.8433L2.92472 24.7606ZM4.12475 28.1829L3.88883 28.2656L4.12819 28.9483L4.3614 28.2635L4.12475 28.1829ZM20.3016 4.20923L20.4578 4.01408L20.2548 3.85152L20.1004 4.06082L20.3016 4.20923ZM18.8575 6.16677L18.6563 6.01836L18.4564 6.28941L18.7737 6.40231L18.8575 6.16677ZM21.1569 4.97481L20.9801 5.15164L20.9847 5.15606L21.1569 4.97481ZM23.5016 7.81413L23.4185 8.0499L24.1141 8.29513L23.7109 7.67747L23.5016 7.81413ZM22.0042 7.28629L21.9205 7.52183L21.9211 7.52207L22.0042 7.28629ZM16.4594 2.21957L16.3803 2.45676L16.3832 2.45767L16.4594 2.21957ZM19.5853 3.68738L19.7865 3.83579L19.946 3.61964L19.719 3.47608L19.5853 3.68738ZM15.3829 1.94475L15.4363 1.70052H15.4363L15.3829 1.94475ZM15.1947 1.90338L15.2489 1.65934L14.5657 1.50751L14.9981 2.05784L15.1947 1.90338ZM18.1379 5.64939L17.9414 5.80384L18.1442 6.06202L18.3391 5.7978L18.1379 5.64939ZM20.1562 12.3544L19.9141 12.4168L19.9333 12.4915L19.9914 12.5424L20.1562 12.3544ZM18.7945 7.0634L18.8777 6.82762L18.4356 6.6718L18.5524 7.12571L18.7945 7.0634ZM21.093 13.1762L20.9282 13.3641L20.9293 13.3651L21.093 13.1762ZM22.1057 14.0539L21.942 14.2428L22.2223 14.4857L22.3423 14.1348L22.1057 14.0539ZM23.8825 8.85699L24.119 8.93786L24.1991 8.70354L23.9656 8.62121L23.8825 8.85699ZM7.38023 4.97501L7.55247 5.15632L7.55701 5.15179L7.38023 4.97501ZM8.16475 4.26671L8.36593 4.1183L8.21002 3.90696L8.00661 4.07308L8.16475 4.26671ZM5.03143 7.82067L4.82203 7.6841L4.41745 8.30445L5.11523 8.05621L5.03143 7.82067ZM9.59009 6.19884L9.67389 6.43438L9.99123 6.32148L9.79127 6.05043L9.59009 6.19884ZM25.8142 14.1258L26.0604 14.0823L26.0103 13.798L25.736 13.8883L25.8142 14.1258ZM23.1515 15.0029L23.0733 14.7654L22.6585 14.9021L22.9864 15.1906L23.1515 15.0029ZM26.487 17.9381L26.3218 18.1258L26.8571 18.5968L26.7332 17.8947L26.487 17.9381ZM22.9588 14.1314L22.7222 14.0508L22.5617 14.5219L23.0355 14.3694L22.9588 14.1314ZM25.5834 13.2862L25.66 13.5242L25.9013 13.4465L25.8202 13.2062L25.5834 13.2862ZM24.42 9.84104L24.6569 9.76106L24.4211 9.0626L24.1834 9.76044L24.42 9.84104ZM21.8762 14.9706L22.1187 15.0313L22.1557 14.8833L22.041 14.7827L21.8762 14.9706ZM20.438 13.7091L20.6029 13.5212L20.0137 13.0043L20.1948 13.7669L20.438 13.7091ZM21.2923 17.3061L21.0491 17.3639L21.5348 17.3667L21.2923 17.3061ZM8.40947 12.2898L8.57433 12.4777L8.63253 12.4267L8.65169 12.3517L8.40947 12.2898ZM6.43228 14.0241L6.19563 14.1047L6.31614 14.4586L6.59714 14.2121L6.43228 14.0241ZM9.75748 7.0133L9.9997 7.07518L10.1153 6.62282L9.6747 6.7774L9.75748 7.0133ZM4.65436 8.80387L4.57159 8.56797L4.33785 8.64998L4.41771 8.88447L4.65436 8.80387ZM13.8848 6.72718L13.8308 6.9713L14.1348 7.03845V6.72718H13.8848ZM12.0249 6.31627L11.9698 6.56014L11.9709 6.56039L12.0249 6.31627ZM13.8848 2.58072H14.1348V1.86443L13.6891 2.42516L13.8848 2.58072ZM11.0843 6.10389L10.8886 5.94833L10.6408 6.26004L11.0292 6.34775L11.0843 6.10389ZM2.91073 13.3257L2.67387 13.2457L2.59243 13.4869L2.83505 13.5639L2.91073 13.3257ZM5.56684 14.1694L5.49116 14.4077L5.96483 14.5581L5.80326 14.0881L5.56684 14.1694ZM4.08321 9.85335L4.31963 9.77208L4.08109 9.07816L3.84635 9.77338L4.08321 9.85335ZM2.00517 17.9386L1.75897 17.8952L1.63506 18.5973L2.17032 18.1263L2.00517 17.9386ZM2.68138 14.1067L2.75707 13.8685L2.48483 13.782L2.43519 14.0633L2.68138 14.1067ZM5.38403 14.9652L5.54919 15.1529L5.88111 14.8608L5.45972 14.7269L5.38403 14.9652ZM10.6313 31.0387L10.3892 31.1011L10.4494 31.3349L10.6852 31.2828L10.6313 31.0387ZM10.4588 30.3694L10.2166 30.4313L10.2167 30.4318L10.4588 30.3694ZM13.2915 30.451L13.3454 30.6951L13.8002 30.5946L13.4651 30.2711L13.2915 30.451ZM9.5589 26.8471L9.73255 26.6672L9.09854 26.0551L9.31668 26.909L9.5589 26.8471ZM11.1342 31.9257L11.0803 31.6816L10.6895 31.7679L10.9385 32.0813L11.1342 31.9257ZM13.8394 35.329L13.6437 35.4845L14.0894 36.0453V35.329H13.8394ZM13.8394 31.328H14.0894V31.0168L13.7855 31.0839L13.8394 31.328ZM14.6978 6.69129H14.4478V7.00018L14.7499 6.9358L14.6978 6.69129ZM14.6978 2.5809L14.8947 2.42689L14.4478 1.8554V2.5809H14.6978ZM17.4531 6.10409L17.5052 6.3486L17.8965 6.26522L17.6501 5.95008L17.4531 6.10409ZM25.8094 23.9463L25.734 24.1846L26.006 24.2708L26.0556 23.9897L25.8094 23.9463ZM23.0993 23.0881L22.9341 22.9004L22.6019 23.1928L23.0238 23.3264L23.0993 23.0881ZM26.487 20.1069L26.7332 20.1504L26.8571 19.4482L26.3218 19.9192L26.487 20.1069ZM13.0327 1.74893L10.1183 5.45814L10.5115 5.76705L13.4258 2.05784L13.0327 1.74893ZM11.9984 2.45674C12.3875 2.32706 12.8232 2.23955 13.2783 2.14853L13.1802 1.65824C12.7319 1.7479 12.2643 1.84106 11.8403 1.9824L11.9984 2.45674ZM8.99504 3.85593C9.94026 3.26542 10.9269 2.79966 11.9956 2.45767L11.8432 1.98146C10.7329 2.33676 9.70866 2.82055 8.73012 3.43188L8.99504 3.85593ZM10.5161 5.46418L9.06376 3.49549L8.6614 3.79232L10.1137 5.761L10.5161 5.46418ZM6.96361 4.61574C7.35865 4.24704 7.7072 3.95599 7.9357 3.77018L7.62024 3.38225C7.38641 3.5724 7.02854 3.8712 6.62245 4.25022L6.96361 4.61574ZM3.941 8.52758C4.74183 7.05938 5.76434 5.72618 6.96288 4.61642L6.62318 4.24954C5.38258 5.39824 4.32731 6.77518 3.50205 8.28815L3.941 8.52758ZM3.92239 8.58297C3.92192 8.57167 3.92305 8.56371 3.92437 8.55848C3.92562 8.55354 3.92731 8.54988 3.92954 8.54654L3.51351 8.26919C3.44195 8.37654 3.41832 8.4948 3.42282 8.6036L3.92239 8.58297ZM2.22243 13.4749L3.90847 8.67615L3.43674 8.51041L1.7507 13.3091L2.22243 13.4749ZM2.21083 13.5037C2.21121 13.5021 2.21172 13.5007 2.21246 13.4991L1.76067 13.2849C1.74541 13.3171 1.73302 13.3517 1.7243 13.3884L2.21083 13.5037ZM2.19612 13.5498L2.20343 13.5289L1.7317 13.3632L1.72439 13.384L2.19612 13.5498ZM2.21032 13.4977L2.21026 13.4664L1.71026 13.4674L1.71032 13.4987L2.21032 13.4977ZM2.21 13.512C2.21 13.5112 2.21002 13.5104 2.21005 13.5097L1.71058 13.4867C1.71019 13.4951 1.71 13.5035 1.71 13.512H2.21ZM1.27397 18.9269L2.20632 13.5548L1.71368 13.4693L0.781338 18.8414L1.27397 18.9269ZM1.25405 19.0526C1.24662 19.0229 1.25044 18.9988 1.2572 18.9832L0.798113 18.7851C0.74583 18.9062 0.736234 19.0429 0.768975 19.1738L1.25405 19.0526ZM2.20638 24.5359L1.25783 19.0704L0.765193 19.1559L1.71375 24.6214L2.20638 24.5359ZM2.24999 24.623C2.23853 24.6124 2.22515 24.5954 2.21564 24.5777C2.21118 24.5694 2.20915 24.5638 2.20852 24.5617C2.20769 24.559 2.21006 24.5652 2.21006 24.5787H1.71006C1.71006 24.6708 1.74304 24.7544 1.77508 24.8141C1.80915 24.8776 1.85592 24.9396 1.91073 24.9903L2.24999 24.623ZM3.8653 29.4127L2.31774 24.7282L1.84298 24.885L3.39054 29.5695L3.8653 29.4127ZM3.88457 29.5437C3.88229 29.5402 3.88055 29.5365 3.87929 29.5312C3.87794 29.5257 3.87684 29.5172 3.87752 29.5052L3.37832 29.477C3.37203 29.5884 3.3948 29.7104 3.46854 29.821L3.88457 29.5437ZM6.92147 33.4771C5.7198 32.32 4.69578 30.9844 3.89445 29.5598L3.45866 29.8049C4.28342 31.2711 5.33719 32.6457 6.57465 33.8373L6.92147 33.4771ZM8.0128 34.7413C8.16523 34.5431 8.16523 34.5431 8.16524 34.5431C8.16524 34.5431 8.16525 34.5431 8.16524 34.5431C8.16524 34.5431 8.16523 34.5431 8.16521 34.5431C8.16517 34.5431 8.16509 34.543 8.16498 34.5429C8.16476 34.5428 8.1644 34.5425 8.16389 34.5421C8.16289 34.5413 8.16132 34.5401 8.15922 34.5385C8.15501 34.5352 8.14863 34.5303 8.14021 34.5237C8.12337 34.5105 8.09835 34.4908 8.06612 34.4652C8.00166 34.4139 7.9084 34.3387 7.79409 34.2439C7.56532 34.0542 7.25297 33.7865 6.91864 33.4745L6.57748 33.84C6.92069 34.1603 7.24071 34.4346 7.47492 34.6288C7.5921 34.726 7.688 34.8033 7.7548 34.8564C7.78821 34.883 7.81436 34.9036 7.83228 34.9176C7.84123 34.9246 7.84814 34.93 7.85286 34.9336C7.85522 34.9355 7.85704 34.9369 7.85829 34.9378C7.85892 34.9383 7.85941 34.9387 7.85976 34.939C7.85993 34.9391 7.86007 34.9392 7.86017 34.9393C7.86022 34.9393 7.86027 34.9394 7.8603 34.9394C7.86032 34.9394 7.86033 34.9394 7.86034 34.9394C7.86036 34.9394 7.86037 34.9394 8.0128 34.7413ZM8.17771 34.5438C8.16103 34.5359 8.14401 34.5274 8.12459 34.5177L7.90101 34.9649C7.91967 34.9742 7.94073 34.9848 7.96212 34.995L8.17771 34.5438ZM11.7884 36.3089C10.5007 35.9226 9.29568 35.328 8.214 34.5651L7.92583 34.9737C9.05035 35.7668 10.3039 36.3856 11.6447 36.7878L11.7884 36.3089ZM14.2009 36.7501C13.3783 36.7501 12.5932 36.5771 11.7956 36.3112L11.6375 36.7856C12.4661 37.0617 13.307 37.2501 14.2009 37.2501V36.7501ZM14.2102 36.7494C14.2067 36.7499 14.2036 36.7501 14.2009 36.7501V37.2501C14.2284 37.2501 14.2555 37.248 14.2819 37.2442L14.2102 36.7494ZM14.2913 36.7501C14.2886 36.7501 14.2855 36.7499 14.2819 36.7494L14.2102 37.2442C14.2367 37.248 14.2638 37.2501 14.2913 37.2501V36.7501ZM16.6965 36.3112C15.899 36.5771 15.1138 36.7501 14.2913 36.7501V37.2501C15.1852 37.2501 16.0261 37.0617 16.8546 36.7856L16.6965 36.3112ZM20.2778 34.5653C19.1962 35.3281 17.9914 35.9226 16.7037 36.3089L16.8474 36.7878C18.1881 36.3857 19.4416 35.7669 20.566 34.9739L20.2778 34.5653ZM20.3677 34.5177C20.3482 34.5274 20.331 34.536 20.3142 34.544L20.5296 34.9952C20.5512 34.9849 20.5725 34.9743 20.5913 34.9649L20.3677 34.5177ZM20.437 34.4527C20.3836 34.4956 20.3264 34.5409 20.3027 34.5645L20.6563 34.9181C20.6512 34.9231 20.649 34.9247 20.655 34.9197C20.6593 34.916 20.6658 34.9106 20.6748 34.9032C20.693 34.8883 20.7178 34.8685 20.7499 34.8428L20.437 34.4527ZM21.5737 33.4745C21.0663 33.948 20.6359 34.2933 20.437 34.4527L20.7499 34.8428C20.9511 34.6814 21.3933 34.3267 21.9148 33.84L21.5737 33.4745ZM24.5275 29.6875C23.7372 31.1064 22.7389 32.3956 21.5744 33.4738L21.9141 33.8407C23.1194 32.7246 24.1498 31.3931 24.9643 29.9308L24.5275 29.6875ZM24.6291 29.4608C24.6544 29.5256 24.6287 29.584 24.5941 29.6105L24.8976 30.0078C25.0983 29.8545 25.2061 29.5642 25.095 29.2792L24.6291 29.4608ZM26.2127 24.6527L24.6255 29.2891L25.0986 29.451L26.6858 24.8147L26.2127 24.6527ZM26.2821 24.5335C26.2821 24.5401 26.281 24.5435 26.28 24.5458C26.2787 24.5486 26.276 24.5533 26.2702 24.5592L26.6283 24.9082C26.7142 24.82 26.7821 24.693 26.7821 24.5335H26.2821ZM27.2019 19.2559L26.2859 24.4904L26.7784 24.5766L27.6944 19.3421L27.2019 19.2559ZM27.2834 19.0377C27.2947 19.0831 27.2802 19.113 27.2683 19.1254L27.628 19.4727C27.7711 19.3244 27.8175 19.1126 27.7684 18.9164L27.2834 19.0377ZM26.3552 13.6936L27.2796 19.0198L27.7722 18.9343L26.8478 13.6081L26.3552 13.6936ZM26.3535 13.5787C26.3539 13.5795 26.3554 13.5832 26.3563 13.5891C26.3571 13.5947 26.3568 13.5997 26.3561 13.603L26.8469 13.6986C26.8704 13.5781 26.8506 13.455 26.8007 13.3551L26.3535 13.5787ZM24.6241 8.53408L26.3405 13.5479L26.8136 13.3859L25.0972 8.37214L24.6241 8.53408ZM24.524 8.44322C24.5555 8.45504 24.5963 8.4834 24.637 8.56491L25.0843 8.34131C25.0014 8.17565 24.8763 8.04137 24.6997 7.97509L24.524 8.44322ZM21.4804 4.61286C22.6269 5.71688 23.6116 6.98335 24.3956 8.33461L24.8281 8.0837C24.0213 6.69305 23.0079 5.38963 21.8272 4.2527L21.4804 4.61286ZM20.4652 3.72901C20.6952 3.91593 21.0725 4.23226 21.4832 4.61554L21.8244 4.25001C21.403 3.85673 21.0164 3.53274 20.7806 3.34103L20.4652 3.72901ZM20.3294 3.50363C20.3593 3.52601 20.3718 3.55025 20.3767 3.57838L20.8691 3.49166C20.8433 3.34486 20.766 3.20603 20.6294 3.10363L20.3294 3.50363ZM16.6586 1.69115C17.9863 2.08947 19.226 2.70924 20.3334 3.50651L20.6255 3.10074C19.4744 2.27192 18.1847 1.62696 16.8022 1.21224L16.6586 1.69115ZM14.2461 1.25C15.0686 1.25 15.8538 1.42302 16.6514 1.68886L16.8095 1.21452C15.9809 0.938332 15.14 0.75 14.2461 0.75V1.25ZM14.2343 1.25113C14.2387 1.25032 14.2427 1.25 14.2461 1.25V0.75C14.2116 0.75 14.1776 0.75322 14.1445 0.759252L14.2343 1.25113ZM14.1326 1.25C14.136 1.25 14.1401 1.25031 14.1448 1.25118L14.234 0.7592C14.2011 0.753229 14.1672 0.75 14.1326 0.75V1.25ZM11.7274 1.68886C12.5249 1.42302 13.3101 1.25 14.1326 1.25V0.75C13.2388 0.75 12.3979 0.938332 11.5693 1.21452L11.7274 1.68886ZM8.09447 3.50363C9.15398 2.709 10.392 2.0896 11.7202 1.69115L11.5765 1.21224C10.1945 1.62683 8.90309 2.27216 7.79447 3.10363L8.09447 3.50363ZM8.02611 3.60665C8.02958 3.57835 8.04685 3.53935 8.09447 3.50363L7.79447 3.10363C7.64985 3.2121 7.55158 3.36842 7.52983 3.54578L8.02611 3.60665ZM18.7312 32.0221L20.1703 33.9728L20.5726 33.6759L19.1336 31.7252L18.7312 32.0221ZM22.1501 30.4743L18.8493 31.6379L19.0155 32.1094L22.3164 30.9458L22.1501 30.4743ZM23.4241 30.0333L22.1515 30.4738L22.315 30.9463L23.5876 30.5058L23.4241 30.0333ZM21.3292 33.2964C22.2483 32.4233 23.0284 31.4593 23.7152 30.4061L23.2964 30.133C22.6282 31.1575 21.8725 32.0906 20.9849 32.9339L21.3292 33.2964ZM20.5296 34.018C20.7531 33.8355 21.0431 33.5827 21.3338 33.292L20.9803 32.9384C20.7038 33.2149 20.4267 33.4565 20.2134 33.6307L20.5296 34.018ZM24.0969 29.1759L22.2968 23.9106L21.8236 24.0723L23.6238 29.3377L24.0969 29.1759ZM21.8944 23.8044L19.9884 25.4937L20.3201 25.8679L22.226 24.1785L21.8944 23.8044ZM19.9149 25.6086C19.9162 25.6045 19.9178 25.6007 19.9194 25.5978C19.9209 25.5949 19.9219 25.5937 19.9215 25.5943C19.9209 25.5951 19.919 25.5974 19.9147 25.602C19.91 25.607 19.9047 25.6123 19.896 25.6211L20.2495 25.9746C20.2783 25.9459 20.3577 25.872 20.3936 25.7529L19.9149 25.6086ZM19.899 25.6181L19.8978 25.6193L20.2453 25.9787L20.2465 25.9776L19.899 25.6181ZM19.8294 25.7367L18.9636 29.1011L19.4478 29.2257L20.3137 25.8613L19.8294 25.7367ZM18.9634 29.1018L18.4791 31.0067L18.9637 31.1299L19.448 29.225L18.9634 29.1018ZM18.8045 31.3041L23.9434 29.4926L23.7772 29.021L18.6383 30.8326L18.8045 31.3041ZM15.4816 36.2512L18.3674 32.5783L17.9743 32.2693L15.0884 35.9422L15.4816 36.2512ZM16.5231 35.5411C16.0822 35.6733 15.6843 35.7619 15.236 35.8516L15.334 36.3418C15.789 36.2508 16.2042 36.1587 16.6667 36.02L16.5231 35.5411ZM19.482 34.1674C18.5481 34.7469 17.5734 35.2049 16.5187 35.5424L16.6711 36.0186C17.7668 35.668 18.7787 35.1922 19.7456 34.5922L19.482 34.1674ZM19.815 34.2314L18.372 32.2754L17.9697 32.5722L19.4126 34.5282L19.815 34.2314ZM22.9403 24.1884L25.5871 25.0291L25.7384 24.5526L23.0916 23.7118L22.9403 24.1884ZM24.702 28.1252L23.2526 23.8695L22.7793 24.0307L24.2287 28.2864L24.702 28.1252ZM25.4268 24.7081L24.2294 28.123L24.7012 28.2885L25.8987 24.8736L25.4268 24.7081ZM22.7092 22.7165L26.6609 19.2121L26.3292 18.838L22.3775 22.3424L22.7092 22.7165ZM21.4332 19.0819L22.3007 22.5894L22.786 22.4694L21.9186 18.9619L21.4332 19.0819ZM22.2917 15.4535L21.4331 18.9625L21.9187 19.0813L22.7773 15.5723L22.2917 15.4535ZM26.6609 18.838L22.7004 15.3258L22.3686 15.6999L26.3292 19.2121L26.6609 18.838ZM20.576 18.9651L19.0901 25.2582L19.5767 25.3731L21.0626 19.08L20.576 18.9651ZM19.0895 12.7845L20.576 19.08L21.0626 18.9651L19.5762 12.6696L19.0895 12.7845ZM16.3702 10.1677L19.1577 12.9054L19.508 12.5487L16.7205 9.81096L16.3702 10.1677ZM14.0997 7.97225L16.3716 10.169L16.7191 9.8096L14.4472 7.61281L14.0997 7.97225ZM9.36137 12.9231L14.4478 7.97167L14.0991 7.61339L9.0126 12.5648L9.36137 12.9231ZM7.93993 19.079L9.43022 12.8017L8.94375 12.6862L7.45345 18.9635L7.93993 19.079ZM7.94669 19.0237V19.0213H7.44669V19.0237H7.94669ZM8.85735 22.951L7.94032 18.9676L7.45306 19.0798L8.3701 23.0632L8.85735 22.951ZM9.37478 25.1424L8.85704 22.9496L8.37042 23.0645L8.88816 25.2573L9.37478 25.1424ZM14.4416 30.0716L9.30676 25.0216L8.95617 25.3781L14.091 30.428L14.4416 30.0716ZM18.2928 25.9813L14.0919 30.0707L14.4406 30.4289L18.6416 26.3395L18.2928 25.9813ZM19.1589 25.1367L18.2927 25.9814L18.6417 26.3394L19.508 25.4946L19.1589 25.1367ZM20.6206 24.5271L21.999 23.321L21.6697 22.9447L20.2914 24.1508L20.6206 24.5271ZM21.0157 20.7773L20.2123 24.2831L20.6997 24.3948L21.5031 20.8889L21.0157 20.7773ZM22.0769 23.0722L21.502 20.7725L21.0169 20.8937L21.5918 23.1935L22.0769 23.0722ZM15.4159 30.6498L19.1488 27.0393L18.8012 26.6799L15.0683 30.2904L15.4159 30.6498ZM17.9552 30.8135L15.296 30.226L15.1882 30.7142L17.8473 31.3017L17.9552 30.8135ZM17.8058 30.4264L17.6592 30.9952L18.1434 31.12L18.29 30.5512L17.8058 30.4264ZM18.7328 26.7977L17.8057 30.4269L18.2901 30.5506L19.2173 26.9214L18.7328 26.7977ZM14.5987 31.5624L17.2431 32.1466L17.3509 31.6584L14.7066 31.0742L14.5987 31.5624ZM14.9026 35.2838V31.3183H14.4026V35.2838H14.9026ZM17.1001 31.7485L14.4557 35.1298L14.8496 35.4378L17.4939 32.0565L17.1001 31.7485ZM7.05915 18.9635L6.21081 15.4964L5.72514 15.6153L6.57347 19.0824L7.05915 18.9635ZM6.21874 22.5171L7.05915 19.0824L6.57347 18.9635L5.73307 22.3983L6.21874 22.5171ZM1.88592 19.2111L5.81128 22.6458L6.14053 22.2695L2.21517 18.8348L1.88592 19.2111ZM5.80228 15.3686L1.88485 18.8358L2.21623 19.2102L6.13366 15.743L5.80228 15.3686ZM6.16178 23.911L4.38979 29.1516L4.86345 29.3117L6.63543 24.0712L6.16178 23.911ZM8.60229 25.5916L6.56347 23.8031L6.23375 24.179L8.27257 25.9675L8.60229 25.5916ZM10.0166 30.9762L8.67972 25.7179L8.19514 25.8411L9.53199 31.0994L10.0166 30.9762ZM4.54385 29.4675L9.69151 31.2737L9.85706 30.8019L4.70939 28.9957L4.54385 29.4675ZM6.99706 20.8881L6.43982 23.0706L6.92428 23.1943L7.48152 21.0118L6.99706 20.8881ZM8.28393 24.2665L7.48253 20.8922L6.99606 21.0077L7.79746 24.382L8.28393 24.2665ZM6.51719 23.3204L7.87583 24.5122L8.20555 24.1363L6.84691 22.9445L6.51719 23.3204ZM5.55009 22.9049L4.79745 22.2311L4.46395 22.6036L5.21659 23.2774L5.55009 22.9049ZM2.75824 24.1846L5.45881 23.3295L5.30786 22.8528L2.6073 23.708L2.75824 24.1846ZM1.75904 20.1504L2.43657 23.9897L2.92897 23.9028L2.25143 20.0635L1.75904 20.1504ZM4.79586 22.2296L2.17039 19.9192L1.84008 20.2946L4.46554 22.605L4.79586 22.2296ZM6.4609 14.9771L7.02643 17.2638L7.51181 17.1438L6.94628 14.8571L6.4609 14.9771ZM7.93842 13.5044L6.53896 14.7289L6.86822 15.1052L8.26767 13.8807L7.93842 13.5044ZM7.51236 17.2616L8.34628 13.7503L7.85981 13.6348L7.02589 17.146L7.51236 17.2616ZM17.5725 6.93422L18.6801 11.2315L19.1643 11.1067L18.0567 6.80943L17.5725 6.93422ZM17.8136 7.12765L17.8667 7.11634L17.7625 6.62732L17.7094 6.63863L17.8136 7.12765ZM15.1786 7.70982L17.8155 7.12726L17.7076 6.63903L15.0707 7.2216L15.1786 7.70982ZM19.0967 10.9901L15.2992 7.28673L14.9501 7.64469L18.7476 11.3481L19.0967 10.9901ZM12.0172 7.4132L13.3587 7.70959L13.4666 7.22136L12.125 6.92497L12.0172 7.4132ZM10.6257 7.11666L12.019 7.4136L12.1232 6.92458L10.7299 6.62765L10.6257 7.11666ZM9.79748 11.2895L10.9199 6.93455L10.4357 6.80976L9.3133 11.1647L9.79748 11.2895ZM13.2381 7.28649L9.38085 11.0481L9.72994 11.4061L13.5872 7.64446L13.2381 7.28649ZM9.11051 34.4942L10.5842 32.5399L10.185 32.2389L8.7113 34.1932L9.11051 34.4942ZM12.0638 35.5424C10.9877 35.1981 9.99488 34.7282 9.0437 34.1319L8.77811 34.5555C9.76275 35.1728 10.7934 35.6609 11.9114 36.0186L12.0638 35.5424ZM13.3465 35.8516C12.8982 35.7619 12.5003 35.6733 12.0594 35.5411L11.9158 36.02C12.3783 36.1587 12.7935 36.2508 13.2485 36.3418L13.3465 35.8516ZM10.1881 32.5439L13.1009 36.2512L13.4941 35.9422L10.5812 32.235L10.1881 32.5439ZM9.65654 31.6205L5.07026 29.9888L4.90267 30.4599L9.48895 32.0916L9.65654 31.6205ZM8.34275 33.9445L9.77393 32.0044L9.37157 31.7076L7.94039 33.6476L8.34275 33.9445ZM7.15848 33.2468C7.45844 33.5468 7.75776 33.8065 7.98399 33.9901L8.29915 33.602C8.08334 33.4268 7.79737 33.1786 7.51204 32.8932L7.15848 33.2468ZM4.77706 30.3609C5.46394 31.4141 6.24398 32.3781 7.16307 33.2513L7.50745 32.8888C6.61977 32.0455 5.86406 31.1124 5.19587 30.0878L4.77706 30.3609ZM5.5016 23.6798L2.84904 24.5223L3.00041 24.9989L5.65297 24.1563L5.5016 23.6798ZM4.3614 28.2635L5.81394 23.9986L5.34063 23.8374L3.8881 28.1023L4.3614 28.2635ZM2.6888 24.8433L3.88883 28.2656L4.36067 28.1002L3.16064 24.6779L2.6888 24.8433ZM20.1004 4.06082L18.6563 6.01836L19.0587 6.31518L20.5028 4.35764L20.1004 4.06082ZM21.3337 4.79803C21.0111 4.47539 20.6891 4.19922 20.4578 4.01408L20.1453 4.40438C20.3654 4.58059 20.6731 4.84453 20.9801 5.15159L21.3337 4.79803ZM23.7109 7.67747C23.0251 6.62676 22.2463 5.66492 21.3291 4.79356L20.9847 5.15606C21.8706 5.99764 22.625 6.92867 23.2922 7.95078L23.7109 7.67747ZM21.9211 7.52207L23.4185 8.0499L23.5847 7.57835L22.0874 7.05051L21.9211 7.52207ZM18.7737 6.40231L21.9205 7.52183L22.088 7.05075L18.9413 5.93123L18.7737 6.40231ZM16.3832 2.45767C17.4775 2.80786 18.4858 3.28783 19.4517 3.89867L19.719 3.47608C18.7192 2.84385 17.6725 2.34529 16.5356 1.98146L16.3832 2.45767ZM15.3296 2.18899C15.6867 2.26704 16.0505 2.3468 16.3803 2.45674L16.5384 1.9824C16.1789 1.86253 15.7883 1.77744 15.4363 1.70052L15.3296 2.18899ZM15.1404 2.14743C15.2027 2.16128 15.266 2.17511 15.3296 2.18899L15.4363 1.70052C15.3726 1.68661 15.3102 1.67296 15.2489 1.65934L15.1404 2.14743ZM18.3345 5.49493L15.3912 1.74893L14.9981 2.05784L17.9414 5.80384L18.3345 5.49493ZM19.3842 3.53896L17.9368 5.50098L18.3391 5.7978L19.7865 3.83579L19.3842 3.53896ZM20.3983 12.2921L19.0367 7.0011L18.5524 7.12571L19.9141 12.4168L20.3983 12.2921ZM21.2579 12.9883L20.3211 12.1665L19.9914 12.5424L20.9282 13.3641L21.2579 12.9883ZM22.2695 13.865L21.2568 12.9873L20.9293 13.3651L21.942 14.2428L22.2695 13.865ZM23.6459 8.77611L21.8692 13.973L22.3423 14.1348L24.119 8.93786L23.6459 8.77611ZM18.7114 7.29918L23.7993 9.09276L23.9656 8.62121L18.8777 6.82762L18.7114 7.29918ZM7.55701 5.15179C7.83303 4.87576 8.10969 4.63447 8.32289 4.46034L8.00661 4.07308C7.78328 4.25548 7.49368 4.508 7.20345 4.79823L7.55701 5.15179ZM5.24083 7.95724C5.90903 6.93267 6.66474 5.99955 7.55242 5.15626L7.20804 4.79376C6.28895 5.6669 5.50891 6.63089 4.82203 7.6841L5.24083 7.95724ZM9.50629 5.9633L4.94763 7.58513L5.11523 8.05621L9.67389 6.43438L9.50629 5.9633ZM7.96357 4.41512L9.38891 6.34725L9.79127 6.05043L8.36593 4.1183L7.96357 4.41512ZM25.736 13.8883L23.0733 14.7654L23.2297 15.2403L25.8925 14.3632L25.736 13.8883ZM26.7332 17.8947L26.0604 14.0823L25.568 14.1692L26.2408 17.9816L26.7332 17.8947ZM22.9864 15.1906L26.3218 18.1258L26.6522 17.7505L23.3167 14.8152L22.9864 15.1906ZM23.0355 14.3694L25.66 13.5242L25.5067 13.0482L22.8822 13.8934L23.0355 14.3694ZM24.1834 9.76044L22.7222 14.0508L23.1955 14.212L24.6567 9.92164L24.1834 9.76044ZM25.8202 13.2062L24.6569 9.76106L24.1832 9.92102L25.3465 13.3662L25.8202 13.2062ZM22.041 14.7827L20.6029 13.5212L20.2732 13.8971L21.7113 15.1586L22.041 14.7827ZM21.5348 17.3667L22.1187 15.0313L21.6336 14.91L21.0498 17.2455L21.5348 17.3667ZM20.1948 13.7669L21.0491 17.3639L21.5355 17.2483L20.6813 13.6514L20.1948 13.7669ZM8.24461 12.1018L6.26742 13.8362L6.59714 14.2121L8.57433 12.4777L8.24461 12.1018ZM9.51525 6.95142L8.16725 12.2279L8.65169 12.3517L9.9997 7.07518L9.51525 6.95142ZM4.73713 9.03977L9.84025 7.2492L9.6747 6.7774L4.57159 8.56797L4.73713 9.03977ZM6.66893 13.9435L4.89101 8.72327L4.41771 8.88447L6.19563 14.1047L6.66893 13.9435ZM13.9387 6.48307L12.0788 6.07216L11.9709 6.56039L13.8308 6.9713L13.9387 6.48307ZM13.6348 2.58072V6.72718H14.1348V2.58072H13.6348ZM11.28 6.25945L14.0805 2.73628L13.6891 2.42516L10.8886 5.94833L11.28 6.25945ZM12.0799 6.07241L11.1394 5.86003L11.0292 6.34775L11.9698 6.56013L12.0799 6.07241ZM2.83505 13.5639L5.49116 14.4077L5.64253 13.9311L2.98642 13.0874L2.83505 13.5639ZM3.84635 9.77338L2.67387 13.2457L3.1476 13.4057L4.32007 9.93333L3.84635 9.77338ZM5.80326 14.0881L4.31963 9.77208L3.84679 9.93462L5.33042 14.2507L5.80326 14.0881ZM2.25136 17.9821L2.92758 14.1502L2.43519 14.0633L1.75897 17.8952L2.25136 17.9821ZM5.21888 14.7775L1.84001 17.7509L2.17032 18.1263L5.54919 15.1529L5.21888 14.7775ZM2.6057 14.345L5.30835 15.2035L5.45972 14.7269L2.75707 13.8685L2.6057 14.345ZM10.8733 30.9763L10.7009 30.307L10.2167 30.4318L10.3892 31.1011L10.8733 30.9763ZM13.2376 30.2068L10.5773 30.7946L10.6852 31.2828L13.3454 30.6951L13.2376 30.2068ZM9.38526 27.0269L13.1178 30.6308L13.4651 30.2711L9.73255 26.6672L9.38526 27.0269ZM10.701 30.3076L9.80113 26.7852L9.31668 26.909L10.2166 30.4313L10.701 30.3076ZM10.9385 32.0813L13.6437 35.4845L14.0351 35.1734L11.3299 31.7701L10.9385 32.0813ZM13.7855 31.0839L11.0803 31.6816L11.1882 32.1698L13.8933 31.5722L13.7855 31.0839ZM14.0894 35.329V31.328H13.5894V35.329H14.0894ZM14.9478 6.69129V2.5809H14.4478V6.69129H14.9478ZM17.401 5.85958L14.6457 6.44678L14.7499 6.9358L17.5052 6.3486L17.401 5.85958ZM14.5009 2.73491L17.2562 6.2581L17.6501 5.95008L14.8947 2.42689L14.5009 2.73491ZM25.8849 23.708L23.1748 22.8497L23.0238 23.3264L25.734 24.1846L25.8849 23.708ZM26.2408 20.0635L25.5632 23.9028L26.0556 23.9897L26.7332 20.1504L26.2408 20.0635ZM23.2644 23.2758L26.6521 20.2946L26.3218 19.9192L22.9341 22.9004L23.2644 23.2758Z" fill="#2D6380"/>
</svg>
