<svg width="38" height="38" viewBox="0 0 38 38" fill="none" xmlns="http://www.w3.org/2000/svg">
<path fill-rule="evenodd" clip-rule="evenodd" d="M1 1V37H37V1H1ZM6.15915 24.6866L8.73329 18.9717L6.15915 13.2602V24.6866ZM4.79852 27.7073L2.36063 33.1197V4.83211L4.79852 10.2413V27.7073ZM13.1326 30.4075V26.6399L17.3136 28.5243L13.1326 30.4075ZM3.02366 34.9609L11.772 31.0204V26.2281H6.95715L3.02366 34.9609ZM9.47968 20.6278L11.3905 24.8674H7.57002L9.47968 20.6278ZM33.1005 35.6394H4.83041L10.3678 33.1452H27.5664L33.1005 35.6394ZM24.5474 31.7845H13.3886L18.9697 29.2707L24.5474 31.7845ZM33.1449 27.6176L35.6394 33.1522V4.75221L33.1449 10.2901V27.6176ZM31.7843 24.5986V13.3109L29.2414 18.9564L31.7843 24.5986ZM28.4954 20.6127L30.413 24.8674H26.5789L28.4954 20.6127ZM31.0262 26.2281L34.9762 34.9923L26.2287 31.0498V26.2281H31.0262ZM24.8681 26.6138V30.4366L20.6259 28.5246L24.8681 26.6138ZM24.9986 25.0627L27.749 18.9566L25.0313 12.9267L19.0319 10.2228L12.928 12.9721L10.2257 18.9715L12.9777 25.0776L18.9698 27.7783L24.9986 25.0627ZM20.6881 9.47675L24.8681 11.3607V7.59398L20.6881 9.47675ZM26.6164 13.1322L28.495 17.3004L30.3725 13.1322H26.6164ZM30.9853 11.7716L34.903 3.074L26.2287 6.98112V11.7716H30.9853ZM3.03278 3.01202L6.98069 11.7716H11.772V6.95076L3.03278 3.01202ZM9.4793 17.3155L7.59392 13.1322H11.3636L9.4793 17.3155ZM13.1326 7.56399V11.3876L17.3758 9.47638L13.1326 7.56399ZM4.89896 2.36063H33.1736L27.7627 4.79786H10.3067L4.89896 2.36063ZM19.0321 8.73037L24.7419 6.15849H13.3256L19.0321 8.73037Z" fill="#2D6380"/>
<path d="M1 37H0.85V37.15H1V37ZM1 1V0.85H0.85V1H1ZM37 37V37.15H37.15V37H37ZM37 1H37.15V0.85H37V1ZM8.73329 18.9717L8.87006 19.0333L8.89782 18.9717L8.87005 18.9101L8.73329 18.9717ZM6.15915 24.6866H6.00915L6.29591 24.7482L6.15915 24.6866ZM6.15915 13.2602L6.2959 13.1986L6.00915 13.2602H6.15915ZM4.79852 27.7073L4.93528 27.7689L4.94852 27.7396V27.7073H4.79852ZM2.36063 33.1197H2.21063L2.4974 33.1813L2.36063 33.1197ZM2.36063 4.83211L2.49738 4.77048L2.21063 4.83211H2.36063ZM4.79852 10.2413H4.94852V10.209L4.93527 10.1796L4.79852 10.2413ZM13.1326 26.6399L13.1943 26.5032L12.9826 26.4078V26.6399H13.1326ZM13.1326 30.4075H12.9826V30.6396L13.1942 30.5443L13.1326 30.4075ZM17.3136 28.5243L17.3752 28.661L17.6788 28.5243L17.3752 28.3875L17.3136 28.5243ZM11.772 31.0204L11.8336 31.1571L11.922 31.1173V31.0204H11.772ZM3.02366 34.9609L2.88689 34.8993L2.72431 35.2602L3.08526 35.0976L3.02366 34.9609ZM11.772 26.2281H11.922V26.0781H11.772V26.2281ZM6.95715 26.2281V26.0781H6.8602L6.82038 26.1665L6.95715 26.2281ZM11.3905 24.8674V25.0174H11.6226L11.5272 24.8058L11.3905 24.8674ZM9.47968 20.6278L9.61643 20.5661L9.47964 20.2626L9.34291 20.5662L9.47968 20.6278ZM7.57002 24.8674L7.43325 24.8058L7.33794 25.0174H7.57002V24.8674ZM4.83041 35.6394L4.76881 35.5026L4.83041 35.7894V35.6394ZM33.1005 35.6394V35.7894L33.1621 35.5026L33.1005 35.6394ZM10.3678 33.1452V32.9952H10.3356L10.3062 33.0084L10.3678 33.1452ZM27.5664 33.1452L27.628 33.0084L27.5986 32.9952H27.5664V33.1452ZM13.3886 31.7845L13.327 31.6478L13.3886 31.9345V31.7845ZM24.5474 31.7845V31.9345L24.6091 31.6478L24.5474 31.7845ZM18.9697 29.2707L19.0313 29.1339L18.9697 29.1061L18.9081 29.1339L18.9697 29.2707ZM35.6394 33.1522L35.5026 33.2138L35.7894 33.1522H35.6394ZM33.1449 27.6176H32.9949V27.6498L33.0082 27.6792L33.1449 27.6176ZM35.6394 4.75221H35.7894L35.5026 4.69061L35.6394 4.75221ZM33.1449 10.2901L33.0082 10.2285L32.9949 10.2579V10.2901H33.1449ZM31.7843 13.3109H31.9343L31.6475 13.2493L31.7843 13.3109ZM31.7843 24.5986L31.6476 24.6603L31.9343 24.5986H31.7843ZM29.2414 18.9564L29.1046 18.8948L29.0769 18.9565L29.1046 19.0181L29.2414 18.9564ZM30.413 24.8674V25.0174H30.6451L30.5497 24.8058L30.413 24.8674ZM28.4954 20.6127L28.6321 20.551L28.4953 20.2475L28.3586 20.5511L28.4954 20.6127ZM26.5789 24.8674L26.4421 24.8058L26.3468 25.0174H26.5789V24.8674ZM34.9762 34.9923L34.9146 35.129L35.2758 35.2918L35.113 34.9307L34.9762 34.9923ZM31.0262 26.2281L31.163 26.1664L31.1232 26.0781H31.0262V26.2281ZM26.2287 31.0498H26.0787V31.1467L26.1671 31.1866L26.2287 31.0498ZM26.2287 26.2281V26.0781H26.0787V26.2281H26.2287ZM24.8681 30.4366L24.8065 30.5733L25.0181 30.6687V30.4366H24.8681ZM24.8681 26.6138H25.0181V26.3818L24.8065 26.4771L24.8681 26.6138ZM20.6259 28.5246L20.5643 28.3879L20.2607 28.5246L20.5643 28.6614L20.6259 28.5246ZM27.749 18.9566L27.8858 19.0182L27.9135 18.9566L27.8857 18.895L27.749 18.9566ZM24.9986 25.0627L25.0602 25.1995L25.1121 25.1761L25.1354 25.1243L24.9986 25.0627ZM25.0313 12.9267L25.1681 12.8651L25.1448 12.8133L25.093 12.7899L25.0313 12.9267ZM19.0319 10.2228L19.0935 10.086L19.0319 10.0582L18.9703 10.086L19.0319 10.2228ZM12.928 12.9721L12.8664 12.8354L12.8146 12.8587L12.7912 12.9105L12.928 12.9721ZM10.2257 18.9715L10.0889 18.9099L10.0612 18.9716L10.0889 19.0332L10.2257 18.9715ZM12.9777 25.0776L12.8409 25.1392L12.8643 25.191L12.916 25.2144L12.9777 25.0776ZM18.9698 27.7783L18.9082 27.915L18.9698 27.9428L19.0314 27.915L18.9698 27.7783ZM24.8681 11.3607L24.8065 11.4974L25.0181 11.5928V11.3607H24.8681ZM20.6881 9.47675L20.6265 9.33999L20.323 9.47671L20.6265 9.61351L20.6881 9.47675ZM24.8681 7.59398H25.0181V7.3619L24.8065 7.45721L24.8681 7.59398ZM28.495 17.3004L28.3583 17.362L28.495 17.6655L28.6318 17.362L28.495 17.3004ZM26.6164 13.1322V12.9822H26.3843L26.4797 13.1938L26.6164 13.1322ZM30.3725 13.1322L30.5092 13.1938L30.6045 12.9822H30.3725V13.1322ZM34.903 3.074L35.0397 3.1356L35.2023 2.77465L34.8414 2.93723L34.903 3.074ZM30.9853 11.7716V11.9216H31.0823L31.1221 11.8332L30.9853 11.7716ZM26.2287 6.98112L26.1671 6.84435L26.0787 6.88417V6.98112H26.2287ZM26.2287 11.7716H26.0787V11.9216H26.2287V11.7716ZM6.98069 11.7716L6.84393 11.8332L6.88376 11.9216H6.98069V11.7716ZM3.03278 3.01202L3.09442 2.87526L2.73326 2.71249L2.89603 3.07365L3.03278 3.01202ZM11.772 11.7716V11.9216H11.922V11.7716H11.772ZM11.772 6.95076H11.922V6.85383L11.8336 6.814L11.772 6.95076ZM7.59392 13.1322V12.9822H7.36178L7.45717 13.1938L7.59392 13.1322ZM9.4793 17.3155L9.34255 17.3771L9.47934 17.6806L9.61607 17.3771L9.4793 17.3155ZM11.3636 13.1322L11.5003 13.1938L11.5956 12.9822H11.3636V13.1322ZM13.1326 11.3876H12.9826V11.6197L13.1942 11.5244L13.1326 11.3876ZM13.1326 7.56399L13.1943 7.42723L12.9826 7.33185V7.56399H13.1326ZM17.3758 9.47638L17.4374 9.61314L17.741 9.47642L17.4375 9.33962L17.3758 9.47638ZM33.1736 2.36063L33.2352 2.4974L33.1736 2.21063V2.36063ZM4.89896 2.36063V2.21063L4.83732 2.49738L4.89896 2.36063ZM27.7627 4.79786V4.94786H27.7949L27.8243 4.93463L27.7627 4.79786ZM10.3067 4.79786L10.245 4.93461L10.2744 4.94786H10.3067V4.79786ZM24.7419 6.15849L24.8035 6.29526L24.7419 6.00849V6.15849ZM19.0321 8.73037L18.9704 8.86712L19.032 8.89489L19.0937 8.86713L19.0321 8.73037ZM13.3256 6.15849V6.00849L13.264 6.29525L13.3256 6.15849ZM1.15 37V1H0.85V37H1.15ZM37 36.85H1V37.15H37V36.85ZM36.85 1V37H37.15V1H36.85ZM1 1.15H37V0.85H1V1.15ZM8.59653 18.9101L6.02238 24.625L6.29591 24.7482L8.87006 19.0333L8.59653 18.9101ZM6.0224 13.3218L8.59654 19.0333L8.87005 18.9101L6.2959 13.1986L6.0224 13.3218ZM6.30915 24.6866V13.2602H6.00915V24.6866H6.30915ZM4.66175 27.6457L2.22386 33.0581L2.4974 33.1813L4.93528 27.7689L4.66175 27.6457ZM2.51063 33.1197V4.83211H2.21063V33.1197H2.51063ZM2.22388 4.89374L4.66177 10.3029L4.93527 10.1796L2.49738 4.77048L2.22388 4.89374ZM4.64852 10.2413V27.7073H4.94852V10.2413H4.64852ZM12.9826 26.6399V30.4075H13.2826V26.6399H12.9826ZM17.3752 28.3875L13.1943 26.5032L13.071 26.7767L17.252 28.661L17.3752 28.3875ZM13.1942 30.5443L17.3752 28.661L17.252 28.3875L13.071 30.2707L13.1942 30.5443ZM11.7104 30.8836L2.96206 34.8241L3.08526 35.0976L11.8336 31.1571L11.7104 30.8836ZM11.622 26.2281V31.0204H11.922V26.2281H11.622ZM6.95715 26.3781H11.772V26.0781H6.95715V26.3781ZM3.16043 35.0225L7.09392 26.2897L6.82038 26.1665L2.88689 34.8993L3.16043 35.0225ZM11.5272 24.8058L9.61643 20.5661L9.34293 20.6894L11.2537 24.9291L11.5272 24.8058ZM7.57002 25.0174H11.3905V24.7174H7.57002V25.0174ZM9.34291 20.5662L7.43325 24.8058L7.70678 24.929L9.61645 20.6894L9.34291 20.5662ZM4.83041 35.7894H33.1005V35.4894H4.83041V35.7894ZM10.3062 33.0084L4.76881 35.5026L4.89202 35.7761L10.4294 33.2819L10.3062 33.0084ZM27.5664 32.9952H10.3678V33.2952H27.5664V32.9952ZM33.1621 35.5026L27.628 33.0084L27.5047 33.2819L33.0389 35.7761L33.1621 35.5026ZM13.3886 31.9345H24.5474V31.6345H13.3886V31.9345ZM18.9081 29.1339L13.327 31.6478L13.4502 31.9213L19.0313 29.4074L18.9081 29.1339ZM24.6091 31.6478L19.0313 29.1339L18.908 29.4074L24.4858 31.9213L24.6091 31.6478ZM35.7761 33.0906L33.2817 27.556L33.0082 27.6792L35.5026 33.2138L35.7761 33.0906ZM35.4894 4.75221V33.1522H35.7894V4.75221H35.4894ZM33.2817 10.3517L35.7761 4.81381L35.5026 4.69061L33.0082 10.2285L33.2817 10.3517ZM33.2949 27.6176V10.2901H32.9949V27.6176H33.2949ZM31.6343 13.3109V24.5986H31.9343V13.3109H31.6343ZM29.3782 19.018L31.9211 13.3725L31.6475 13.2493L29.1046 18.8948L29.3782 19.018ZM31.9211 24.537L29.3781 18.8948L29.1046 19.0181L31.6476 24.6603L31.9211 24.537ZM30.5497 24.8058L28.6321 20.551L28.3586 20.6743L30.2762 24.9291L30.5497 24.8058ZM26.5789 25.0174H30.413V24.7174H26.5789V25.0174ZM28.3586 20.5511L26.4421 24.8058L26.7157 24.929L28.6321 20.6743L28.3586 20.5511ZM35.113 34.9307L31.163 26.1664L30.8895 26.2897L34.8395 35.0539L35.113 34.9307ZM26.1671 31.1866L34.9146 35.129L35.0379 34.8555L26.2904 30.9131L26.1671 31.1866ZM26.0787 26.2281V31.0498H26.3787V26.2281H26.0787ZM31.0262 26.0781H26.2287V26.3781H31.0262V26.0781ZM25.0181 30.4366V26.6138H24.7181V30.4366H25.0181ZM20.5643 28.6614L24.8065 30.5733L24.9297 30.2998L20.6875 28.3879L20.5643 28.6614ZM24.8065 26.4771L20.5643 28.3879L20.6875 28.6614L24.9297 26.7506L24.8065 26.4771ZM27.6122 18.895L24.8619 25.0011L25.1354 25.1243L27.8858 19.0182L27.6122 18.895ZM24.8946 12.9883L27.6122 19.0182L27.8857 18.895L25.1681 12.8651L24.8946 12.9883ZM18.9703 10.3595L24.9697 13.0634L25.093 12.7899L19.0935 10.086L18.9703 10.3595ZM12.9896 13.1089L19.0935 10.3595L18.9703 10.086L12.8664 12.8354L12.9896 13.1089ZM10.3625 19.0332L13.0648 13.0337L12.7912 12.9105L10.0889 18.9099L10.3625 19.0332ZM13.1144 25.016L10.3624 18.9099L10.0889 19.0332L12.8409 25.1392L13.1144 25.016ZM19.0315 27.6415L13.0393 24.9409L12.916 25.2144L18.9082 27.915L19.0315 27.6415ZM24.937 24.926L18.9082 27.6415L19.0314 27.915L25.0602 25.1995L24.937 24.926ZM24.9297 11.2239L20.7498 9.34L20.6265 9.61351L24.8065 11.4974L24.9297 11.2239ZM24.7181 7.59398V11.3607H25.0181V7.59398H24.7181ZM20.7497 9.61352L24.9297 7.73075L24.8065 7.45721L20.6265 9.33999L20.7497 9.61352ZM28.6318 17.2387L26.7532 13.0706L26.4797 13.1938L28.3583 17.362L28.6318 17.2387ZM30.2357 13.0706L28.3582 17.2388L28.6318 17.362L30.5092 13.1938L30.2357 13.0706ZM26.6164 13.2822H30.3725V12.9822H26.6164V13.2822ZM34.7662 3.0124L30.8486 11.71L31.1221 11.8332L35.0397 3.1356L34.7662 3.0124ZM26.2903 7.11788L34.9646 3.21077L34.8414 2.93723L26.1671 6.84435L26.2903 7.11788ZM26.3787 11.7716V6.98112H26.0787V11.7716H26.3787ZM30.9853 11.6216H26.2287V11.9216H30.9853V11.6216ZM7.11744 11.7099L3.16954 2.95038L2.89603 3.07365L6.84393 11.8332L7.11744 11.7099ZM11.772 11.6216H6.98069V11.9216H11.772V11.6216ZM11.622 6.95076V11.7716H11.922V6.95076H11.622ZM2.97115 3.14877L11.7104 7.08751L11.8336 6.814L3.09442 2.87526L2.97115 3.14877ZM7.45717 13.1938L9.34255 17.3771L9.61605 17.2538L7.73067 13.0706L7.45717 13.1938ZM11.3636 12.9822H7.59392V13.2822H11.3636V12.9822ZM9.61607 17.3771L11.5003 13.1938L11.2268 13.0706L9.34254 17.2539L9.61607 17.3771ZM13.2826 11.3876V7.56399H12.9826V11.3876H13.2826ZM17.3142 9.33961L13.071 11.2509L13.1942 11.5244L17.4374 9.61314L17.3142 9.33961ZM13.071 7.70074L17.3142 9.61313L17.4375 9.33962L13.1943 7.42723L13.071 7.70074ZM33.1736 2.21063H4.89896V2.51063H33.1736V2.21063ZM27.8243 4.93463L33.2352 2.4974L33.112 2.22386L27.7011 4.6611L27.8243 4.93463ZM10.3067 4.94786H27.7627V4.64786H10.3067V4.94786ZM4.83732 2.49738L10.245 4.93461L10.3683 4.66111L4.96059 2.22388L4.83732 2.49738ZM24.6803 6.02173L18.9705 8.5936L19.0937 8.86713L24.8035 6.29526L24.6803 6.02173ZM13.3256 6.30849H24.7419V6.00849H13.3256V6.30849ZM19.0937 8.59362L13.3872 6.02174L13.264 6.29525L18.9704 8.86712L19.0937 8.59362Z" fill="#2D6380"/>
</svg>
