<svg width="25" height="38" viewBox="0 0 25 38" fill="none" xmlns="http://www.w3.org/2000/svg">
<path d="M24 24.9542C24 24.9542 24 23.7634 23.9079 22.6183C23.8157 21.4733 23.6314 19.7328 23.6314 19.687C23.4932 18.6336 23.2629 17.626 22.9865 16.5725C22.6179 15.1985 21.6505 12.5878 21.6044 12.4962C21.5583 12.4046 20.5909 10.1603 20.0841 9.33588C19.5774 8.51145 18.6099 6.9542 18.6099 6.9542C17.8267 5.85496 16.9514 4.75573 16.03 3.74809C15.0165 2.74046 13.9109 1.82443 12.7591 1H12.7131H12.667H12.6209H12.3906H12.3445H12.2984H12.2524H12.2063C11.0546 1.82443 9.94892 2.74046 8.9354 3.74809C8.01402 4.75573 7.13871 5.85496 6.35553 6.9542C6.35553 6.9542 5.34201 8.60305 4.88132 9.38168C4.32849 10.3893 3.82173 11.4427 3.36104 12.542C3.31497 12.6336 2.39359 15.2901 1.97897 16.6183C1.70255 17.626 1.47221 18.6794 1.334 19.7328C1.334 19.7328 1.14972 21.4733 1.05759 22.6641C0.965448 23.855 1.01152 24.9542 1.01152 24.9542V25C1.10366 26.1908 1.24186 27.3359 1.51828 28.4809C1.79469 29.3053 2.11718 30.084 2.57787 30.8168C2.57787 30.8626 3.03856 31.5496 3.49925 32.1908C3.72959 32.4656 4.51277 33.4275 4.55884 33.4733C5.15774 34.0229 5.75663 34.5267 6.4016 35.0305C6.95443 35.4427 7.55333 35.8092 8.1983 36.084C8.98147 36.4046 9.76465 36.6336 10.5939 36.8168C11.2389 36.9542 11.8838 37 12.5288 37C13.1738 37 13.7727 36.9084 14.4176 36.8168C15.2469 36.6336 16.03 36.4046 16.7672 36.084L16.8593 36.0382C17.5043 35.7634 18.1032 35.3969 18.656 35.0305C19.301 34.5725 19.8998 34.0229 20.4987 33.4733C20.5448 33.4275 21.328 32.5114 21.5583 32.1908C22.019 31.5496 22.4797 30.8626 22.4797 30.8168C22.9404 30.084 23.2629 29.3053 23.5393 28.4809C23.7697 27.3359 23.9539 26.1908 24 24.9542ZM1.88683 22.6641C1.9329 21.8397 2.07111 20.7863 2.11718 20.1908L2.80821 20.2824L3.77566 20.4198L1.88683 23.3969C1.84076 23.2137 1.88683 22.9389 1.88683 22.6641ZM22.8943 20.2366C22.9404 20.8321 23.0786 21.8855 23.1247 22.7099C23.1247 22.9847 23.1708 23.2595 23.1708 23.5344L21.2359 20.5114L22.2033 20.374L22.8943 20.2366ZM19.8077 32.8779L16.4447 33.5649L16.8132 32.1908L17.32 30.4504L19.8998 30.1298L19.8077 32.8779ZM5.15774 30.1298L7.73761 30.4962L8.61292 33.6107L5.24987 32.8779L5.15774 30.1298ZM7.41512 26.6031L7.0005 25.1832L8.01402 20.145L8.84326 15.9313L12.4827 11.2595L14.003 13.1832L16.1683 15.9313V15.9771C16.1222 16.0687 16.1222 16.1145 16.1222 16.2061L17.9189 25.3664L16.6289 29.855L12.4827 32.0992L8.38257 29.855L7.41512 26.6031ZM8.70506 30.9084L11.6074 32.5115L9.44216 33.5191L8.70506 30.9084ZM13.358 32.5115L16.3065 30.9084L15.5694 33.5191L13.358 32.5115ZM17.32 17.5343L20.0381 20.5114L18.5638 23.855L17.32 17.5343ZM15.7536 9.38168L16.03 14.4656L13.0816 10.7557L13.6805 10.4351L15.7536 9.38168ZM11.1006 11.7634L8.98147 14.4656V14.374L9.25789 9.38168L11.8838 10.7557L11.1006 11.7634ZM7.78367 17.0763L6.63195 22.8473L6.44767 23.855L4.88132 20.2824L7.78367 17.0763ZM6.53981 26.4198L7.46119 29.626L6.30946 29.4886L5.34201 29.3511L5.84877 28.1145L6.53981 26.4198ZM17.5503 29.626L18.2874 27.1527L18.5178 26.4198L18.7021 26.8779L19.7156 29.3511L18.7021 29.4886L17.5503 29.626ZM20.3145 19.229L16.9514 15.5649L16.6289 9.61069L20.8673 12.8626L20.3145 19.229ZM15.6154 8.55725L12.9434 9.9313V3.01527L14.0491 5.25954L15.6154 8.55725ZM12.1142 3.79389V9.9771L9.44216 8.60305L12.1142 3.06107V3.79389ZM8.42864 9.61069L8.10616 15.5649L4.74311 19.229L4.19029 12.8168L8.42864 9.61069ZM9.94892 34.1603L12.4827 32.9695L15.0165 34.1603L12.4827 36.0382L9.94892 34.1603ZM1.88683 24.9542L4.32849 21.0611L4.78918 22.1145L6.17126 25.229L5.29594 27.2443L4.65098 28.8473L2.39359 25.687L1.88683 24.9542ZM20.3145 28.8473L19.8538 27.6565L18.9324 25.4122L20.7752 21.1985L23.1247 24.9542L22.8483 25.3206L20.3145 28.8473ZM22.7561 19.4122L21.6044 19.5954L21.0055 19.687L21.4662 14.5573C21.7426 15.3359 22.019 16.2061 22.2033 16.8015C22.4797 17.6718 22.664 18.542 22.7561 19.4122ZM20.2223 11.3511L16.8132 8.74046L18.1492 7.73282C18.4717 8.28244 19.0706 9.24428 19.4392 9.79389C19.7156 10.2519 19.992 10.8015 20.2223 11.3511ZM15.4311 4.20611C16.2604 5.07634 16.9975 6.03817 17.6885 7L16.2604 8.05343L13.5884 2.55725C14.2333 3.10687 14.8783 3.65649 15.4311 4.20611ZM9.58037 4.20611C10.1332 3.61069 10.7782 3.10687 11.4231 2.60305L11.1928 3.06107L8.75113 8.09924L7.32298 7.0458C8.01402 6.03817 8.75113 5.12214 9.58037 4.20611ZM5.57236 9.74809C5.94091 9.19847 6.49374 8.23664 6.86229 7.68702L8.1983 8.69466L4.78918 11.3053C5.01953 10.8015 5.29594 10.2977 5.57236 9.74809ZM3.49925 14.5573L3.95994 19.687L3.40711 19.5954L2.20931 19.4122C2.34752 18.542 2.5318 17.6718 2.76214 16.8015C2.94642 16.2061 3.22283 15.3359 3.49925 14.5573ZM1.9329 26.4656L2.16324 26.8321L4.09815 29.5344L2.99249 30.084C2.67001 29.5344 2.39359 28.9389 2.20931 28.2977C2.11718 27.7023 2.02504 27.0611 1.9329 26.4656ZM3.45318 30.771L4.00601 30.4962L4.37456 30.313L4.42063 32.0534C4.32849 31.916 4.19029 31.7786 4.14422 31.7328C3.8678 31.4122 3.63746 31.0458 3.45318 30.771ZM6.21733 33.9313L8.56685 34.4351L8.15223 35.2137C7.69154 34.9847 7.27691 34.7099 6.86229 34.4351C6.63195 34.2519 6.4016 34.0687 6.21733 33.9313ZM8.9354 35.4886L9.35002 34.7099L11.1467 36.084L10.7321 35.9924C10.0871 35.9008 9.48823 35.7176 8.9354 35.4886ZM14.2794 35.9924L13.9109 36.084L15.7076 34.7099L16.1222 35.4886C15.4772 35.6718 14.8783 35.855 14.2794 35.9924ZM18.1492 34.3893C17.7346 34.6641 17.2739 34.9389 16.8593 35.1679L16.4447 34.3893L18.7942 33.8855C18.6099 34.0687 18.3796 34.2519 18.1492 34.3893ZM20.637 32.0992L20.683 30.3588L21.2359 30.6794L21.5583 30.8168C21.3741 31.0916 21.1437 31.458 20.9134 31.7786C20.8212 31.7786 20.7291 31.916 20.637 32.0992ZM22.7561 28.2977C22.5719 28.9389 22.2954 29.5344 21.973 30.084L20.8673 29.5344L22.5719 27.1527L23.0786 26.4656C22.9865 27.0611 22.8943 27.7023 22.7561 28.2977Z" fill="#2D6380" stroke="#2D6380" stroke-width="0.5"/>
</svg>
