<svg width="38" height="38" viewBox="0 0 38 38" fill="none" xmlns="http://www.w3.org/2000/svg">
<path d="M31.1909 1.08182C31.1909 1.08182 31.1091 1.08182 31.1091 1H6.89091C6.89091 1 6.80909 1 6.80909 1.08182L1.08182 6.80909C1.08182 6.80909 1.08182 6.89091 1 6.89091V31.1091C1 31.1091 1 31.1909 1.08182 31.1909L6.80909 36.9182L6.89091 37H31.1091C31.1909 37 31.1909 37 31.1909 36.9182L36.9182 31.1909C36.9182 31.1909 36.9182 31.1091 37 31.1091V6.89091C37 6.89091 37 6.80909 36.9182 6.80909L31.1909 1.08182ZM1.24545 30.9455V7.13636L3.53636 7.87273L4.84545 8.28182V29.8818L3.45455 30.2091L1.24545 30.9455ZM8.28182 32.8273L9.18182 29.0636L18.2636 30.4545L14.9909 31.2727L8.28182 32.8273ZM19.7364 30.4545L28.8182 29.0636L29.7182 32.8273L19.7364 30.4545ZM28.8182 28.8182L25.3 29.3091L19 30.2909L12.7 29.3909L9.18182 28.8182L8.85455 26.6909L7.70909 19L8.77273 11.6364L9.1 9.18182L12.7818 8.60909L19 7.70909L25.1364 8.60909L28.8182 9.18182L29.3091 12.2909L30.2909 19L29.2273 25.8727L28.8182 28.8182ZM7.54545 18.2636L5.17273 8.28182L8.93636 9.18182L7.54545 18.2636ZM7.54545 19.7364L8.93636 28.8182L5.17273 29.7182L7.54545 19.7364ZM9.18182 8.93636L8.28182 5.17273L16.9545 7.3L18.2636 7.54545L16.3818 7.79091L9.18182 8.93636ZM29.0636 9.18182L32.8273 8.28182L30.4545 18.2636L29.0636 9.18182ZM21.2909 7.79091L19.7364 7.54545L29.6364 5.17273L28.8182 8.93636L21.2909 7.79091ZM32.8273 29.7182L29.0636 28.8182L30.4545 19.7364L32.8273 29.7182ZM7.46364 19L5.09091 28.6545V9.34545L7.46364 19ZM29.7182 31.5182L29.1455 29.0636L32.7455 29.8818L29.9636 32.6636L29.7182 31.5182ZM32.3364 26.2818L30.5364 19L32.9091 9.34545V28.6545L32.3364 26.2818ZM32.7455 8.03636L29.1455 8.85455L29.8 6.15455L30.0455 5.25455L31.4364 6.64545L32.7455 8.03636ZM19 7.46364L9.34545 5.09091H28.6545L19 7.46364ZM8.85455 8.85455L5.25455 8.03636L8.03636 5.25455L8.85455 8.85455ZM8.85455 29.1455L8.77273 29.5545L8.03636 32.7455L5.25455 29.9636L8.85455 29.1455ZM19 30.5364L28.6545 32.9091H9.34545L19 30.5364ZM33.1545 29.8V8.2L34.4636 7.79091L36.7545 7.05455V30.8636L34.5455 30.2091L33.1545 29.8ZM33.0727 7.95455L31.6 6.48182L30.1273 5.00909L31.2727 1.49091L36.6727 6.89091L33.0727 7.95455ZM30.9455 1.24545L29.8 4.76364H8.2L7.79091 3.45455L7.13636 1.24545H30.9455ZM6.80909 1.40909L7.95455 4.92727L4.92727 7.95455L1.40909 6.80909L6.80909 1.40909ZM4.92727 30.0455L7.95455 33.0727L6.80909 36.5909L1.40909 31.1909L4.92727 30.0455ZM7.79091 34.4636L8.2 33.1545H29.7182L30.8636 36.6727H7.13636L7.79091 34.4636ZM31.1909 36.5909L30.8636 35.5273L30.1273 33.0727L31.6 31.6L33.0727 30.1273L36.5909 31.2727L31.1909 36.5909Z" fill="#2D6380" stroke="#2D6380" stroke-width="1.5" stroke-linecap="round" stroke-linejoin="round"/>
</svg>
