<svg width="38" height="38" viewBox="0 0 38 38" fill="none" xmlns="http://www.w3.org/2000/svg">
<path d="M37 18.9807C37 16.5059 36.4968 14.1472 35.6065 12.0204V11.9817V11.9431C34.7161 9.85499 33.4387 7.96026 31.8516 6.37487L31.8129 6.3362L31.7742 6.29753L31.7355 6.25886L31.6968 6.22019C30.0323 4.59613 28.0581 3.28142 25.8903 2.35338C25.8516 2.35338 25.8516 2.31472 25.8129 2.31472C25.7742 2.31472 25.7742 2.31472 25.7355 2.31472C23.6065 1.46402 21.3613 1 19 1C16.5226 1 14.1613 1.50269 12.0323 2.39205H11.9935H11.9548C9.86452 3.28142 7.96774 4.55746 6.38064 6.14286L6.34194 6.18153C6.34194 6.18153 6.30323 6.18153 6.30323 6.22019L6.26452 6.25886L6.22581 6.29753C4.6 7.96026 3.28387 9.93233 2.35484 12.0977C2.35484 12.1364 2.31613 12.1364 2.31613 12.1751C2.31613 12.2137 2.31613 12.2137 2.31613 12.2524C1.46452 14.3792 1 16.6219 1 18.9807C1 21.4554 1.50323 23.8142 2.39355 25.9409V25.9796C2.39355 25.9796 2.39355 25.9796 2.39355 26.0183C3.28387 28.1063 4.56129 30.0011 6.14839 31.6251C6.1871 31.6638 6.22581 31.7025 6.26452 31.7411C6.26452 31.7411 6.26452 31.7411 6.30323 31.7411C6.30323 31.7411 6.30323 31.7411 6.34194 31.7798C8.00645 33.4039 9.98064 34.7186 12.1484 35.6466C12.1871 35.6466 12.1871 35.6853 12.2258 35.6853H12.2645C14.3548 36.536 16.6 37 18.9613 37C21.4387 37 23.8 36.4973 25.9677 35.5693H26.0065H26.0452C28.1355 34.6799 30.0323 33.4039 31.6194 31.8185C31.6968 31.7798 31.7355 31.7411 31.7742 31.6638C33.4 30.0011 34.7548 28.029 35.6452 25.8249C35.6452 25.8249 35.6452 25.7863 35.6839 25.7863C35.6839 25.7476 35.6839 25.7476 35.6839 25.7089C36.5355 23.5822 37 21.3394 37 18.9807ZM34.7935 24.7809L31.1161 23.3502L35.7613 20.102C35.6839 21.7261 35.3355 23.3115 34.7935 24.7809ZM26.0839 34.2546L24.4968 30.6584L30.071 31.6638C28.871 32.7078 27.5161 33.5585 26.0839 34.2546ZM7.92903 31.6638L13.5419 30.6584L12.1097 34.3706C10.6 33.6359 9.20645 32.7465 7.92903 31.6638ZM2.2 20.102L6.88387 23.3502L3.24516 24.9742C2.70323 23.4662 2.31613 21.8421 2.2 20.102ZM3.20645 13.1805L6.88387 14.6112L2.23871 17.8593C2.31613 16.2352 2.66452 14.6498 3.20645 13.1805ZM11.9161 3.70677L13.5032 7.3029L7.92903 6.29753C9.12903 5.29216 10.4839 4.40279 11.9161 3.70677ZM30.071 6.29753L24.4581 7.3029L25.8903 3.59076C27.4 4.32546 28.7935 5.21482 30.071 6.29753ZM35.8 17.8593L31.1161 14.6112L34.7548 12.9871C35.2968 14.4952 35.6839 16.1192 35.8 17.8593ZM19 25.9796L14.0452 23.9302L11.9935 18.9807L14.0452 14.0311L19 11.9817L23.9548 14.0311L26.0065 18.9807L23.9548 23.9302L19 25.9796ZM11.2194 17.8206L9.09032 14.9205L12.6516 14.3792L11.2194 17.8206ZM12.6903 23.6208L9.12903 23.0408L11.2581 20.1407L12.6903 23.6208ZM26.7806 20.1407L28.9097 23.0408L25.3097 23.6208L26.7806 20.1407ZM25.3097 14.3405L28.871 14.9205L26.7806 17.8206L25.3097 14.3405ZM29.4516 13.7991L24.8839 13.0644L24.1871 8.54028L30.6129 7.38024L29.4516 13.7991ZM23.1032 9.1203L23.6452 12.6778L20.1613 11.247L23.1032 9.1203ZM19 10.667L15.2839 7.96026L19 2.58539L22.7161 7.92159L19 10.667ZM17.8387 11.2084L14.3548 12.6391L14.9355 9.08163L17.8387 11.2084ZM13.1161 13.1031L8.54839 13.7991L7.3871 7.38024L13.8129 8.54028L13.1161 13.1031ZM7.96774 15.2685L10.6774 18.9807L7.96774 22.6928L2.5871 18.9807L7.96774 15.2685ZM8.54839 24.1622L13.1161 24.8969L13.8129 29.4211L7.3871 30.5811L8.54839 24.1622ZM14.8968 28.841L14.3548 25.2836L17.8387 26.7143L14.8968 28.841ZM19 27.2943L22.7161 30.0011L19 35.3759L15.2839 30.0397L19 27.2943ZM20.1613 26.753L23.6452 25.3222L23.0645 28.8797L20.1613 26.753ZM24.8839 24.8582L29.4516 24.1622L30.6129 30.5811L24.1871 29.4211L24.8839 24.8582ZM30.0323 22.6928L27.3226 18.9807L30.0323 15.2685L35.4129 18.9807L30.0323 22.6928ZM30.6903 13.4898L31.6968 7.92159C32.7419 9.1203 33.5935 10.435 34.2903 11.9044L30.6903 13.4898ZM23.3742 6.83888L20.1226 2.19871C21.7484 2.31472 23.2968 2.66273 24.7677 3.16541L23.3742 6.83888ZM14.5871 6.87755L12.9613 3.24275C14.5097 2.66273 16.1355 2.27605 17.8387 2.16004L14.5871 6.87755ZM6.30323 7.92159L7.30968 13.5285L3.59355 12.0977C4.32903 10.5897 5.21936 9.19764 6.30323 7.92159ZM7.30968 24.4715L6.30323 30.0397C5.25806 28.841 4.40645 27.5263 3.70968 26.0569L7.30968 24.4715ZM14.6258 31.1224L17.8774 35.7626C16.2516 35.6466 14.7032 35.2986 13.2323 34.7959L14.6258 31.1224ZM23.4129 31.0838L25.0387 34.7186C23.4903 35.2986 21.8645 35.6853 20.1613 35.8013L23.4129 31.0838ZM31.6968 30.0397L30.6903 24.4329L34.4065 25.8636C33.671 27.3716 32.7806 28.7637 31.6968 30.0397Z" fill="#2D6380" stroke="#2D6380" stroke-width="0.4"/>
</svg>
