<svg width="40" height="51" viewBox="0 0 40 51" fill="none" xmlns="http://www.w3.org/2000/svg">
<path fill-rule="evenodd" clip-rule="evenodd" d="M40 34.2852V12.2882C40 11.6148 39.9182 11.1163 39.5111 10.7128L29.1671 0.483509C28.8569 0.176701 28.4267 0 27.9867 0H2.18933C1.13511 0 0 0.805263 0 2.57227V34.2852H40ZM27.5556 2.98105C27.5556 2.57842 28.0471 2.37711 28.3351 2.66194L37.3084 11.5365C37.5964 11.8214 37.3929 12.3075 36.9858 12.3075H27.5556V2.98105ZM10.6062 27.9161C10.768 26.4849 12.5573 24.9869 15.9262 23.4607C17.2631 20.5632 18.5351 16.9932 19.2933 14.0103C18.4062 12.1009 17.544 9.62359 18.1724 8.17043C18.3929 7.66142 18.6676 7.2711 19.1804 7.10231C19.3831 7.0355 19.8951 6.95111 20.0836 6.95111C20.4866 6.95111 20.8457 7.41279 21.1169 7.76151C21.1472 7.80044 21.1764 7.83797 21.2044 7.87329L21.2103 7.8807C21.4754 8.21446 22.0525 8.94117 20.8729 13.853C22.0711 16.3004 23.7689 18.7936 25.3956 20.5008C26.5609 20.2924 27.5636 20.1861 28.3804 20.1861C29.7724 20.1861 30.616 20.5069 30.96 21.168C31.2444 21.7148 31.128 22.354 30.6133 23.0669C30.1182 23.7517 29.4356 24.1139 28.64 24.1139C27.5591 24.1139 26.3004 23.4388 24.8969 22.1052C22.3751 22.6265 19.4293 23.5566 17.0498 24.586C16.3067 26.1455 15.5947 27.4018 14.9316 28.3231C14.0222 29.5872 13.2364 30.1754 12.4587 30.1754C12.1493 30.1754 11.8524 30.076 11.5991 29.8888C10.672 29.2004 10.5476 28.4365 10.6062 27.9161ZM15 25C13.4183 28.4831 12.5694 28.9453 12.424 29C11.9673 28.5832 11.9937 28.3015 12.0044 28.1944C12.0649 27.5471 12.9138 26.3981 15 25ZM12.1118 39.1984C12.352 39.3307 12.5385 39.495 12.6722 39.6914C12.805 39.8888 12.8926 40.0942 12.936 40.3086C12.9783 40.522 13 40.7124 13 40.8768C13 41.2876 12.9529 41.6323 12.8587 41.9108C12.7645 42.1894 12.6402 42.4058 12.4857 42.5611C12.3312 42.7164 12.1617 42.8287 11.9771 42.8968C11.7915 42.9659 11.605 43 11.4166 43H10V39H11.1586C11.5532 39 11.8716 39.0661 12.1118 39.1984ZM20.2169 15.7144C19.5638 17.5833 18.7035 19.6011 17.7776 21.4286C19.6842 20.8159 21.7568 20.281 23.7035 19.9026C22.472 18.718 21.2414 17.2388 20.2169 15.7144ZM0 48.3207V35.7158H40V48.3207C40 49.1686 38.9156 50.0013 37.8107 50.0013H2.18933C1.08444 50.0013 0 49.1686 0 48.3207ZM13.9298 42.8376C14.2053 42.6006 14.4204 42.3073 14.5742 41.9586C14.728 41.6099 14.8053 41.2216 14.8044 40.7922C14.8044 40.3855 14.7129 40.02 14.5307 39.6948C14.3484 39.3695 14.1093 39.0914 13.8133 38.862C13.5173 38.6326 13.1831 38.4603 12.8107 38.3452C12.4382 38.2301 12.0613 38.1729 11.6809 38.1729H9.10489V46.64H10.5636V43.5838H11.6453C12.1147 43.5838 12.5449 43.5191 12.9333 43.3888C13.3218 43.2586 13.6542 43.0745 13.9298 42.8376ZM22.9111 45.1989C23.1547 44.8653 23.3547 44.4518 23.5129 43.9577C23.6711 43.4636 23.7502 42.8678 23.7493 42.1703C23.7493 41.6645 23.656 41.172 23.4702 40.6939C23.2836 40.2158 23.0027 39.788 22.6258 39.4132C22.2489 39.0385 21.7742 38.7368 21.2036 38.5116C20.6329 38.2864 19.9707 38.1729 19.2169 38.1729H16.5191V46.64H19.9093C20.0231 46.64 20.1973 46.6266 20.432 46.6014C20.6667 46.5745 20.9262 46.5131 21.2098 46.4173C21.4933 46.3207 21.7867 46.1778 22.0907 45.9863C22.3947 45.7947 22.6676 45.5325 22.9111 45.1989ZM27.3467 39.2183H31.4667V38.1729H25.864V46.64H27.3467V42.8258H31.0898V41.8838H27.3467V39.2183ZM21.3871 40.0231C21.1465 39.7175 20.8195 39.4707 20.407 39.2826C19.9946 39.0945 19.4597 39 18.8023 39H18V46H19.3641C20.2964 46 20.9688 45.6743 21.3813 45.0219C21.7938 44.3695 22 43.4244 22 42.1867C22 41.8022 21.9581 41.4214 21.8742 41.0452C21.7896 40.669 21.6278 40.3286 21.3871 40.0231Z" fill="#EB5757"/>
</svg>
