<svg width="14" height="14" viewBox="0 0 14 14" fill="none" xmlns="http://www.w3.org/2000/svg">
<path d="M6 6.31372C5.44772 6.31372 5 6.76144 5 7.31372C5 7.86601 5.44772 8.31372 6 8.31372V6.31372ZM7 8.31372C7.55228 8.31372 8 7.86601 8 7.31372C8 6.76144 7.55228 6.31372 7 6.31372V8.31372ZM1.70711 0.606497C1.31658 0.215973 0.683417 0.215973 0.292893 0.606497C-0.0976311 0.997021 -0.0976311 1.63019 0.292893 2.02071L1.70711 0.606497ZM11.6066 13.3344C11.9971 13.7249 12.6303 13.7249 13.0208 13.3344C13.4113 12.9439 13.4113 12.3107 13.0208 11.9202L11.6066 13.3344ZM0.292893 11.6066C-0.0976311 11.9971 -0.0976311 12.6303 0.292893 13.0208C0.683417 13.4113 1.31658 13.4113 1.70711 13.0208L0.292893 11.6066ZM13.0208 1.70711C13.4113 1.31658 13.4113 0.683417 13.0208 0.292893C12.6303 -0.0976311 11.9971 -0.0976311 11.6066 0.292893L13.0208 1.70711ZM6 8.31372H7V6.31372H6V8.31372ZM0.292893 2.02071L11.6066 13.3344L13.0208 11.9202L1.70711 0.606497L0.292893 2.02071ZM1.70711 13.0208L13.0208 1.70711L11.6066 0.292893L0.292893 11.6066L1.70711 13.0208Z" fill="white"/>
</svg>
