<svg width="31" height="31" viewBox="0 0 31 31" fill="none" xmlns="http://www.w3.org/2000/svg">
<path d="M15.4994 6.76821C21.7998 6.76821 27.3451 13.1706 29.1546 15.5C27.3451 17.8302 21.7995 24.2317 15.4994 24.2317C9.1977 24.2317 3.65211 17.8265 1.84419 15.4984C3.64901 13.1691 9.18034 6.76821 15.4994 6.76821ZM15.4994 5.28455C6.93904 5.28455 0 15.5 0 15.5C0 15.5 6.93904 25.7151 15.4994 25.7151C24.061 25.7151 31 15.5 31 15.5C31 15.5 24.061 5.28455 15.4994 5.28455Z" fill="#2E4E59"/>
<path d="M15.4994 21.4157C12.2369 21.4157 9.58301 18.7615 9.58301 15.5C9.58301 12.2384 12.2369 9.58423 15.4994 9.58423C18.7618 9.58423 21.4157 12.2384 21.4157 15.5C21.4157 18.7615 18.7615 21.4157 15.4994 21.4157ZM15.4994 11.0679C13.0556 11.0679 11.0664 13.0562 11.0664 15.5C11.0664 17.9437 13.0556 19.9323 15.4994 19.9323C17.9446 19.9323 19.9324 17.944 19.9324 15.5C19.9324 13.0559 17.9446 11.0679 15.4994 11.0679Z" fill="#2E4E59"/>
</svg>
