<svg width="25" height="25" viewBox="0 0 25 25" fill="none" xmlns="http://www.w3.org/2000/svg">
<path d="M3.7 22.75H21.3C22.225 22.75 23 21.975 23 21.025V18.3C23 17.7 22.7 17.15 22.2 16.85C19.325 15.025 16 14.05 12.575 14.05H12.45C9.025 14.05 5.7 15.025 2.8 16.85C2.3 17.175 2 17.7 2 18.3V21.025C2 21.975 2.75 22.75 3.7 22.75ZM3 18.3C3 18.05 3.125 17.825 3.325 17.7C6.05 15.975 9.2 15.05 12.425 15.05H12.55C15.775 15.05 18.925 15.975 21.65 17.7C21.85 17.825 21.975 18.075 21.975 18.3V21.025C21.975 21.425 21.65 21.75 21.275 21.75H3.7C3.325 21.75 3 21.425 3 21.025V18.3Z" fill="#2E4E59"/>
<path d="M12.05 12.5H12.975C14.925 12.5 16.5 10.925 16.5 8.975V5.525C16.5 3.575 14.925 2 12.95 2H12.025C10.075 2 8.5 3.575 8.5 5.525V8.95C8.5 10.925 10.075 12.5 12.05 12.5ZM9.5 5.525C9.5 4.15 10.65 3 12.05 3H12.975C14.35 3 15.5 4.15 15.5 5.525V8.95C15.5 10.35 14.35 11.5 12.95 11.5H12.025C10.65 11.5 9.5 10.35 9.5 8.975V5.525Z" fill="#2E4E59"/>
</svg>
