<svg width="18" height="12" viewBox="0 0 18 12" fill="none" xmlns="http://www.w3.org/2000/svg">
<path d="M6.99977 10C6.44749 10 5.99977 10.4477 5.99977 11C5.99977 11.5523 6.44749 12 6.99977 12V10ZM10.9998 12C11.5521 12 11.9998 11.5523 11.9998 11C11.9998 10.4477 11.5521 10 10.9998 10V12ZM3.99989 5C3.4476 5 2.99989 5.44772 2.99989 6C2.99989 6.55228 3.4476 7 3.99989 7V5ZM13.9999 7C14.5522 7 14.9999 6.55228 14.9999 6C14.9999 5.44772 14.5522 5 13.9999 5V7ZM1 0C0.447715 0 0 0.447715 0 1C0 1.55228 0.447715 2 1 2V0ZM17 2C17.5523 2 18 1.55228 18 1C18 0.447715 17.5523 0 17 0V2ZM6.99977 12H10.9998V10H6.99977V12ZM3.99989 7H13.9999V5H3.99989V7ZM1 2H17V0H1V2Z" fill="#2D6380"/>
</svg>
