<svg width="16" height="16" viewBox="0 0 16 16" fill="none" xmlns="http://www.w3.org/2000/svg">
<path d="M14.3638 8.70711C14.7544 8.31658 14.7544 7.68342 14.3638 7.29289C13.9733 6.90237 13.3402 6.90237 12.9496 7.29289L14.3638 8.70711ZM7.29278 12.9497C6.90225 13.3403 6.90225 13.9734 7.29278 14.364C7.6833 14.7545 8.31647 14.7545 8.70699 14.364L7.29278 12.9497ZM7.29278 14.364C7.6833 14.7545 8.31647 14.7545 8.70699 14.364C9.09752 13.9734 9.09752 13.3403 8.70699 12.9497L7.29278 14.364ZM3.05014 7.29289C2.65961 6.90237 2.02645 6.90237 1.63592 7.29289C1.2454 7.68342 1.2454 8.31658 1.63592 8.70711L3.05014 7.29289ZM12.9496 7.29289L7.29278 12.9497L8.70699 14.364L14.3638 8.70711L12.9496 7.29289ZM8.70699 12.9497L3.05014 7.29289L1.63592 8.70711L7.29278 14.364L8.70699 12.9497Z" fill="#6990A7"/>
</svg>
