<svg width="78" height="78" viewBox="0 0 78 78" fill="none" xmlns="http://www.w3.org/2000/svg">
<path d="M40.17 21.4501C42.7547 21.4501 44.85 19.3548 44.85 16.7701C44.85 14.1854 42.7547 12.0901 40.17 12.0901C37.5853 12.0901 35.49 14.1854 35.49 16.7701C35.49 19.3548 37.5853 21.4501 40.17 21.4501Z" fill="black"/>
<path d="M40.17 65.91C41.4623 65.91 42.51 64.8623 42.51 63.57C42.51 62.2776 41.4623 61.23 40.17 61.23C38.8776 61.23 37.83 62.2776 37.83 63.57C37.83 64.8623 38.8776 65.91 40.17 65.91Z" fill="black"/>
<path d="M30.6068 23.6066C32.6586 22.4219 33.3616 19.7982 32.177 17.7464C30.9923 15.6946 28.3686 14.9916 26.3168 16.1763C24.265 17.3609 23.562 19.9846 24.7467 22.0364C25.9313 24.0882 28.555 24.7912 30.6068 23.6066Z" fill="black"/>
<path d="M52.8509 62.1358C53.7835 61.5973 54.103 60.4047 53.5646 59.4721C53.0261 58.5395 51.8335 58.2199 50.9009 58.7584C49.9682 59.2969 49.6487 60.4895 50.1872 61.4221C50.7256 62.3547 51.9182 62.6743 52.8509 62.1358Z" fill="black"/>
<path d="M23.2741 30.4335C24.3511 28.5682 23.712 26.183 21.8467 25.1061C19.9814 24.0291 17.5963 24.6682 16.5193 26.5335C15.4424 28.3988 16.0814 30.7839 17.9467 31.8609C19.812 32.9378 22.1972 32.2988 23.2741 30.4335Z" fill="black"/>
<path d="M61.7924 52.6387C62.2231 51.8926 61.9675 50.9385 61.2214 50.5078C60.4753 50.077 59.5212 50.3326 59.0904 51.0787C58.6596 51.8248 58.9153 52.7789 59.6614 53.2097C60.4075 53.6405 61.3616 53.3848 61.7924 52.6387Z" fill="black"/>
<path d="M16.77 43.6799C18.7085 43.6799 20.28 42.1084 20.28 40.1699C20.28 38.2314 18.7085 36.6599 16.77 36.6599C14.8315 36.6599 13.26 38.2314 13.26 40.1699C13.26 42.1084 14.8315 43.6799 16.77 43.6799Z" fill="black"/>
<path d="M63.57 41.34C64.2162 41.34 64.74 40.8162 64.74 40.17C64.74 39.5238 64.2162 39 63.57 39C62.9239 39 62.4 39.5238 62.4 40.17C62.4 40.8162 62.9239 41.34 63.57 41.34Z" fill="black"/>
<path d="M21.4516 54.578C22.9438 53.7164 23.455 51.8083 22.5935 50.3161C21.7319 48.8238 19.8238 48.3126 18.3316 49.1741C16.8393 50.0357 16.3281 51.9438 17.1896 53.4361C18.0512 54.9283 19.9593 55.4395 21.4516 54.578Z" fill="black"/>
<path d="M60.8365 29.137C61.2095 28.9216 61.3373 28.4446 61.122 28.0715C60.9066 27.6984 60.4295 27.5706 60.0565 27.786C59.6834 28.0014 59.5556 28.4784 59.771 28.8515C59.9864 29.2246 60.4634 29.3524 60.8365 29.137Z" fill="black"/>
<path d="M30.8457 61.8087C31.5995 60.503 31.1522 58.8334 29.8465 58.0795C28.5408 57.3256 26.8712 57.773 26.1173 59.0787C25.3635 60.3844 25.8108 62.054 27.1165 62.8079C28.4222 63.5617 30.0918 63.1144 30.8457 61.8087Z" fill="black"/>
<path d="M48.4548 31.3657H32.7505C32.7505 31.3657 32.5941 31.9735 32.5916 33.1993V33.2736C32.5941 34.4994 32.7505 35.1072 32.7505 35.1072H48.4548C48.4548 35.1072 48.6113 34.4994 48.6138 33.2736V33.1993C48.6113 31.9735 48.4548 31.3657 48.4548 31.3657Z" fill="#1F3340"/>
<path d="M48.4548 37.8408H32.7505C32.7505 37.8408 32.5941 38.4486 32.5916 39.6744V39.7487C32.5941 40.5411 32.6531 41.3592 32.6531 41.3617C32.7121 42.349 32.9121 43.244 33.1737 44.1056C33.525 45.2545 34.0738 46.2623 34.8097 47.1034C35.5483 47.9471 36.4997 48.6189 37.6383 49.101C38.7743 49.5806 40.136 49.8293 41.6849 49.8396C41.9592 49.8421 42.2259 49.8344 42.4875 49.8242L41.8105 46.4546C40.0847 46.4059 38.7948 45.9622 37.987 45.1185C37.2023 44.3031 36.7253 43.1132 36.5638 41.5823H48.4548C48.4548 41.5823 48.6113 40.9745 48.6138 39.7487V39.6744C48.6113 38.4486 48.4548 37.8408 48.4548 37.8408Z" fill="#1F3340"/>
</svg>
